<?xml version="1.0" encoding="UTF-8"?>
<!DOCTYPE svg PUBLIC "-//W3C//DTD SVG 1.1//EN" "http://www.w3.org/Graphics/SVG/1.1/DTD/svg11.dtd">
<!-- Creator: CorelDRAW Home & Student X7 -->
<svg xmlns="http://www.w3.org/2000/svg" xml:space="preserve" width="254mm" height="254mm" version="1.1" style="shape-rendering:geometricPrecision; text-rendering:geometricPrecision; image-rendering:optimizeQuality; fill-rule:evenodd; clip-rule:evenodd"
viewBox="0 0 25400 25400"
 xmlns:xlink="http://www.w3.org/1999/xlink">
 <defs>
  <style type="text/css">
   <![CDATA[
    .fil4 {fill:#020201}
    .fil1 {fill:#029B98}
    .fil0 {fill:#03BDB8}
    .fil13 {fill:#2E2C2D}
    .fil3 {fill:#3B3B3B}
    .fil7 {fill:#454545}
    .fil2 {fill:#474747}
    .fil9 {fill:#5C3536}
    .fil5 {fill:#714142}
    .fil6 {fill:#CCB953}
    .fil11 {fill:#D1577C}
    .fil14 {fill:#F4F1EF}
    .fil8 {fill:#F8E063}
    .fil10 {fill:#F9E165}
    .fil12 {fill:#FD6B98}
   ]]>
  </style>
 </defs>
 <g id="Layer_x0020_1">
  <metadata id="CorelCorpID_0Corel-Layer"/>
  <rect class="fil0" width="25400" height="25400"/>
  <path class="fil1" d="M10151 1166c-460,65 -849,468 -741,1015 86,425 497,821 1022,756 461,-57 828,-475 727,-1015 -72,-424 -511,-820 -1008,-756zm15249 432l0 -1598 -3715 0c-7,72 -29,130 -36,194 -115,670 158,1412 648,1843 151,137 374,296 562,375 453,209 1051,259 1547,57 216,-86 418,-208 576,-345 324,-295 353,-461 418,-526zm-2894 7401c-1231,159 -2016,1232 -1793,2434 216,1145 1289,1958 2426,1836 1109,-123 2031,-1131 1793,-2419 -79,-425 -266,-771 -526,-1080 -431,-497 -1151,-864 -1900,-771zm-569 7812c-634,79 -1130,605 -1008,1332 101,590 648,1094 1346,1029 1023,-86 1376,-1418 548,-2080 -202,-166 -526,-324 -886,-281zm-5565 3643c36,72 101,122 151,209 122,209 137,504 194,684 36,136 346,14 339,525 -7,216 -94,382 -115,569 122,122 518,302 684,374 129,51 237,94 374,137 93,29 216,58 295,108 36,29 29,36 79,58 -21,-65 -7,-15 7,-36 771,-22 1354,-483 1628,-1044 352,-713 144,-1555 -281,-2066 -396,-490 -1030,-864 -1894,-742 -554,79 -1108,497 -1346,1008l-72 180c-22,43 0,36 -43,36zm7307 4946l1721 0 0 -1267c-43,-36 -94,-94 -137,-130 -813,-684 -1994,15 -1735,1044 43,159 101,231 151,353zm-21066 0l1059 0c-29,-65 -58,-108 -87,-187 -223,-663 396,-1095 483,-1260 -36,-79 -123,-223 -166,-302 -43,-87 -108,-209 -137,-317 -64,-267 22,-526 137,-727 108,-195 295,-332 432,-461 94,-87 396,-346 504,-403 -7,-44 -29,-123 -57,-152l7 65c-259,-115 -461,-230 -799,-266 -900,-94 -1700,295 -2132,1037 -273,468 -367,1173 -158,1756 79,238 223,526 367,699 382,453 396,367 547,518zm-2613 -15241l0 1792c209,137 245,238 576,331 742,216 1526,-302 1526,-1130 0,-547 -345,-957 -698,-1145 -418,-223 -871,-201 -1267,51 -43,29 -94,79 -137,101zm3600 -7358c-699,93 -1131,712 -994,1375 137,648 735,1080 1383,1008 604,-80 1108,-655 964,-1375 -108,-555 -662,-1095 -1353,-1008z"/>
  <g id="_452641856">
   <path class="fil2" d="M17142 13182c-72,58 -259,130 -374,159 -303,86 -583,101 -871,-58 -130,-72 -188,-151 -281,-230 -295,-267 -655,-843 -648,-1433 0,-108 -15,-151 86,-173 274,-65 447,-36 720,-14 295,14 612,101 850,187 72,22 122,43 187,79 101,51 72,51 101,151 43,144 72,267 101,418 14,86 129,828 129,914zm-3607 -2923c115,-28 223,51 245,152 36,122 -50,230 -144,252 -281,79 -410,-317 -101,-404zm382 -10259l-605 0 -137 626c-137,728 -194,1318 -209,2081 -7,698 -14,2333 58,2966 29,223 36,468 65,699 29,208 79,648 86,864 7,122 22,122 29,158 0,29 -14,36 -7,173 7,65 7,122 14,180 7,115 22,237 36,345 7,79 29,288 22,353 -7,50 -58,230 -79,295 -130,396 -317,1109 -404,1512 -43,195 -86,425 -136,619 -65,288 -130,691 -195,958 -21,108 22,194 65,288 151,360 353,655 605,921 482,504 1152,958 1893,1152 195,51 418,116 641,123 338,14 382,50 641,-94 180,-93 331,-165 511,-259 166,-86 310,-180 482,-274 166,-93 828,-496 828,-691 0,-144 -259,-633 -338,-806 -151,-310 -122,-209 -43,-339 21,-21 36,-57 57,-86 166,-223 439,-605 447,-893 0,-180 -8,-345 -15,-518 -21,-583 -158,-1303 -374,-1778 -115,-260 -187,-519 -324,-756 -115,-202 -281,-475 -418,-648 -208,-259 -244,-223 -280,-267 -44,-43 0,-28 -137,-129 -43,-36 -101,-79 -151,-115 -94,-65 -339,-216 -432,-245 -51,-15 -36,-22 -80,-43 -28,-15 -158,-80 -194,-94 -7,94 -173,562 -209,677 -29,86 -216,561 -302,576 -101,0 -259,-187 -324,-259 -79,-94 -36,-51 -79,-72 -58,-44 7,-8 -51,-65 0,-7 -7,-15 -14,-15 -51,-57 -72,-108 -115,-172 -36,-72 -58,-123 -94,-195 -29,-57 -43,-36 -65,-93 -14,-22 -21,-80 -29,-116 -28,-129 -93,-288 -136,-424 -202,-620 -324,-1232 -447,-1887 -208,-1123 -316,-2059 -187,-3203 36,-339 108,-699 130,-1030z"/>
   <path class="fil3" d="M17510 12158c0,0 483,740 489,843 4,61 -60,192 -112,287 -76,62 -163,125 -247,182l0 0 -8 5 -1 1 -7 5 -8 5 -4 2 -4 3c-10,7 -21,14 -31,21l-1 1 -7 4 -20 13 -3 2 -6 4 -1 1 -15 9 -2 1 -5 4 -4 2 -4 3 -14 9 -7 4 0 0 -8 5 -1 1 -6 3 -18 12 -2 1 -6 4 -1 0 -7 4 0 1 -6 4 -2 1 -5 3 -3 1 -3 3 -4 2 -3 1 -4 3 -2 1 -6 4 0 0 -6 4 -1 0 -5 3 -2 1 -4 3 -3 2 -3 1 -4 3 -1 1 -5 2 -1 1 -5 3 -1 0 -5 3 -1 1 -4 2 -2 2 -3 2 -3 1c-19,11 -35,21 -49,28 -172,94 -316,188 -482,274 -180,94 -331,166 -511,259 -259,144 -303,108 -641,94 -223,-7 -446,-72 -641,-123 -741,-194 -1411,-648 -1893,-1152 -252,-266 -454,-561 -605,-921 -43,-94 -86,-180 -65,-288 65,-267 130,-670 195,-958 50,-194 93,-424 136,-619 87,-403 274,-1116 404,-1512 21,-65 72,-245 79,-295 0,0 21,108 21,177 0,70 -685,3149 -658,3271 26,123 668,1389 1726,1846 1058,456 1607,489 1726,423 117,-65 1325,-603 1501,-794l11 -13c0,0 -179,-1141 -86,-1197zm-1085 -604c70,21 137,44 199,66 72,22 122,43 187,79 31,16 50,26 62,37l802 206 0 0c5,-22 30,-35 65,-92 21,-21 36,-57 57,-86l1 -1c69,-223 211,-609 195,-664 -24,-76 -265,-152 -741,-241 -477,-89 -1178,-175 -1178,-175 758,195 1214,400 1214,400 0,0 113,410 -73,532 -176,117 -738,-45 -790,-61z"/>
   <path class="fil3" d="M15362 7508l0 0c0,0 745,-433 1162,-456 264,-15 416,-4 493,5 -125,-135 -155,-117 -184,-153 -44,-43 0,-28 -137,-129 -43,-36 -101,-79 -151,-115 -94,-65 -339,-216 -432,-245 -51,-15 -36,-22 -80,-43 -28,-15 -158,-80 -194,-94 -7,94 -173,562 -209,677 -25,76 -174,454 -268,553z"/>
   <path class="fil4" d="M9079 22758c-29,50 -569,518 -620,525 -21,36 -28,36 -64,65 -260,187 -936,490 -1203,540 216,-605 94,-410 368,-482 64,-22 122,-43 187,-65 439,-158 1144,-655 1497,-986l187 -180 332 -396c266,-303 756,-987 856,-1318l526 497c-14,29 -238,165 -281,194 -108,87 -173,137 -266,216l-511 454c-80,79 -915,885 -1008,936zm5738 -2261c72,43 115,101 309,195 101,43 231,115 346,158 151,50 237,79 353,151 108,65 244,151 288,216 -87,-7 -735,-130 -836,-166 -201,-72 -151,-43 -280,-223 -58,-72 -166,-223 -180,-331zm-5429 1613c-14,50 -72,101 -115,144 -36,29 -108,101 -144,115 -72,130 -619,482 -792,598 -259,165 -612,360 -965,417l65 -374c58,-29 130,-43 195,-65 64,-14 129,-43 194,-65 367,-151 389,-194 698,-425 360,-273 569,-511 814,-885 72,-123 151,-231 216,-360l353 -778c28,-136 122,-374 180,-626 57,-238 79,-382 93,-619 7,-43 7,-51 29,-79 7,309 36,669 144,921 79,180 86,195 22,418 -144,511 -418,972 -728,1375l-259 288zm6026 -1786c58,-7 288,101 353,130 115,50 230,130 310,202 129,108 331,403 338,647 -194,-57 -173,-28 -252,-115 -43,-57 -187,-158 -202,-180 -115,-43 -165,-108 -424,-208 -144,-51 -310,-130 -440,-195 -115,-57 -309,-187 -345,-288 -51,-122 -101,-396 -101,-547 22,7 202,209 346,310l302 180c36,21 86,28 115,64zm-446 -777c57,50 79,101 201,223 87,79 130,115 238,194 187,123 382,216 554,317 209,123 360,187 483,396 86,130 180,518 194,684 -173,-22 -115,-50 -209,-288 -93,-245 -230,-425 -446,-569 -288,-187 -792,-316 -886,-446 -129,-50 -360,-288 -424,-374 -65,-94 -44,-202 -58,-339 -7,-129 -7,-266 -14,-396 28,15 7,-7 28,29 8,7 15,29 22,43l115 231c58,93 159,208 202,295zm-4305 -1541c36,43 100,454 115,518 194,807 525,1440 1044,2060 57,72 93,115 144,165 136,151 108,158 309,331 43,36 137,108 166,159 -274,-8 -706,-209 -864,-396 -231,-274 -324,-346 -526,-720 -331,-627 -410,-1390 -388,-2117zm921 1181c29,7 22,7 36,36l115 180c101,144 483,612 504,677 22,14 7,7 36,36 245,295 583,1036 591,1367 -116,-151 -144,-108 -303,-252 -29,-21 -29,-21 -50,-36l-51 -50c0,0 -7,0 -7,-7l-144 -115c-194,-187 -201,-202 -389,-425 -165,-194 -331,-396 -468,-619 -129,-187 -280,-475 -374,-720 -50,-151 -252,-706 -245,-843l-7 -21c-7,-15 -7,-7 -14,-29 0,-14 0,-36 -7,-50 -51,-317 -80,-432 -108,-792 -29,-353 14,-670 14,-1008 14,14 14,7 22,43l43 331c101,619 273,1130 511,1692 43,115 79,194 137,310 43,86 136,216 158,295zm792 -2354l194 324c65,122 130,252 159,396 29,201 21,295 0,496 -29,166 -29,339 -51,497 -43,-36 -43,-144 -50,-194l-72 -699c-22,-144 -43,-295 -72,-432 -29,-129 -86,-280 -108,-388zm5018 -656c0,44 -7,58 -29,94 -21,43 -28,58 -64,65 -36,43 -80,57 -130,72 -209,72 -288,36 -389,-173 -108,-216 -137,-338 -331,-461l86 -72 224 -309c252,-368 360,-432 698,-339 43,15 173,58 202,79 50,36 71,152 36,209 -36,123 -144,274 -224,353 -79,86 -64,65 -64,216 7,65 21,216 -15,266zm-6796 1707c-15,1137 72,2023 770,2836 310,367 353,317 691,511 -201,8 -461,-64 -619,-136 -122,-58 -137,-87 -209,-166 -151,-165 -309,-201 -576,-569 -115,-151 -208,-280 -280,-482 -209,-670 -65,-2117 7,-2844 7,-237 245,-1821 309,-1944 8,108 -7,223 -14,339 0,122 14,252 7,367 -14,223 -29,461 -36,691 0,108 -21,216 -29,324l-21 1073zm1800 -706c57,115 158,1073 165,1267 0,0 -7,-7 -7,-7l-50 -86c-101,-231 -202,-476 -281,-713 -43,-144 -238,-792 -216,-922 -15,-14 -7,0 -15,-28l-57 -267c-72,-439 -151,-1173 -159,-1613 -7,-230 -43,-453 -43,-676 115,-65 159,-173 202,-216 50,93 14,317 7,425 -14,223 7,662 50,878 29,165 51,230 58,410 7,159 7,295 29,447 36,302 281,828 317,1101zm-339 -3996c29,-36 108,-72 159,-115 57,-50 86,-101 122,-158 151,-267 86,-295 144,-411 14,166 22,396 -43,540 -51,108 -245,267 -382,144zm-57 -79c-36,-65 -72,-194 -80,-288 303,79 360,-79 468,-281 0,216 -194,540 -388,569zm5925 411c65,57 353,655 345,734 15,14 22,29 22,65 -7,29 -14,36 -29,50 -151,137 -792,274 -820,317 -15,14 -8,29 -8,57 8,22 8,58 15,87l21 158c-309,-79 -403,-79 -662,238 -94,115 -295,453 -396,497 -50,21 -50,7 -79,43 29,43 36,21 86,50 72,43 173,166 216,245 72,144 108,288 195,389l-209 7 14 43c346,72 303,187 209,468 -36,115 -72,195 -122,281 -58,108 -87,173 -224,202 -288,136 -1036,0 -1332,-72 -108,-22 -201,-44 -295,-72 -122,-44 -770,-274 -799,-332 -86,-7 -29,-7 -50,8 93,136 223,180 389,288 626,403 223,388 151,791 -58,360 -8,1599 43,1923 115,720 324,813 381,950 -136,-29 -316,-129 -424,-187 -65,-36 -331,-187 -375,-252 -129,-29 -576,-454 -648,-533 -309,-331 -511,-633 -727,-1037 -122,-223 -86,-216 -65,-482 29,-288 108,-490 80,-813 -8,-80 -51,-195 -51,-252l-180 -346c-65,-115 -137,-216 -201,-331 -94,-159 -281,-547 -252,-792 100,-22 309,180 374,230 72,58 274,216 367,238 29,-36 15,-7 15,-51 -51,-21 -396,-324 -468,-396 -116,-129 -281,-345 -332,-561 -21,-123 -57,-231 -79,-360 -29,-238 -50,-605 -14,-842 14,-108 36,-303 -72,-353 -58,21 -87,86 -130,144 -50,57 -79,79 -151,129 -166,123 -288,-57 -367,-129 -180,-166 -418,-295 -612,-511 -497,-569 -454,-620 -331,-1203 72,-374 36,-331 281,-569 172,-165 439,-100 698,-72 165,15 237,130 309,267 152,288 159,597 216,914 15,79 29,151 44,231 43,144 36,144 108,187 64,29 108,72 216,65 72,-8 158,-58 194,-94 94,-94 130,-281 130,-446l-22 -368c65,65 173,526 965,1152 626,490 1627,922 2491,922 158,0 115,7 216,-50 122,-58 230,-123 353,-188 302,-151 367,-165 691,-360 108,-64 230,-122 324,-194 65,-43 259,-194 324,-216l43 94zm-6048 -958c411,86 425,-216 519,-302 -15,252 -159,597 -411,525 -108,-29 -93,-108 -108,-223zm-36 -295c72,36 36,50 144,93 231,101 317,-93 375,-223l21 -43c-21,137 -144,338 -223,389 -65,43 -166,72 -245,29 -65,-29 -72,-152 -72,-245zm519 -324c14,101 -87,273 -137,331 -101,108 -288,43 -331,-50l-44 -36c-50,-58 -50,-87 -72,-159 -28,-79 -72,-144 -93,-209 151,44 245,101 425,29 57,-21 115,-65 158,-93 58,-51 94,-108 130,-144 -8,129 -51,194 -36,331zm-821 -317c331,-29 417,-36 633,-209 80,-57 137,-129 202,-216 94,-129 122,-223 158,-273 -7,230 -122,583 -288,741 -244,245 -597,130 -705,-43zm-3211 -122c21,-94 115,-260 158,-331 115,-195 130,-209 281,-224l-331 403c-36,51 -65,108 -108,152zm1533 -137c-64,129 -129,245 -201,367 -72,122 -123,266 -187,389 -116,209 -332,489 -548,605 -7,36 -352,309 -388,338 -72,58 -368,302 -411,331 29,-65 79,-122 123,-180 388,-547 813,-1346 1216,-1800 224,-252 360,-388 591,-619 65,-65 108,-72 223,-72 -72,130 -331,411 -418,641zm785 -511c-79,165 -446,669 -554,792 -123,129 -526,568 -684,676 43,-79 101,-144 144,-237 65,-130 345,-670 410,-763 36,-87 353,-591 454,-605 79,-14 252,-22 338,-22l-108 159zm310 655c65,-130 648,-432 806,-518 202,-108 562,-274 742,-411 43,-29 43,-50 115,-43 -29,130 -144,353 -202,475 -72,144 -209,295 -317,374 -360,274 -763,144 -1144,123zm1576 -1030c-144,36 -453,44 -612,58 -216,14 -417,36 -633,50l-454 36c-43,0 -100,15 -165,15l-461 36c-108,-7 -65,7 -151,21 -195,36 -403,44 -598,80l-1728 302 -21 -173c158,-50 928,-230 1116,-259 676,-122 1159,-166 1828,-223 216,-15 425,-29 648,-43 209,-15 418,-36 627,-58 216,-22 432,-29 640,-43 0,65 -7,151 -36,201zm324 -1965c-21,57 -540,605 -619,641 -14,14 0,7 -14,21 -101,123 -511,396 -598,569l216 -187c36,-29 65,-51 101,-87l526 -424c122,-116 172,-144 288,-303l388 -475c29,-36 15,-29 44,-36 14,108 21,108 -36,187 -216,331 -324,483 -605,771 -72,72 -288,230 -375,309 -172,144 -640,562 -712,648 43,-7 28,-29 93,-50 15,-22 173,-144 202,-159 36,-64 302,-266 367,-316 252,-209 497,-368 713,-634l295 -382 -259 879c-29,79 -461,446 -634,489 -36,22 -158,36 -173,94 108,58 360,-86 440,-137 57,-36 129,-93 172,-129 65,-51 101,-123 152,-159l-137 569c-151,14 -339,7 -490,22 -165,14 -324,28 -482,43 -72,7 -159,21 -223,7 -51,29 -454,43 -497,43 94,-194 770,-885 957,-1058l245 -252c51,-43 51,-58 94,-72l324 -339c21,-50 36,-43 72,-86l468 -576c36,194 -65,302 -195,454l-108 115zm-2051 1829l-339 21c7,-281 231,-929 339,-1166 158,-353 338,-663 532,-972 101,-166 195,-288 303,-439 352,-461 489,-598 914,-965 43,-36 158,-137 209,-158 36,-51 201,-173 259,-202 29,180 43,389 58,576 28,346 79,346 -58,518 -94,123 -180,231 -288,332 -58,57 -94,115 -151,165 -180,187 -259,281 -468,475 -202,180 -763,749 -871,987 43,-36 64,-80 100,-137 65,-101 267,-288 353,-367 79,-65 187,-180 245,-238 94,-72 158,-151 252,-230 173,-152 353,-360 482,-490l418 -489c22,-15 7,-8 36,-22 7,338 72,266 -43,403 -29,29 -36,51 -72,86 -101,123 -195,231 -295,346 -101,115 -209,230 -310,338 -389,418 -871,814 -1267,1311 -209,266 -173,309 -338,317zm1994 -3809l-454 367c-223,187 -345,360 -417,418l-267 324c-604,748 -1152,1749 -1267,2728l-281 15c-14,-216 58,-778 44,-799 -51,7 -51,14 -65,64 -29,87 -43,202 -43,296 -8,172 0,288 0,453l-166 22 -259 29c21,-346 57,-634 151,-936 50,-188 209,-612 295,-771 51,-187 288,-511 389,-662 180,-259 266,-346 482,-562 166,-172 360,-338 569,-475 122,-72 569,-331 684,-360l-288 245c-94,79 -439,425 -533,540 -252,302 -460,547 -655,943 -79,173 -302,554 -317,742 15,-15 130,-288 159,-339 65,-115 122,-216 180,-331 122,-238 245,-418 389,-619 136,-180 763,-929 986,-1030 14,-43 245,-194 309,-237 58,-43 101,-65 173,-108 58,-29 108,-87 166,-94 50,-57 158,-93 245,-115l7 122c-36,29 -173,108 -216,130zm-2563 281c-36,50 -43,43 -87,79 -108,94 -432,446 -504,547 -93,108 -165,231 -237,360 -36,72 -180,360 -137,432l58 -50c0,-159 352,-655 432,-742 417,-482 712,-734 1310,-1029 108,-51 741,-324 842,-317l58 -36c317,-87 684,-159 1001,-223l28 396c-223,43 -460,259 -734,360 -605,230 -1209,640 -1613,1123l-244 302 -36 72c-260,374 -353,569 -533,1008 -123,317 -209,634 -252,979 -15,130 -7,274 -22,389l-345 36c-72,-432 -80,-886 -22,-1339 0,-65 7,-130 -29,-159 -36,58 -79,648 -79,756 0,137 -7,281 7,418 15,122 43,223 65,346 -144,14 -302,43 -439,72 -108,21 -339,79 -432,79 -22,-144 -43,-281 -43,-432 -8,-101 0,-367 50,-432 -14,-101 58,-367 79,-468 36,-159 65,-303 87,-468l7 -79c-36,7 -22,-44 -43,93 -36,245 -116,511 -159,749 -151,720 -43,569 -72,929 7,-166 -604,-1109 454,-2506 230,-302 540,-576 821,-828 144,-136 777,-633 936,-712 -22,-15 -29,-15 -80,14 -21,14 -43,29 -64,36 -188,115 -209,130 -389,266 -454,346 -994,778 -1325,1239 -230,309 -454,698 -547,1166 -58,266 -58,526 -14,792 21,101 158,605 194,662 -43,22 -123,44 -187,44 -58,-58 -144,-195 -187,-296 -224,-482 -87,-784 -87,-1231 -57,15 -43,22 -50,94 -7,36 -7,72 -15,108 -64,410 -93,648 80,1051 86,194 151,216 194,302l-137 29c-21,-43 -72,-86 -108,-129 -65,-80 -259,-360 -281,-440 -93,-86 -129,-424 -129,-583 7,-518 309,-1217 569,-1605 187,-281 424,-605 640,-799 238,-216 490,-425 763,-598 36,-22 22,-22 58,-29 22,-29 14,-21 50,-43l159 -94c165,-100 525,-295 684,-331 -15,29 -432,346 -461,367 -302,238 -547,526 -821,800l-417 403 7 21c50,-14 338,-266 389,-316 129,-116 252,-224 374,-346 468,-482 979,-943 1634,-1181 339,-122 850,-187 1260,-144 -180,51 -309,72 -475,144 -72,29 -151,58 -223,79 -43,15 -202,58 -216,87 129,50 1001,-396 1620,-267 -245,0 -1195,281 -1455,375 -223,86 -439,180 -640,288 -101,50 -195,108 -288,165 -43,36 -238,188 -252,195zm-5457 14780c28,29 50,108 57,152 -108,57 -410,316 -504,403 -137,129 -324,266 -432,461 -115,201 -201,460 -137,727 29,108 94,230 137,317 43,79 130,223 166,302 -87,165 -706,597 -483,1260 29,79 58,122 87,187l50 0 -79 -230c-65,-252 -22,-490 94,-684 79,-123 259,-375 367,-468 29,21 86,115 93,151l72 86c-108,195 -158,238 -208,519 -51,237 -72,439 43,626l65 0c-94,-230 -116,-252 -58,-583 22,-101 43,-187 79,-267l87 -180c28,-50 7,-28 43,-50 223,302 331,497 597,814 43,50 173,208 202,266l43 0c-22,-50 -79,-94 -101,-158 -57,-137 -237,-339 -331,-468 -137,-202 -223,-346 -381,-548 -29,-36 -36,-50 -58,-93 -72,-29 -302,-526 -338,-598 -58,-115 -51,-57 -94,-223 -50,-187 -14,-381 58,-540 79,-187 136,-245 259,-367 389,-382 684,-540 1036,-871 51,-51 101,-108 152,-173l122 -187c22,-94 79,-209 108,-317 29,-108 50,-223 72,-338 14,-108 65,-655 108,-699 -14,-108 72,-504 94,-633 64,-389 172,-763 324,-1123 50,-116 172,-396 237,-490 0,-57 7,-29 -14,-50 -58,29 -94,122 -130,187l-115 209c-7,36 -158,396 -187,482 -51,137 -130,382 -144,526 -108,496 -166,1000 -288,1497 -58,259 -144,418 -267,619 -79,137 -295,454 -432,468l8 -57c-22,-15 -8,0 -22,-15l-115 -396c-36,-165 -65,-324 -79,-496 -15,-260 -72,-375 -15,-735 29,-201 123,-417 202,-576 173,-345 353,-525 547,-828 79,-115 43,-101 108,-93 7,-317 -36,-720 -72,-1044 -29,-310 -72,-727 -43,-1051 29,-375 29,-605 158,-936 281,-699 756,-922 1311,-1476 93,-94 180,-173 259,-295 173,-260 259,-440 353,-764 57,-194 201,-756 122,-950 -130,-50 -173,108 -223,194 -36,58 -130,260 -101,324 72,0 22,0 108,-208 36,-80 79,-166 158,-180 58,151 -79,633 -122,784 -108,368 -115,353 -288,656 -14,-159 -14,-353 -14,-519l14 -533c-29,-216 187,-583 281,-727 101,-137 245,-288 367,-396 65,-72 50,-64 180,-86 115,-36 468,-122 597,-122 -79,129 -158,237 -230,403 -58,144 -101,345 -173,475 -79,151 -129,273 -187,453l-151 497c50,-36 72,-151 108,-209 43,-165 425,-1015 511,-1065 50,-166 310,-439 410,-547 94,-101 166,-94 360,-123 130,-21 296,-57 425,-64 -57,64 -137,115 -201,172 -65,58 -123,144 -188,180 -21,43 -144,166 -180,223 -64,80 -122,152 -187,238 -122,158 -216,317 -331,482 -144,274 -590,1008 -777,1253 -58,72 -288,324 -310,367 79,-28 144,-108 202,-172l187 -195c259,-309 799,-1325 900,-1404 7,-36 -8,0 14,-43 58,-94 454,-605 497,-634 21,-50 115,-136 151,-172 238,-231 288,-346 612,-346 -29,51 -144,144 -194,202 -72,72 -130,137 -195,209 -173,172 -194,201 -331,374l-58 57 -21 44c-166,252 -360,504 -504,770 -36,72 -79,130 -130,202 -43,72 -86,136 -129,208l-274 404c-36,64 -122,165 -165,223 -65,72 -130,158 -188,223 -50,65 -136,144 -208,202 -303,273 -713,705 -965,1051 -209,266 -447,648 -569,1044 -79,273 -209,1188 -58,1425 22,-29 -7,-101 -14,-158 -22,-346 79,-1051 180,-1332 266,-735 922,-1476 1476,-1958 137,-123 302,-288 453,-411 87,-65 411,-367 476,-381 21,-36 792,-677 849,-720 151,-137 274,-252 396,-375 94,-93 245,-252 331,-360 22,-36 22,-29 51,-50l324 -475c101,-151 216,-331 309,-490 130,-14 432,-57 547,-36l1044 -101c-7,8 -7,8 -7,8 0,7 -7,7 -7,7l-670 353c-309,158 -568,287 -806,503 -93,80 -21,65 -165,101 -152,36 -231,151 -310,231 -130,129 -115,144 -158,360 -29,151 -58,288 -87,446 -7,43 -21,194 -29,223l-324 475c-295,396 -662,749 -1015,1095l-576 475c130,79 1174,-950 1303,-1094 108,-123 353,-411 440,-540l144 -224c7,-14 14,-28 21,-43 0,-7 7,-14 7,-14 15,-22 8,-15 22,-22 29,29 65,144 137,252 86,123 245,310 345,418 245,266 238,43 159,489l-15 80c-14,21 -7,7 -21,21l-303 1469c-79,403 -194,1145 -223,1548 -29,331 -65,662 -72,993 -14,331 -65,663 -93,994 -44,403 -159,929 -303,1296l-338 741c-166,324 -425,684 -677,936 -86,87 -180,173 -281,252 -101,72 -201,159 -302,231 -202,144 -526,259 -770,316 0,-194 14,-345 -8,-547 -21,-180 -57,-331 -36,-518 58,-425 389,-763 699,-986 482,-332 460,-180 972,-728 -22,72 -87,195 -123,267 -43,101 -79,187 -129,281 -238,475 -476,806 -850,1180 -165,159 -115,101 -201,166l108 -15c14,-14 129,-100 158,-122 108,-94 353,-360 432,-468 173,-238 302,-461 446,-749 281,-561 519,-1116 684,-1720 281,-1044 418,-1930 619,-2981 29,-166 58,-331 101,-490 36,-158 94,-338 115,-489l-7 -43c-65,21 -72,158 -93,216 -137,547 -252,1224 -360,1785 -144,706 -461,2318 -778,2909 -101,194 -425,504 -612,619 -122,79 -252,151 -382,230 -273,173 -626,468 -770,763 -36,80 -50,159 -86,231l-22 -65c0,-29 -7,-58 -7,-86 -7,-65 0,-137 0,-202 0,-115 22,-245 36,-360 22,-122 50,-194 94,-302 72,-144 144,-202 144,-267 -72,0 -44,8 -101,36 -22,101 -245,231 -252,958 0,252 101,799 129,1080 58,489 -108,1044 -338,1440 -36,65 -79,129 -108,201 -29,51 -72,159 -94,202 -14,86 -50,151 -64,252 -58,432 79,684 93,799l490 0c-15,-43 -22,-29 -43,-65 -116,-158 -159,-482 -159,-669 7,-288 115,-735 367,-821l511 -216c425,-194 749,-511 1095,-806 180,-159 338,-288 489,-461 144,-159 332,-303 490,-461 101,-101 446,-389 497,-454 151,15 266,87 381,144 65,36 116,58 180,94 65,36 130,58 173,108 94,-14 1483,936 1699,1109 425,338 583,403 1008,878 310,338 612,605 878,1022 130,209 159,281 260,447 36,57 72,101 86,151l43 0c-93,-353 -597,-1051 -856,-1303 -87,-79 -180,-180 -260,-274 -489,-568 -1152,-1029 -1785,-1454 -115,-79 -216,-151 -324,-223 -324,-202 -670,-418 -1030,-591l-381 -158c43,-43 453,-367 504,-389 122,51 201,159 460,223 598,159 792,-36 1116,260 224,201 8,770 425,943 216,93 461,21 612,72 159,50 202,273 267,425 79,194 158,252 338,345 813,403 1915,202 2570,864 396,396 288,310 569,799 43,72 86,144 130,209 43,65 93,173 165,194l-7 -57 -367 -641c-202,-338 -202,-302 -439,-569 -332,-360 -936,-525 -1440,-583l-843 -173c-115,-43 -237,-93 -352,-158 -468,-252 -188,-727 -396,-1123 -58,-108 -144,-187 -231,-274 -65,-65 -209,-201 -237,-288 -44,-14 7,-21 -58,-36 -14,108 310,418 360,468 173,173 202,375 194,663 -36,-22 -43,-51 -79,-80 -108,-100 -230,-86 -381,-86 -173,0 -418,-29 -476,-158 -57,-22 -79,-173 -79,-224 0,-100 -21,-201 -36,-302 -14,-194 -36,-324 -86,-526 -303,-1166 -979,-1461 -1447,-2483 -475,-1015 -699,-2095 -677,-3233 0,-202 14,-410 36,-605 14,-129 50,-482 86,-568 0,-44 87,-504 87,-512 57,29 115,72 165,116 79,64 94,50 115,165 36,180 51,317 65,504 22,367 29,756 29,1123 0,497 36,1123 130,1599 50,230 115,467 201,669 29,79 223,562 281,583 -14,-65 -50,-137 -50,-194 -15,-15 -8,0 -15,-22 -72,-115 -273,-799 -302,-900 -151,-640 -166,-1605 -166,-2289 0,-173 7,-396 29,-569 22,-194 43,-360 230,-396 65,1541 159,2923 828,4320 65,129 137,245 202,374 115,238 122,195 216,346 108,180 79,151 223,353 238,302 533,640 843,871 108,79 252,165 338,237 -79,-14 -230,-100 -310,-136 -360,-166 -777,-512 -1065,-778 -123,-130 -324,-353 -432,-497 -72,-86 -144,-259 -187,-266l-8 50c65,123 108,202 180,303 130,180 332,388 490,532 331,303 432,404 864,663l677 338 748 252c303,79 1448,223 1620,410 188,209 8,591 -28,828 -58,-28 -130,-122 -144,-158 -65,-36 -152,-158 -382,-266 -22,-8 -50,-22 -72,-29 -36,-15 -50,-15 -72,-43 -58,0 -252,-72 -346,-101 -129,-29 -252,-58 -360,-101 0,86 209,122 281,144 223,58 778,245 864,425 -129,-36 -180,-115 -533,-187 -194,-36 -417,-58 -604,-101 -296,-79 -821,-317 -800,-648 72,7 281,180 317,223 36,-22 7,7 15,-36 -44,-29 -245,-295 -353,-238 -144,94 72,382 245,512 619,446 1058,136 1843,648 36,21 93,64 115,86l403 216c187,101 382,187 583,259 375,130 562,101 598,648 0,65 7,123 14,187 7,65 29,130 29,180l43 65c43,86 79,101 137,158 -173,-14 -850,-395 -749,-806 108,-7 123,79 151,130l22 -65c-36,-43 -58,-86 -101,-108 -79,-50 -93,-7 -129,29 -51,367 223,554 417,698 223,173 353,173 569,252l194 94c72,7 317,165 353,201 101,123 115,274 72,461 -72,-274 -259,-360 -317,-461 -79,-29 -115,-108 -201,-115 14,79 237,274 281,598 14,57 7,230 14,252l346 -8c-36,-201 -72,8 -22,-388 14,-144 -14,-260 -86,-353 -123,-173 -332,-223 -548,-339 -208,-108 -374,-201 -403,-489 -14,-130 -7,-274 -36,-403 -14,-58 -36,-108 -57,-159 -29,-57 -80,-93 -87,-129 -50,-22 -43,-29 -79,-58 -79,-50 -202,-79 -295,-108 -137,-43 -245,-86 -374,-137 -166,-72 -562,-252 -684,-374 21,-187 108,-353 115,-569 7,-511 -303,-389 -339,-525 -57,-180 -72,-475 -194,-684 -50,-87 -115,-137 -151,-209 -43,-22 -87,-65 -144,-101 -51,-36 -115,-65 -159,-93 -352,-216 -597,-274 -921,-612 -137,-144 -569,-706 -547,-980 14,-151 14,-338 28,-496 58,-619 519,-569 965,-562 310,7 619,-7 922,-93 173,-44 187,-87 266,-238 58,-115 108,-223 151,-360l87 -295c7,-15 7,-29 14,-43l15 -51c28,-65 324,-7 417,-295 65,-194 -29,-382 51,-468 129,-130 323,-382 266,-590 -43,-130 -115,-108 -187,-159 -51,-36 -79,-209 -72,-288 122,-65 892,-173 835,-468 -51,-273 -396,-806 -418,-892 274,-245 382,-281 159,-749l-274 -562c-58,-108 -50,-86 22,-180 518,-777 547,-777 453,-1742 -43,-454 -129,-1001 -288,-1418 -50,-137 -115,-260 -165,-404 -51,-136 -101,-273 -166,-395l-317 -533c-72,-108 -43,-94 8,-202 288,-619 626,-1332 885,-1944 223,-518 403,-1108 590,-1684 166,-519 425,-1224 562,-1714 94,-367 144,-511 238,-893 64,-273 165,-655 194,-950l-43 0c-43,317 -144,698 -223,1015 -144,648 -353,1246 -562,1865 -194,561 -418,1296 -612,1829 -130,374 -562,1346 -741,1699 -72,144 -123,288 -180,424l-209 404c-7,-8 -166,-202 -173,-224l194 -331c65,-115 123,-230 180,-345 116,-231 216,-483 331,-728 94,-194 548,-1295 576,-1519 -43,22 -28,15 -57,87 -15,29 -29,57 -43,86 -29,65 -51,123 -72,195 -159,388 -274,719 -454,1115 -115,252 -554,1232 -713,1390l-151 -144c-14,-137 43,-382 65,-518 94,-548 137,-836 324,-1390 461,-1310 921,-2405 1569,-3614 281,-526 281,-547 641,-1066 -7,137 -57,324 -86,454 -36,209 -166,648 -223,871l-94 310c-29,79 -14,86 -14,86 0,0 0,7 7,7 50,-21 72,-129 101,-216 108,-324 266,-921 338,-1252 14,-87 36,-173 50,-260 29,-172 0,-108 87,-230l-87 0c-28,50 -86,108 -129,173l-360 533c-195,324 -655,1238 -807,1562 -194,417 -561,1253 -705,1670 -101,295 -216,569 -317,864 -223,605 -345,1260 -425,1951 -28,-7 -266,-187 -316,-223 -123,-72 -238,-122 -353,-194 -7,-51 108,-375 129,-461 87,-317 209,-576 310,-886 101,-288 209,-590 324,-871 65,-144 130,-266 194,-403 137,-266 238,-554 389,-806 130,-238 288,-540 425,-771 331,-532 561,-936 929,-1454 100,-137 453,-590 504,-684l-65 0c-58,101 -187,245 -259,346 -274,360 -490,662 -728,1058 -288,468 -597,979 -871,1505 -144,266 -244,525 -388,806 -130,266 -231,540 -353,821 -87,194 -209,612 -317,878 -94,223 -252,814 -302,893l-216 -87c7,-122 50,-237 57,-367 0,-151 87,-943 108,-1130 51,-497 101,-1001 144,-1498 72,-727 101,-2527 22,-3225l-58 0c7,338 36,677 36,1030 0,338 -14,712 0,1051 22,360 -108,1562 -144,1929 -72,627 -115,1267 -194,1894l-65 345c-7,43 0,72 -14,123 -44,201 -332,972 -447,1108l-288 -295c151,-79 310,-425 382,-633 216,-620 252,-1088 331,-1728 22,-159 29,-310 43,-468 7,-94 36,-382 15,-468l-15 -15c-29,22 -29,15 -36,94 0,36 0,79 -7,122 -7,72 -14,159 -22,231 -43,482 -100,864 -172,1346 -44,266 -123,583 -209,814 -36,115 -238,590 -367,626 -80,-65 -209,-317 -260,-432 -129,-310 -151,-1548 -151,-1908 -7,-569 15,-1433 65,-2001l29 -641 -43 237c-8,87 -15,159 -22,245 -43,504 -86,958 -108,1469 -14,346 -7,713 -7,1058 7,303 50,749 50,1001 -122,-281 -295,-1066 -360,-1389 -316,-1642 -432,-2290 -259,-3967 29,-260 72,-519 87,-778l-65 0c-22,331 -94,691 -130,1030 -129,1144 -21,2080 187,3203 123,655 245,1267 447,1887 43,136 108,295 136,424 8,36 15,94 29,116 22,57 36,36 65,93 36,72 58,123 94,195 43,64 64,115 115,172 7,0 14,8 14,15 58,57 -7,21 51,65 43,21 0,-22 79,72 65,72 223,259 324,259 86,-15 273,-490 302,-576 36,-115 202,-583 209,-677 36,14 166,79 194,94 44,21 29,28 80,43 93,29 338,180 432,245 50,36 108,79 151,115 137,101 93,86 137,129 36,44 72,8 280,267 137,173 303,446 418,648 137,237 209,496 324,756 216,475 353,1195 374,1778 7,173 15,338 15,518 -8,288 -281,670 -447,893 -21,29 -36,65 -57,86 -79,130 -108,29 43,339 79,173 338,662 338,806 0,195 -662,598 -828,691 -172,94 -316,188 -482,274 -180,94 -331,166 -511,259 -259,144 -303,108 -641,94 -223,-7 -446,-72 -641,-123 -741,-194 -1411,-648 -1893,-1152 -252,-266 -454,-561 -605,-921 -43,-94 -86,-180 -65,-288 65,-267 130,-670 195,-958 50,-194 93,-424 136,-619 87,-403 274,-1116 404,-1512 21,-65 72,-245 79,-295 7,-65 -15,-274 -22,-353 -14,-108 -29,-230 -36,-345 -7,-58 -7,-115 -14,-180 -7,-137 7,-144 7,-173 -7,-36 -22,-36 -29,-158 -7,-216 -57,-656 -86,-864 -29,-231 -36,-476 -65,-699 -72,-633 -65,-2268 -58,-2966 15,-763 72,-1353 209,-2081l137 -626 -50 0c-51,202 -116,396 -152,612 -144,770 -187,1296 -201,2102 -15,749 -22,1512 7,2261 7,237 43,511 43,741 -461,-57 -900,-64 -1375,-43 -597,29 -1634,454 -2124,749 -871,526 -1648,1238 -2044,2275 -130,338 -274,756 -209,1188 72,497 439,806 511,936 -36,36 -108,14 -50,245 14,57 21,36 28,86 -57,36 -230,223 -295,302 -461,569 -403,987 -381,1714 7,302 122,259 -260,619 -201,195 -417,382 -633,569 -223,194 -389,338 -555,655 -144,288 -237,554 -266,943 -50,785 72,1512 130,2268 -51,58 -72,86 -123,158l-360 497c-144,209 -295,504 -374,763 -94,332 -58,677 -7,1023 21,165 50,324 93,475 29,101 116,381 116,453z"/>
   <path class="fil5" d="M10648 12131c-57,43 -187,389 -180,497l7 101c22,-29 29,-43 58,-79 14,-22 29,-51 58,-72 64,0 144,79 172,115 51,57 65,122 80,209l7 21c43,87 -15,-79 7,22l14 115c0,43 8,122 15,151 7,65 57,209 50,259 -43,0 -108,-93 -144,-122 -122,-101 -331,-302 -360,-468 -14,-94 -43,-122 -29,-252 22,-216 252,-749 353,-814 43,-21 195,-43 252,-36 317,51 504,267 598,569 79,252 50,245 -44,461 -50,122 -136,360 58,389 130,29 115,29 187,108 43,50 115,137 65,194 -22,-43 -36,-93 -79,-108 -7,245 -123,360 -339,396 -115,0 -302,-93 -331,-187l144 -22c43,-7 72,-7 123,-28 79,-44 136,-80 172,-152 -50,-21 -43,-7 -79,-36 -36,-21 -288,-100 -345,-129 -151,-58 -151,-79 -137,-339 7,-151 43,-266 108,-381 86,-151 108,-144 223,-238 7,-65 -29,-108 -94,-115 -64,7 -208,108 -273,144 -79,43 -245,94 -245,-65 0,-21 -7,-86 -21,-108 -15,-43 0,-14 -15,-14 -14,0 22,-7 -14,0 -7,7 -22,7 -22,14zm2254 4190c64,72 50,51 136,94l339 194c50,22 50,8 50,29 -86,94 -489,-194 -576,43 -65,173 -86,504 -72,692 0,57 43,172 51,252 28,323 -51,525 -80,813 -21,266 -57,259 65,482 216,404 418,706 727,1037 72,79 519,504 648,533l22 0c-144,-749 -166,-965 -223,-1721 -43,-605 -7,-1123 -15,-1684 0,-51 -14,-144 44,-144 86,7 28,0 57,28 29,58 677,288 799,332 94,28 187,50 295,72 296,72 1044,208 1332,72l80 -101c115,-173 144,-461 93,-663 -21,-72 -93,-187 -50,-230l209 -7c-87,-101 -123,-245 -195,-389 -43,-79 -144,-202 -216,-245 -50,-29 -57,-7 -86,-50 29,-36 29,-22 79,-43 101,-44 302,-382 396,-497 259,-317 353,-317 662,-238l-21 -158c-7,-7 -7,-15 -7,-15 -8,-7 -8,-7 -8,-14l-21 -79c-15,-87 -51,-94 -101,-202l-22 -21c-21,-29 -7,0 -14,-43 -14,-65 0,43 0,-22l7 -101c0,-50 821,-14 986,-29l0 -50c8,-79 -280,-677 -345,-734l-36 -15c-94,108 -1145,720 -1274,778 -274,137 -497,280 -756,252 -303,-43 -576,-72 -872,-144 -237,-51 -907,-310 -1101,-447 -94,-72 -202,-129 -310,-201 -172,-101 -424,-310 -576,-447 -43,-43 -72,-86 -122,-136 -209,-216 -180,-238 -302,-396 -22,-36 0,-15 -36,-36 0,165 -36,352 -130,446 -36,36 -122,86 -194,94 -108,7 -152,-36 -216,-65 -72,-43 -65,-43 -108,-187 -15,-80 -29,-152 -44,-231 -57,-317 -64,-626 -216,-914 -72,-137 -144,-252 -309,-267 -259,-28 -526,-93 -698,72 -245,238 -209,195 -281,569 -123,583 -166,634 331,1203 194,216 432,345 612,511 79,72 201,252 367,129 72,-50 101,-72 151,-129 43,-58 72,-123 130,-144 108,50 86,245 72,353 -36,237 -15,604 14,842 22,129 58,237 79,360 51,216 216,432 332,561 72,72 417,375 468,396z"/>
   <path class="fil6" d="M8495 19986c44,-65 108,-115 166,-187 281,-346 727,-1138 886,-1548 7,144 -51,468 -87,612 -50,223 -93,324 -201,489 -159,238 -504,569 -764,634zm2887 -9338c87,22 123,-7 195,-7 -94,115 -209,194 -310,295 -295,274 -532,425 -885,626 -36,22 -58,36 -94,58 -36,22 -57,43 -86,29 -29,21 -29,14 -51,50 -86,108 -237,267 -331,360 -122,123 -245,238 -396,375 -57,43 -828,684 -849,720 64,-22 345,-166 388,-195l1008 -698c-36,108 -172,273 -237,367 -274,374 -663,778 -1001,1080 -137,122 -202,151 -338,245 -58,43 -116,86 -173,122 -216,137 -785,626 -950,828 -94,115 -166,209 -252,346 -152,223 -296,504 -396,784 -72,209 -483,1750 -454,1887l115 -209c36,-65 72,-158 130,-187 21,21 14,-7 14,50l79 -144c72,-101 202,-302 274,-374l-29 -15c22,-172 641,-1015 807,-1195 64,-65 100,-115 165,-173 58,-57 108,-93 180,-151 245,-201 886,-677 1109,-885 43,-44 115,-115 173,-159 93,-72 122,-136 158,-165l-14 50 331 -252c57,-43 302,-187 381,-194 -64,230 -187,497 -280,698 -238,497 -411,792 -735,1217 -410,547 -626,698 -1036,1152 -44,50 -72,86 -108,129 -80,80 -159,173 -231,260 -129,158 -309,395 -396,575 -50,108 -252,620 -230,742 29,-29 57,-158 72,-202 151,-475 403,-727 734,-1065 230,-230 338,-338 526,-518 187,-180 360,-324 525,-497 663,-677 1260,-1469 1447,-2441 36,-151 22,-173 80,-180 28,65 -51,411 -72,504 -36,159 -87,295 -137,439 -130,324 -252,511 -411,778 -72,122 -144,252 -216,374 -79,123 -144,231 -223,367 -144,238 -324,476 -482,684 -29,29 -51,44 -79,80l-411 612c-288,431 -604,1267 -597,1771 0,223 72,525 237,640 29,15 65,36 108,36 43,8 94,15 130,-14l-65 0c-252,-778 504,-1764 914,-2326l332 -503c36,-58 57,-137 115,-166 -22,245 -144,641 -216,857 -87,259 -187,532 -295,777 -116,252 -216,483 -346,720 -65,123 -130,223 -202,331l-223 310c43,0 15,-14 36,7 -43,94 -165,108 -266,65 -101,-43 -115,-115 -187,-166 0,29 0,15 -7,22 -332,-122 -526,-374 -605,-778 -115,-604 137,-979 165,-1152 -108,72 -352,677 -309,821 -87,-7 -65,-79 -65,-158 -43,50 -7,93 -29,151l-115 346c-180,453 -324,842 -562,1267 -345,604 -576,964 -648,1807 -208,-223 -50,-900 -7,-1203 29,-201 58,-403 72,-611 7,-87 36,-612 29,-656 -43,44 -94,591 -108,699 -22,115 -43,230 -72,338 -29,108 -86,223 -108,317 29,-15 7,-22 22,0 -51,122 -94,259 -144,396 -51,122 -116,245 -180,353 -116,208 -288,446 -447,619 -79,86 -165,201 -237,309 -324,497 -281,778 -195,1282l-14 0c22,43 29,57 58,93 158,202 244,346 381,548 94,129 274,331 331,468 22,64 79,108 101,158l166 0c-202,-504 -432,-799 -511,-1440 -8,-93 -51,-518 -65,-561 -72,57 -108,223 -123,338 -14,158 -7,252 36,396 -100,-22 -100,-158 -108,-259 0,-101 8,-223 29,-324 22,-87 58,-195 94,-267 21,-43 36,-79 57,-115 29,-43 44,-72 101,-65 36,51 0,260 0,339 0,288 58,669 130,936 115,410 388,892 424,1022l224 0c-108,-396 -209,-922 -260,-1346 -43,-411 8,-893 65,-1303 29,-144 7,-130 58,-144l0 100c50,29 65,65 101,108 36,44 64,72 93,116 396,540 252,1353 51,1943l-72 231c-22,50 -29,50 -44,57l58 238 554 0c-93,-518 -136,-1080 -43,-1591 137,-734 339,-763 187,-1476 -208,-1015 -115,-1289 238,-2181 43,-101 72,-209 108,-324 29,-87 72,-296 108,-317 72,93 -230,907 -281,1037 -65,158 -122,331 -151,518 -22,108 -29,209 -29,324l15 288c7,43 0,7 7,29 14,-65 7,-123 7,-180 29,-382 382,-1123 742,-1303 144,-80 468,-108 367,244 57,-28 29,-36 101,-36 0,65 -72,123 -144,267 -44,108 -72,180 -94,302 -14,115 -36,245 -36,360 0,65 -7,137 0,202 0,28 7,57 7,86l22 65c36,-72 50,-151 86,-231 144,-295 497,-590 770,-763 130,-79 260,-151 382,-230 187,-115 511,-425 612,-619 317,-591 634,-2203 778,-2909 108,-561 223,-1238 360,-1785 21,-58 28,-195 93,-216l7 43 29 -137c29,-130 58,-274 101,-381 36,-80 72,-152 108,-209 43,-65 86,-159 144,-180l-7 50c14,-14 7,0 21,-21l15 -80c79,-446 86,-223 -159,-489 -100,-108 -259,-295 -345,-418 -72,-108 -108,-223 -137,-252 -14,7 -7,0 -22,22 0,0 -7,7 -7,14 -7,15 -14,29 -21,43l-144 224c-87,129 -332,417 -440,540 -129,144 -1173,1173 -1303,1094l576 -475c353,-346 720,-699 1015,-1095l324 -475c8,-29 22,-180 29,-223 29,-158 58,-295 87,-446 43,-216 28,-231 158,-360 79,-80 158,-195 310,-231 144,-36 72,-21 165,-101 238,-216 497,-345 806,-503l670 -353c0,0 7,0 7,-7 0,0 0,0 7,-8l-1044 101z"/>
   <path class="fil7" d="M16134 0l-2152 0c-15,259 -58,518 -87,778 -173,1677 -57,2325 259,3967 65,323 238,1108 360,1389 0,-252 -43,-698 -50,-1001 0,-345 -7,-712 7,-1058 22,-511 65,-965 108,-1469 7,-86 14,-158 22,-245l43 -237 -29 641c-50,568 -72,1432 -65,2001 0,360 22,1598 151,1908 51,115 180,367 260,432 129,-36 331,-511 367,-626 86,-231 165,-548 209,-814 72,-482 129,-864 172,-1346 8,-72 15,-159 22,-231 7,-43 7,-86 7,-122 7,-79 7,-72 36,-94l15 15c21,86 -8,374 -15,468 -14,158 -21,309 -43,468 -79,640 -115,1108 -331,1728 -72,208 -231,554 -382,633l288 295c115,-136 403,-907 447,-1108 14,-51 7,-80 14,-123l65 -345c79,-627 122,-1267 194,-1894 36,-367 166,-1569 144,-1929 -14,-339 0,-713 0,-1051 0,-353 -29,-692 -36,-1030z"/>
   <path class="fil3" d="M15776 0l-1794 0c-15,259 -58,518 -87,778 -173,1677 -57,2325 259,3967 65,323 238,1108 360,1389 0,-252 -43,-698 -50,-1001 0,-345 -7,-712 7,-1058 22,-511 65,-965 108,-1469 7,-86 14,-158 22,-245l43 -237 -29 641c-50,568 -72,1432 -65,2001 0,360 22,1598 151,1908 51,115 180,367 260,432 129,-36 331,-511 367,-626 86,-231 165,-548 209,-814 72,-482 129,-864 172,-1346 8,-72 15,-159 22,-231 7,-43 7,-86 7,-122 7,-79 7,-72 36,-94 130,-1656 55,-3159 2,-3873z"/>
   <path class="fil8" d="M10871 14306c-36,86 -72,439 -86,568 -22,195 -36,403 -36,605 -22,1138 202,2218 677,3233 468,1022 1144,1317 1447,2483 50,202 72,332 86,526 15,101 36,202 36,302 0,51 22,202 79,224 130,21 195,21 260,-65 136,-173 172,-403 122,-619 -14,-58 -43,-108 0,-123 65,15 14,22 58,36 93,29 122,43 216,29 72,-194 -130,-461 -245,-598 -65,-64 -159,-143 -223,-223 -209,-259 -346,-338 -533,-576 -159,-208 -295,-316 -411,-482 -21,-29 -64,-72 -72,-101 -7,-57 0,-29 8,-43 72,58 129,202 237,281 22,14 29,21 43,36 173,144 540,605 749,777l317 281c252,209 252,259 432,475 187,223 310,511 504,720 173,202 511,375 792,418 173,29 360,43 533,72 86,14 165,36 244,65 72,28 137,64 209,93 547,159 785,303 1203,612 115,87 273,245 345,274 0,-29 -7,-58 -7,-94 0,-57 7,-65 29,-86 36,-36 50,-79 129,-29 43,22 65,65 101,108 36,43 50,108 72,158 29,80 259,324 310,382l14 -22c0,-50 -22,-115 -29,-180 -7,-64 -14,-122 -14,-187 -36,-547 -223,-518 -598,-648 -201,-72 -396,-158 -583,-259l-403 -216c-22,-22 -79,-65 -115,-86 -785,-512 -1224,-202 -1843,-648 -173,-130 -389,-418 -245,-512 108,-57 309,209 353,238l14 22c79,79 317,172 425,201l21 -43c108,43 231,72 360,101 94,29 288,101 346,101l65 21c-22,-36 -51,-65 -72,-101 -94,-129 -94,-100 -288,-208 -151,-80 -403,-152 -454,-209 29,-15 65,0 94,0l302 101c130,43 281,79 403,129 137,58 231,144 310,231 158,180 122,244 166,374 14,36 86,130 144,158 36,-237 216,-619 28,-828 -172,-187 -1317,-331 -1620,-410l-748 -252 -677 -338c-432,-259 -533,-360 -864,-663 -158,-144 -360,-352 -490,-532 -72,-101 -115,-180 -180,-303 -21,-29 -21,-65 -57,-115 -22,-36 -43,-58 -36,-101 72,7 223,238 353,303 -22,-80 -87,-166 -123,-252 -309,-677 -381,-886 -597,-1599 -29,-93 -51,-194 -80,-273 -57,129 15,820 51,1029 14,87 65,252 65,310 0,57 36,129 50,194 -58,-21 -252,-504 -281,-583 -86,-202 -151,-439 -201,-669 -94,-476 -130,-1102 -130,-1599 -14,-14 -7,-7 -22,-21 -223,-296 -381,-1073 -424,-1397 21,43 0,7 -15,22z"/>
   <path class="fil9" d="M7351 25400l900 0c50,-252 216,-475 388,-634 65,-57 108,-100 173,-151 612,-511 1455,-425 1541,-482 58,-43 36,-202 58,-288 108,-410 576,-562 993,-677l7 -72c-216,-43 -331,-86 -511,-158 -151,-58 -345,-137 -439,-223 -389,-339 655,-317 828,-281 7,-36 -15,-7 14,-36 267,21 677,360 807,482 136,123 468,519 583,684 180,231 302,598 417,871 58,151 116,303 166,461 43,144 122,367 144,504l850 0c-245,-605 -533,-1102 -936,-1584 -130,-158 -267,-309 -404,-446 -122,-130 -280,-303 -439,-403 -209,-144 -561,-375 -785,-483 -158,-79 -115,-36 -259,-173 -86,-72 -374,-381 -180,-547 43,22 7,15 65,29 -43,-50 -108,-72 -173,-108 -64,-36 -115,-58 -180,-94 -115,-57 -230,-129 -381,-144 -51,65 -396,353 -497,454 -158,158 -346,302 -490,461 -151,173 -309,302 -489,461 -346,295 -670,612 -1095,806l-511 216c-252,86 -360,533 -367,821 0,187 43,511 159,669 21,36 28,22 43,65z"/>
   <path class="fil5" d="M8251 25400l4946 0c-43,-317 -123,-713 -202,-1015 -151,-533 -583,-1109 -957,-1490 -137,-137 -548,-440 -749,-461 -173,-36 -1217,-58 -828,281 94,86 288,165 439,223 180,72 295,115 511,158l-7 72c-417,115 -885,267 -993,677 -22,86 0,245 -58,288 -86,57 -929,-29 -1541,482 -65,51 -108,94 -173,151 -172,159 -338,382 -388,634z"/>
   <path class="fil10" d="M6242 19561c-14,-122 94,-396 137,-525 50,-166 115,-332 173,-497 309,-900 331,-1102 943,-1750 108,-115 576,-561 727,-626 -36,108 -497,511 -648,698 -252,332 -554,850 -734,1267 -152,353 -332,828 -483,1196 -14,50 -29,72 -43,122 -43,101 -22,86 -72,115zm3089 -5198c-22,15 -44,58 -65,79l-245 259c-94,101 -245,209 -353,303 -115,101 -201,209 -324,338 -245,267 -712,699 -993,972 -324,310 -468,641 -569,742 -72,72 -202,273 -274,374l-79 144c-65,94 -187,374 -237,490 -152,360 -260,734 -324,1123 -22,129 -108,525 -94,633 7,44 -22,569 -29,656 -14,208 -43,410 -72,611 -43,303 -201,980 7,1203 72,-843 303,-1203 648,-1807 238,-425 382,-814 562,-1267l115 -346c22,-58 -14,-101 29,-151l-7 -29c-22,-122 180,-634 230,-742 87,-180 267,-417 396,-575 72,-87 151,-180 231,-260 36,-43 64,-79 108,-129 410,-454 626,-605 1036,-1152 324,-425 497,-720 735,-1217 93,-201 216,-468 280,-698 -79,7 -324,151 -381,194l-331 252z"/>
   <path class="fil6" d="M13514 21476c28,87 172,223 237,288 87,87 173,166 231,274 208,396 -72,871 396,1123 115,65 237,115 352,158l843 173c504,58 1108,223 1440,583 237,267 237,231 439,569l367 641c21,57 -7,36 36,65 101,28 266,14 381,14 -158,-792 -504,-1440 -1108,-1965l-115 -108c129,28 504,295 619,381 93,72 165,137 266,231l259 237c43,43 72,72 115,115 288,288 584,699 656,1109l-195 0c43,14 447,22 533,22 -7,-22 0,-195 -14,-252 -44,-324 -267,-519 -281,-598 86,7 122,86 201,115 -36,-79 -86,-144 -129,-194l21 -7 -194 -94c-216,-79 -346,-79 -569,-252 -194,-144 -468,-331 -417,-698 -22,21 -29,29 -29,86 0,36 7,65 7,94 -72,-29 -230,-187 -345,-274 -418,-309 -656,-453 -1203,-612 -72,-29 -137,-65 -209,-93 -79,-29 -158,-51 -244,-65 -173,-29 -360,-43 -533,-72 -281,-43 -619,-216 -792,-418 -194,-209 -317,-497 -504,-720 -180,-216 -180,-266 -432,-475l-317 -281c-209,-172 -576,-633 -749,-777 -14,-15 -21,-22 -43,-36 -108,-79 -165,-223 -237,-281 -8,14 -15,-14 -8,43 8,29 51,72 72,101 116,166 252,274 411,482 187,238 324,317 533,576 64,80 158,159 223,223 115,137 317,404 245,598 -94,14 -123,0 -216,-29z"/>
   <path class="fil7" d="M19799 0l-144 0c-87,122 -58,58 -87,230 -14,87 -36,173 -50,260 -72,331 -230,928 -338,1252 -29,87 -51,195 -101,216 -7,0 -7,-7 -7,-7 0,0 -15,-7 14,-86l94 -310c57,-223 187,-662 223,-871 29,-130 79,-317 86,-454 -360,519 -360,540 -641,1066 -648,1209 -1108,2304 -1569,3614 -187,554 -230,842 -324,1390 -22,136 -79,381 -65,518l151 144c159,-158 598,-1138 713,-1390 180,-396 295,-727 454,-1115 21,-72 43,-130 72,-195 14,-29 28,-57 43,-86 29,-72 14,-65 57,-87 -28,224 -482,1325 -576,1519 -115,245 -215,497 -331,728 -57,115 -115,230 -180,345l-194 331c7,22 166,216 173,224l209 -404c57,-136 108,-280 180,-424 179,-353 611,-1325 741,-1699 194,-533 418,-1268 612,-1829 209,-619 418,-1217 562,-1865 79,-317 180,-698 223,-1015z"/>
   <path class="fil3" d="M19079 1958c-7,0 -7,-7 -7,-7 0,0 -15,-7 14,-86l94 -310c57,-223 187,-662 223,-871 29,-130 79,-317 86,-454 -360,519 -360,540 -641,1066 -648,1209 -1108,2304 -1569,3614 -187,554 -230,842 -324,1390 -22,136 -79,381 -65,518l151 144c159,-158 598,-1138 713,-1390 180,-396 295,-727 454,-1115 21,-72 43,-130 72,-195 14,-29 28,-57 43,-86 29,-72 14,-65 57,-87 74,-198 699,-2131 699,-2131z"/>
   <path class="fil8" d="M8575 13154c-65,14 -389,316 -476,381 -151,123 -316,288 -453,411 -554,482 -1210,1223 -1476,1958 -101,281 -202,986 -180,1332 7,57 36,129 14,158 -151,-237 -21,-1152 58,-1425 122,-396 360,-778 569,-1044 252,-346 662,-778 965,-1051 72,-58 158,-137 208,-202 58,-65 123,-151 188,-223 43,-58 129,-159 165,-223 -22,-15 -7,-29 -86,14 -123,58 -144,65 -216,151l-238 245c-93,79 -187,144 -288,209 -245,173 -554,497 -727,734 -511,691 -605,1289 -742,2167 -43,288 -93,533 -158,814 -86,381 -94,302 -173,554 -29,101 -14,108 -29,158l-14 36c0,0 0,8 0,8 -65,-8 -29,-22 -108,93 -194,303 -374,483 -547,828 -79,159 -173,375 -202,576 -57,360 0,475 15,735 29,-29 43,-224 65,-310 86,-461 338,-914 611,-1282l166 -216c50,-57 115,-172 202,-172 0,72 -80,165 -108,230 -80,151 -260,619 -267,770 87,-122 281,-388 375,-489 43,-43 36,-22 64,-87 29,-72 29,-36 87,-64 14,-144 93,-389 144,-526 29,-86 180,-446 187,-482 -29,-137 382,-1678 454,-1887 100,-280 244,-561 396,-784 86,-137 158,-231 252,-346 165,-202 734,-691 950,-828 57,-36 115,-79 173,-122 136,-94 201,-123 338,-245 338,-302 727,-706 1001,-1080 65,-94 201,-259 237,-367l-1008 698c-43,29 -324,173 -388,195z"/>
   <path class="fil6" d="M7934 11109c-50,79 -288,245 -511,633 -173,303 -245,720 -324,807 -7,-87 21,-173 7,-231l-14 533c0,166 0,360 14,519 173,-303 180,-288 288,-656 43,-151 180,-633 122,-784 -79,14 -122,100 -158,180 -86,208 -36,208 -108,208 -29,-64 65,-266 101,-324 50,-86 93,-244 223,-194 79,194 -65,756 -122,950 -94,324 -180,504 -353,764 -79,122 -166,201 -259,295 -555,554 -1030,777 -1311,1476 -129,331 -129,561 -158,936 -29,324 14,741 43,1051 36,324 79,727 72,1044 0,0 0,-8 0,-8l14 -36c15,-50 0,-57 29,-158 79,-252 87,-173 173,-554 65,-281 115,-526 158,-814 137,-878 231,-1476 742,-2167 173,-237 482,-561 727,-734 101,-65 195,-130 288,-209l238 -245c72,-86 93,-93 216,-151 79,-43 64,-29 86,-14l274 -404c43,-72 86,-136 129,-208 51,-72 94,-130 130,-202 -15,-29 0,7 -7,-29 0,-7 0,-14 0,-29 0,-7 14,-36 14,-50 50,-194 7,-252 22,-353 -101,79 -641,1095 -900,1404l-187 195c-58,64 -123,144 -202,172 22,-43 252,-295 310,-367 187,-245 633,-979 777,-1253 -137,8 -238,123 -346,224l-273 280c-36,58 -58,173 -108,209l151 -497c58,-180 108,-302 187,-453 72,-130 115,-331 173,-475 72,-166 151,-274 230,-403 -129,0 -482,86 -597,122z"/>
   <path class="fil11" d="M11332 21505c223,-115 634,-36 828,72 202,108 374,288 403,605l-590 -367c-108,-58 -223,-116 -324,-166l-317 -144zm3974 3895l483 0c-87,-274 -483,-871 -627,-1037 -187,-216 -389,-446 -612,-648 -64,-64 -144,-122 -208,-194 64,14 151,58 223,79l684 216c259,72 835,166 972,231 324,158 813,590 928,885 36,108 137,324 130,454 101,0 209,0 310,0 50,0 108,-8 151,-8 72,8 86,29 115,-28 -43,-29 -15,-8 -36,-65l7 57c-72,-21 -122,-129 -165,-194 -44,-65 -87,-137 -130,-209 -281,-489 -173,-403 -569,-799 -655,-662 -1757,-461 -2570,-864 -180,-93 -259,-151 -338,-345 -65,-152 -108,-375 -267,-425 -151,-51 -396,21 -612,-72 -417,-173 -201,-742 -425,-943 -324,-296 -518,-101 -1116,-260 -259,-64 -338,-172 -460,-223 -51,22 -461,346 -504,389l381 158c360,173 706,389 1030,591 108,72 209,144 324,223 633,425 1296,886 1785,1454 80,94 173,195 260,274 259,252 763,950 856,1303z"/>
   <path class="fil7" d="M19568 0l-208 0c-51,94 -404,547 -504,684 -368,518 -598,922 -929,1454 -137,231 -295,533 -425,771 -151,252 -252,540 -389,806 -64,137 -129,259 -194,403 -115,281 -223,583 -324,871 -101,310 -223,569 -310,886 -21,86 -136,410 -129,461 115,72 230,122 353,194 50,36 288,216 316,223 80,-691 202,-1346 425,-1951 101,-295 216,-569 317,-864 144,-417 511,-1253 705,-1670 152,-324 612,-1238 807,-1562l360 -533c43,-65 101,-123 129,-173z"/>
   <path class="fil8" d="M10439 15004c-21,151 -79,331 -115,489 -43,159 -72,324 -101,490 -201,1051 -338,1937 -619,2981 -165,604 -403,1159 -684,1720 -144,288 -273,511 -446,749 -79,108 -324,374 -432,468 -29,22 -144,108 -158,122 -72,80 -123,116 -180,238 -36,86 -87,230 -87,338 245,-93 439,-201 655,-352 187,-137 382,-339 519,-504 727,-879 957,-1707 1202,-2837 50,-259 115,-605 144,-864 22,-158 36,-302 65,-453 14,-72 21,-144 36,-216l29 -180c14,-22 14,-22 21,-29 29,-403 144,-1145 223,-1548l303 -1469 7 -50c-58,21 -101,115 -144,180 -36,57 -72,129 -108,209 -43,107 -72,251 -101,381l-29 137z"/>
   <path class="fil8" d="M8503 7711c14,-115 511,-713 612,-843 57,-79 158,-201 216,-259l-22 0c-36,7 -22,7 -58,29 -273,173 -525,382 -763,598 -216,194 -453,518 -640,799 -260,388 -562,1087 -569,1605 0,159 36,497 129,583 51,36 8,15 29,0 -101,-756 79,-1288 468,-1872 58,-86 108,-151 173,-223 21,-29 165,-180 216,-165 7,43 -137,223 -173,273 -180,252 -324,576 -403,879 0,7 -14,43 -14,50 0,0 -15,-7 21,43 0,447 -137,749 87,1231 43,101 129,238 187,296 64,0 144,-22 187,-44 -36,-57 -173,-561 -194,-662 -44,-266 -44,-526 14,-792 93,-468 317,-857 547,-1166 331,-461 871,-893 1325,-1239 180,-136 201,-151 389,-266 21,-7 43,-22 64,-36 51,-29 58,-29 80,-14 -29,57 -159,259 -195,295l22 0c14,-7 209,-159 252,-195 93,-57 187,-115 288,-165 201,-108 417,-202 640,-288 260,-94 1210,-375 1455,-375 -619,-129 -1491,317 -1620,267 14,-29 173,-72 216,-87 72,-21 151,-50 223,-79 166,-72 295,-93 475,-144 -410,-43 -921,22 -1260,144 -655,238 -1166,699 -1634,1181 -122,122 -245,230 -374,346 -51,50 -339,302 -389,316l-7 -21z"/>
   <path class="fil5" d="M14270 25400l993 0c-14,-50 -50,-94 -86,-151 -101,-166 -130,-238 -260,-447 -266,-417 -568,-684 -878,-1022 -425,-475 -583,-540 -1008,-878 -216,-173 -1605,-1123 -1699,-1109 -58,-14 -22,-7 -65,-29 -194,166 94,475 180,547 144,137 101,94 259,173 224,108 576,339 785,483 159,100 317,273 439,403 137,137 274,288 404,446 403,482 691,979 936,1584z"/>
   <path class="fil6" d="M7884 22023l-108 15c86,-65 36,-7 201,-166 374,-374 612,-705 850,-1180 50,-94 86,-180 129,-281 36,-72 101,-195 123,-267 -512,548 -490,396 -972,728 -310,223 -641,561 -699,986 -21,187 15,338 36,518 22,202 8,353 8,547 244,-57 568,-172 770,-316 101,-72 201,-159 302,-231 101,-79 195,-165 281,-252 252,-252 511,-612 677,-936l338 -741c144,-367 259,-893 303,-1296 28,-331 79,-663 93,-994 7,-331 43,-662 72,-993 -7,7 -7,7 -21,29l-29 180c-15,72 -22,144 -36,216 -29,151 -43,295 -65,453 -29,259 -94,605 -144,864 -245,1130 -475,1958 -1202,2837 -137,165 -332,367 -519,504 -216,151 -410,259 -655,352 0,-108 51,-252 87,-338 57,-122 108,-158 180,-238z"/>
   <path class="fil8" d="M9331 8179c0,79 -80,338 -94,460 -7,72 -36,317 -29,375 7,50 29,93 -7,144 -58,453 -50,907 22,1339l345 -36c15,-115 7,-259 22,-389 43,-345 129,-662 252,-979 180,-439 273,-634 533,-1008l36 -72c14,-65 79,-129 108,-194 -108,65 -317,280 -396,381 -22,29 -310,432 -339,447 -65,64 -129,280 -194,316 -7,-172 432,-914 525,-1043 137,-188 576,-670 778,-785l14 -36c101,-130 619,-439 756,-526 101,-72 245,-129 259,-187 -288,50 -1180,461 -1425,706 -43,43 -79,64 -122,108 -144,151 -303,252 -468,468 -29,36 -188,237 -216,252 -22,-152 316,-497 417,-605 144,-159 346,-339 533,-483 108,-79 187,-144 295,-216 151,-108 842,-489 1001,-525l-22 0c-101,-7 -734,266 -842,317 -598,295 -893,547 -1310,1029 -80,87 -432,583 -432,742z"/>
   <path class="fil8" d="M6379 21707c-58,244 223,828 115,1288 -58,231 -317,900 -288,1145 7,43 0,43 -7,94l86 -173c180,-410 468,-842 576,-1260 87,-353 22,-626 -14,-972 -15,-180 -22,-310 7,-482 14,-108 65,-360 144,-389 29,72 -29,317 -43,417 -29,317 65,555 101,857 72,627 100,526 -116,1275 -57,223 -151,604 -136,849 28,22 -29,22 7,7 0,-7 7,-7 7,-7 7,0 7,-7 14,-7 22,-43 65,-151 94,-202 29,-72 72,-136 108,-201 230,-396 396,-951 338,-1440 -28,-281 -129,-828 -129,-1080 7,-727 230,-857 252,-958 101,-352 -223,-324 -367,-244 -360,180 -713,921 -742,1303 0,57 7,115 -7,180z"/>
   <path class="fil6" d="M10072 8740c15,29 -29,130 -43,173 -50,151 -115,432 -137,583 -65,411 15,785 -7,922l166 -22c0,-165 -8,-281 0,-453 0,-94 14,-209 43,-296 14,-50 14,-57 65,-64 14,21 -58,583 -44,799l281 -15c115,-979 663,-1980 1267,-2728l267 -324c-15,-22 -8,-15 0,-58 43,-216 108,-273 187,-425 -223,101 -850,850 -986,1030 -144,201 -267,381 -389,619 -58,115 -115,216 -180,331 -29,51 -144,324 -159,339 15,-188 238,-569 317,-742 195,-396 403,-641 655,-943 94,-115 439,-461 533,-540l288 -245c-115,29 -562,288 -684,360 -209,137 -403,303 -569,475 -216,216 -302,303 -482,562 -101,151 -338,475 -389,662z"/>
   <path class="fil12" d="M15789 25400l1332 0 158 -14c7,-130 -94,-346 -130,-454 -115,-295 -604,-727 -928,-885 -137,-65 -713,-159 -972,-231l-684 -216c-72,-21 -159,-65 -223,-79 64,72 144,130 208,194 223,202 425,432 612,648 144,166 540,763 627,1037z"/>
   <path class="fil6" d="M8467 8870c36,-36 14,-65 57,-144l202 -346c129,-209 201,-245 324,-388 -7,179 -180,547 -130,1166 22,266 15,93 -173,468 -64,129 -158,309 -194,446 -252,-65 -230,-165 -252,-266 -50,65 -58,331 -50,432 0,151 21,288 43,432 93,0 324,-58 432,-79 137,-29 295,-58 439,-72 -22,-123 -50,-224 -65,-346 -14,-137 -7,-281 -7,-418 0,-108 43,-698 79,-756 36,29 29,94 29,159 36,-51 14,-94 7,-144 -7,-58 22,-303 29,-375 14,-122 94,-381 94,-460l-58 50c-43,-72 101,-360 137,-432 72,-129 144,-252 237,-360 72,-101 396,-453 504,-547 44,-36 51,-29 87,-79l-22 0c36,-36 166,-238 195,-295 -159,79 -792,576 -936,712 -281,252 -591,526 -821,828 -1058,1397 -447,2340 -454,2506 29,-360 -79,-209 72,-929 43,-238 123,-504 159,-749 21,-137 7,-86 43,-93l-7 79z"/>
   <path class="fil6" d="M11894 18359c0,-58 -51,-223 -65,-310 -36,-209 -108,-900 -51,-1029 29,79 51,180 80,273 216,713 288,922 597,1599 36,86 101,172 123,252 -130,-65 -281,-296 -353,-303 -7,43 14,65 36,101 36,50 36,86 57,115l8 -50c43,7 115,180 187,266 108,144 309,367 432,497 288,266 705,612 1065,778 80,36 231,122 310,136 -86,-72 -230,-158 -338,-237 -310,-231 -605,-569 -843,-871 -144,-202 -115,-173 -223,-353 -94,-151 -101,-108 -216,-346 -65,-129 -137,-245 -202,-374 -669,-1397 -763,-2779 -828,-4320 -187,36 -208,202 -230,396 -22,173 -29,396 -29,569 0,684 15,1649 166,2289 29,101 230,785 302,900 7,22 0,7 15,22z"/>
   <path class="fil9" d="M14190 20490c44,65 310,216 375,252 108,58 288,158 424,187 -57,-137 -266,-230 -381,-950 -51,-324 -101,-1563 -43,-1923 72,-403 475,-388 -151,-791 -166,-108 -296,-152 -389,-288 21,-15 -36,-15 50,-8 -29,-28 29,-21 -57,-28 -58,0 -44,93 -44,144 8,561 -28,1079 15,1684 57,756 79,972 223,1721l-22 0z"/>
   <path class="fil8" d="M10807 10339l28 -58c130,-353 137,-403 346,-770 144,-245 583,-800 792,-1008 216,-224 662,-871 691,-1102 -94,51 -835,785 -943,914 -72,87 -72,123 -137,116 7,-58 115,-173 151,-224 58,-79 101,-144 151,-215 159,-231 332,-425 490,-648 50,-72 94,-152 137,-224 36,-57 273,-424 252,-460 -51,21 -166,122 -209,158 -425,367 -562,504 -914,965 -108,151 -202,273 -303,439 -194,309 -374,619 -532,972 -108,237 -332,885 -339,1166l339 -21z"/>
   <path class="fil6" d="M12765 6660c21,36 -216,403 -252,460 -43,72 -87,152 -137,224 -158,223 -331,417 -490,648 -50,71 -93,136 -151,215 -36,51 -144,166 -151,224 65,7 65,-29 137,-116 108,-129 849,-863 943,-914 -29,231 -475,878 -691,1102 -209,208 -648,763 -792,1008 -209,367 -216,417 -346,770l-28 58c165,-8 129,-51 338,-317 396,-497 878,-893 1267,-1311 101,-108 209,-223 310,-338 100,-115 194,-223 295,-346 36,-35 43,-57 72,-86 115,-137 50,-65 43,-403 -29,14 -14,7 -36,22l-418 489c-129,130 -309,338 -482,490 -94,79 -158,158 -252,230 -58,58 -166,173 -245,238 -86,79 -288,266 -353,367 -36,57 -57,101 -100,137 108,-238 669,-807 871,-987 209,-194 288,-288 468,-475 57,-50 93,-108 151,-165 108,-101 194,-209 288,-332 137,-172 86,-172 58,-518 -15,-187 -29,-396 -58,-576 -58,29 -223,151 -259,202z"/>
   <path class="fil6" d="M4644 20548c14,172 43,331 79,496l115 396c14,15 0,0 22,15l-8 57c137,-14 353,-331 432,-468 123,-201 209,-360 267,-619 122,-497 180,-1001 288,-1497 -58,28 -58,-8 -87,64 -28,65 -21,44 -64,87 -94,101 -288,367 -375,489 7,-151 187,-619 267,-770 28,-65 108,-158 108,-230 -87,0 -152,115 -202,172l-166 216c-273,368 -525,821 -611,1282 -22,86 -36,281 -65,310z"/>
   <path class="fil8" d="M7408 18056c-28,173 -280,548 -165,1152 79,404 273,656 605,778 7,-7 7,7 7,-22 -7,-36 -43,-72 -65,-122 -151,-324 -58,-799 36,-1123 108,-375 266,-756 439,-1066 194,-345 396,-619 612,-900 122,-158 554,-748 605,-900 -166,260 -799,864 -1051,1088 -137,115 -1008,993 -1023,1115z"/>
   <path class="fil6" d="M6206 24140c-101,108 50,1058 58,1260l597 0c-14,-115 -151,-367 -93,-799 14,-101 50,-166 64,-252 -7,0 -7,7 -14,7 0,0 -7,0 -7,7 -36,15 21,15 -7,-7 -15,-245 79,-626 136,-849 216,-749 188,-648 116,-1275 -36,-302 -130,-540 -101,-857 14,-100 72,-345 43,-417 -79,29 -130,281 -144,389 -29,172 -22,302 -7,482 36,346 101,619 14,972 -108,418 -396,850 -576,1260l-86 173c7,-51 14,-51 7,-94z"/>
   <path class="fil6" d="M11915 6091l22 0c-159,36 -850,417 -1001,525 -108,72 -187,137 -295,216 -187,144 -389,324 -533,483 -101,108 -439,453 -417,605 28,-15 187,-216 216,-252 165,-216 324,-317 468,-468 43,-44 79,-65 122,-108 245,-245 1137,-656 1425,-706 -14,58 -158,115 -259,187 -137,87 -655,396 -756,526l-14 36c324,-238 648,-454 1015,-598 122,-50 266,-115 382,-151 -44,58 -303,151 -389,194 -159,72 -252,130 -389,209 -130,87 -238,151 -353,238 -115,86 -230,180 -338,266 -108,79 -497,519 -576,612 -101,130 -410,576 -461,742 29,-15 317,-418 339,-447 79,-101 288,-316 396,-381 -29,65 -94,129 -108,194l244 -302c404,-483 1008,-893 1613,-1123 274,-101 511,-317 734,-360l-28 -396c-317,64 -684,136 -1001,223l-58 36z"/>
   <path class="fil8" d="M10598 17884c-36,-29 -36,-51 -51,-101 -7,-36 -14,-72 -28,-108l-94 -446c0,-36 -7,-80 -14,-123 -8,-108 -8,-79 -29,-72 -72,727 -216,2174 -7,2844 72,202 165,331 280,482 267,368 425,404 576,569 72,79 87,108 209,166 158,72 418,144 619,136 -338,-194 -381,-144 -691,-511 -698,-813 -785,-1699 -770,-2836z"/>
   <path class="fil10" d="M10835 18416c-7,137 195,692 245,843 94,245 245,533 374,720 137,223 303,425 468,619 188,223 195,238 389,425l144 115c58,-58 -29,-475 -50,-562 -22,-93 -43,-172 -79,-252 -22,-64 -87,-187 -87,-244 -21,-65 -403,-533 -504,-677l-115 -180c-14,-29 -7,-29 -36,-36 -50,-29 -137,-173 -173,-231 -57,-79 -115,-151 -180,-216 -93,-108 -266,-331 -403,-396l7 72z"/>
   <path class="fil8" d="M8258 20058c36,14 14,7 14,0l223 -310c72,-108 137,-208 202,-331 130,-237 230,-468 346,-720 108,-245 208,-518 295,-777 72,-216 194,-612 216,-857 -58,29 -79,108 -115,166l-332 503c-410,562 -1166,1548 -914,2326l65 0z"/>
   <path class="fil5" d="M16948 13118c0,-188 -43,-440 -72,-627 -22,-173 -65,-439 -108,-597 -43,14 -22,0 -43,21 -22,58 14,115 36,180 28,108 136,504 43,547 -43,-28 -51,-158 -65,-223 -7,-72 -29,-173 -50,-237 -44,86 72,367 -22,439 -144,-43 -893,-202 -936,-231 -187,-93 -173,-136 -274,-302 -57,-94 -180,-209 -316,-259 -8,209 223,777 352,921 152,173 231,260 440,404 79,57 194,93 309,108 367,21 468,-65 706,-144z"/>
   <path class="fil8" d="M4291 24133l14 0c-86,-504 -129,-785 195,-1282 72,-108 158,-223 237,-309 159,-173 331,-411 447,-619 64,-108 129,-231 180,-353 50,-137 93,-274 144,-396 -15,-22 7,-15 -22,0l-122 187c-51,65 -101,122 -152,173 -352,331 -647,489 -1036,871 -123,122 -180,180 -259,367 -72,159 -108,353 -58,540 43,166 36,108 94,223 36,72 266,569 338,598z"/>
   <path class="fil13" d="M12534 10475c29,-50 36,-136 36,-201 -208,14 -424,21 -640,43 -209,22 -418,43 -627,58 -223,14 -432,28 -648,43 -669,57 -1152,101 -1828,223 -188,29 -958,209 -1116,259l21 173 1728 -302c195,-36 403,-44 598,-80 86,-14 43,-28 151,-21l461 -36c65,0 122,-15 165,-15l454 -36c216,-14 417,-36 633,-50 159,-14 468,-22 612,-58z"/>
   <path class="fil4" d="M7027 18690l7 29c0,79 -22,151 65,158 -43,-144 201,-749 309,-821 15,-122 886,-1000 1023,-1115 252,-224 885,-828 1051,-1088 -51,152 -483,742 -605,900 -216,281 -418,555 -612,900 -173,310 -331,691 -439,1066 -94,324 -187,799 -36,1123 22,50 58,86 65,122 72,51 86,123 187,166 101,43 223,29 266,-65 -21,-21 7,-7 -36,-7 0,7 22,14 -14,0 -36,29 -87,22 -130,14 -43,0 -79,-21 -108,-36 -165,-115 -237,-417 -237,-640 -7,-504 309,-1340 597,-1771l411 -612c28,-36 50,-51 79,-80 158,-208 338,-446 482,-684 79,-136 144,-244 223,-367 72,-122 144,-252 216,-374 159,-267 281,-454 411,-778 50,-144 101,-280 137,-439 21,-93 100,-439 72,-504 -58,7 -44,29 -80,180 -187,972 -784,1764 -1447,2441 -165,173 -338,317 -525,497 -188,180 -296,288 -526,518 -331,338 -583,590 -734,1065 -15,44 -43,173 -72,202z"/>
   <path class="fil6" d="M10663 18006c-22,727 57,1490 388,2117 202,374 295,446 526,720 158,187 590,388 864,396 -29,-51 -123,-123 -166,-159 -201,-173 -173,-180 -309,-331 -51,-50 -87,-93 -144,-165 -519,-620 -850,-1253 -1044,-2060 -15,-64 -79,-475 -115,-518z"/>
   <path class="fil8" d="M18236 25364l497 0 195 0c-72,-410 -368,-821 -656,-1109 -43,-43 -72,-72 -115,-115l-259 -237c-101,-94 -173,-159 -266,-231 -115,-86 -490,-353 -619,-381l115 108c604,525 950,1173 1108,1965z"/>
   <path class="fil8" d="M9907 20432l-353 778c-65,129 -144,237 -216,360 -245,374 -454,612 -814,885 -309,231 -331,274 -698,425 -14,29 14,22 -14,29 446,72 734,-209 1022,-360 86,-50 209,-144 295,-180 36,-14 108,-86 144,-115 43,-43 101,-94 115,-144 29,-87 259,-295 418,-735 115,-331 194,-583 122,-964 7,50 7,0 -21,21z"/>
   <path class="fil6" d="M9431 22175c22,28 -122,259 -144,295 -36,50 -64,86 -100,144 -36,43 -87,93 -108,144 93,-51 928,-857 1008,-936l511 -454c93,-79 158,-129 266,-216 43,-29 267,-165 281,-194l-526 -497c-100,331 -590,1015 -856,1318l-332 396z"/>
   <path class="fil8" d="M5608 25162c15,-7 22,-7 44,-57l72 -231c201,-590 345,-1403 -51,-1943 -29,-44 -57,-72 -93,-116 -36,-43 -51,-79 -101,-108 -7,195 -43,411 -58,612 -14,216 -21,440 0,663 29,410 130,792 187,1180z"/>
   <path class="fil4" d="M16185 11994c57,-14 273,-14 309,8 29,50 29,237 15,295 -22,72 -58,187 -101,223 -94,-22 -151,-14 -195,-180 -28,-122 -36,-216 -28,-346zm-591 -36c51,-7 195,15 259,22 94,7 195,0 296,0 36,209 -44,130 79,490 -101,-8 -375,-72 -454,-130 -57,-43 -79,-86 -115,-173 -14,-36 -72,-180 -65,-209zm807 -194c-29,29 -101,79 -159,65l22 -72c-123,43 -65,72 -238,72 -245,-7 -259,14 -569,0 -108,-7 -172,-29 -266,-43 -58,-8 -72,7 -50,43 136,50 259,165 316,259 101,166 87,209 274,302 43,29 792,188 936,231 -7,-51 -166,-79 -209,-87l72 -187c36,43 7,94 51,115 28,-79 -44,-324 -29,-424 29,7 43,28 57,57 22,51 8,65 58,87 14,-58 -29,-152 -29,-231l87 -36c21,-21 0,-7 43,-21 43,158 86,424 108,597 29,187 72,439 72,627l0 79c-29,21 -36,29 -79,43 -195,79 -548,130 -742,72 -439,-122 -799,-576 -958,-994 -79,-208 -187,-547 -151,-820 317,-51 663,-51 979,14 238,50 605,108 728,353 -29,14 -101,57 -137,36 7,-7 7,-7 14,-22 65,-43 51,-7 65,-72 -72,29 -94,94 -187,58 0,0 7,-7 7,-7l14 -15c51,-57 22,0 51,-65 -79,22 -87,80 -187,72 14,-50 21,-43 50,-64 0,-44 7,-8 -14,-22zm259 -65c209,43 187,115 230,245 58,216 115,562 144,799l36 375c0,64 7,28 -14,43 -29,36 -51,21 -65,-22 -7,-14 -14,-86 -14,-101 -8,-72 -15,-151 -22,-223 -14,-137 -29,-281 -50,-417 -22,-137 -44,-267 -72,-404 -8,-36 -15,-57 -29,-86 -43,-122 -29,-65 -144,-209zm482 1483c0,-86 -115,-828 -129,-914 -29,-151 -58,-274 -101,-418 -29,-100 0,-100 -101,-151 -65,-36 -115,-57 -187,-79 -238,-86 -555,-173 -850,-187 -273,-22 -446,-51 -720,14 -101,22 -86,65 -86,173 -7,590 353,1166 648,1433 93,79 151,158 281,230 288,159 568,144 871,58 115,-29 302,-101 374,-159z"/>
   <path class="fil8" d="M8467 8870c-22,165 -51,309 -87,468 -21,101 -93,367 -79,468 22,101 0,201 252,266 36,-137 130,-317 194,-446 188,-375 195,-202 173,-468 -50,-619 123,-987 130,-1166 -123,143 -195,179 -324,388l-202 346c-43,79 -21,108 -57,144z"/>
   <path class="fil9" d="M12542 12722c36,21 14,0 36,36 122,158 93,180 302,396 50,50 79,93 122,136 152,137 404,346 576,447 108,72 216,129 310,201 194,137 864,396 1101,447 296,72 569,101 872,144 259,28 482,-115 756,-252 129,-58 1180,-670 1274,-778l36 15 -43 -94c-65,22 -259,173 -324,216 -94,72 -216,130 -324,194 -324,195 -389,209 -691,360 -123,65 -231,130 -353,188 -101,57 -58,50 -216,50 -864,0 -1865,-432 -2491,-922 -792,-626 -900,-1087 -965,-1152l22 368z"/>
   <path class="fil8" d="M8927 12722c94,-296 252,-555 411,-756l396 -468c21,-22 43,-51 65,-80 7,-14 28,-57 64,-57 87,-230 346,-511 418,-641 -115,0 -158,7 -223,72 -231,231 -367,367 -591,619 -403,454 -828,1253 -1216,1800 -44,58 -94,115 -123,180 43,-29 339,-273 411,-331 36,-29 381,-302 388,-338z"/>
   <path class="fil6" d="M10958 11505c381,21 784,151 1144,-123 108,-79 245,-230 317,-374 58,-122 173,-345 202,-475 -72,-7 -72,14 -115,43 -180,137 -540,303 -742,411 -158,86 -741,388 -806,518z"/>
   <path class="fil6" d="M12239 9151c-43,7 0,14 -21,-8 21,-93 57,-129 79,-201 -43,14 -43,29 -94,72l-245 252c-187,173 -863,864 -957,1058 43,0 446,-14 497,-43 -58,-14 -51,0 -108,7 43,-79 136,-122 165,-194 -65,21 -50,43 -93,50 72,-86 540,-504 712,-648 87,-79 303,-237 375,-309 281,-288 389,-440 605,-771 57,-79 50,-79 36,-187 -29,7 -15,0 -44,36l-388 475c-116,159 -166,187 -288,303l-526 424c-36,36 -65,58 -101,87l-216 187c87,-173 497,-446 598,-569 14,-14 0,-7 14,-21z"/>
   <path class="fil6" d="M4169 25400l950 0c-29,-58 -159,-216 -202,-266 -266,-317 -374,-512 -597,-814 -36,22 -15,0 -43,50l-87 180c-36,80 -57,166 -79,267 -58,331 -36,353 58,583z"/>
   <path class="fil6" d="M9907 20432c28,-21 28,29 21,-21 72,381 -7,633 -122,964 -159,440 -389,648 -418,735l259 -288c310,-403 584,-864 728,-1375 64,-223 57,-238 -22,-418 -108,-252 -137,-612 -144,-921 -22,28 -22,36 -29,79 -14,237 -36,381 -93,619 -58,252 -152,490 -180,626z"/>
   <path class="fil6" d="M12009 16717l0 -57c72,79 122,158 187,252 50,72 130,237 202,266 -36,-273 -281,-799 -317,-1101 -22,-152 -22,-288 -29,-447 -7,-180 -29,-245 -58,-410 -43,-216 -64,-655 -50,-878 7,-108 43,-332 -7,-425 -43,43 -87,151 -202,216 0,223 36,446 43,676 8,440 87,1174 159,1613l57 267c8,28 0,14 15,28z"/>
   <path class="fil9" d="M12779 17373c-14,-188 7,-519 72,-692 87,-237 490,51 576,-43 0,-21 0,-7 -50,-29l-339 -194c-86,-43 -72,-22 -136,-94 0,44 14,15 -15,51 -93,-22 -295,-180 -367,-238 -65,-50 -274,-252 -374,-230 -29,245 158,633 252,792 64,115 136,216 201,331l180 346z"/>
   <path class="fil6" d="M7408 10223c22,80 216,360 281,440 36,43 87,86 108,129l137 -29c-43,-86 -108,-108 -194,-302 -173,-403 -144,-641 -80,-1051 8,-36 8,-72 15,-108 7,-72 -7,-79 50,-94 -36,-50 -21,-43 -21,-43 0,-7 14,-43 14,-50 79,-303 223,-627 403,-879 36,-50 180,-230 173,-273 -51,-15 -195,136 -216,165 -65,72 -115,137 -173,223 -389,584 -569,1116 -468,1872 -21,15 22,36 -29,0z"/>
   <path class="fil6" d="M10871 14306c15,-15 36,21 15,-22 43,324 201,1101 424,1397 15,14 8,7 22,21 0,-367 -7,-756 -29,-1123 -14,-187 -29,-324 -65,-504 -21,-115 -36,-101 -115,-165 -50,-44 -108,-87 -165,-116 0,8 -87,468 -87,512z"/>
   <path class="fil4" d="M10432 12880l51 14c0,-57 -15,-86 -22,-136 -7,-36 -14,-101 7,-130 -7,-108 123,-454 180,-497 51,-86 187,-151 303,-165 108,-8 295,43 345,100 -36,22 -101,44 -137,58l-266 144c-79,36 -94,22 -137,-36l-36 7c0,159 166,108 245,65 65,-36 209,-137 273,-144l87 -50c108,-22 158,86 180,172 -72,-21 -94,-28 -173,-7 -115,94 -137,87 -223,238 -65,115 -101,230 -108,381 -14,260 -14,281 137,339 57,29 309,108 345,129l115 15c-28,-51 -93,-58 -158,-87l-58 -36c-14,0 -237,-86 -273,-100 -86,-44 -58,-209 -43,-324 21,-188 158,-476 288,-490l50 -22c101,-14 158,87 173,180 29,180 -238,432 -144,656 79,172 173,79 266,158 36,101 15,230 -50,295 -72,87 -144,108 -216,144 7,7 21,36 21,36 216,-36 332,-151 339,-396 43,15 57,65 79,108 50,-57 -22,-144 -65,-194 -72,-79 -57,-79 -187,-108 -194,-29 -108,-267 -58,-389 94,-216 123,-209 44,-461 -94,-302 -281,-518 -598,-569 -57,-7 -209,15 -252,36 -101,65 -331,598 -353,814 -14,130 15,158 29,252z"/>
   <path class="fil8" d="M15097 20058c94,130 598,259 886,446 216,144 353,324 446,569 94,238 36,266 209,288 -14,-166 -108,-554 -194,-684 -123,-209 -274,-273 -483,-396 -172,-101 -367,-194 -554,-317 -108,-79 -151,-115 -238,-194 -122,-122 -144,-173 -201,-223 -43,7 -51,43 -58,137 0,57 15,100 29,151 50,137 130,151 158,223z"/>
   <path class="fil8" d="M8409 11541c-86,50 -468,900 -511,1065l273 -280c108,-101 209,-216 346,-224 115,-165 209,-324 331,-482 65,-86 123,-158 187,-238 36,-57 159,-180 180,-223 8,-43 15,0 -7,-21 -173,36 -309,79 -446,151 -159,93 -231,144 -353,252z"/>
   <path class="fil4" d="M6220 25400l44 0c-8,-202 -159,-1152 -58,-1260 -29,-245 230,-914 288,-1145 108,-460 -173,-1044 -115,-1288 -7,-22 0,14 -7,-29l-15 -288c0,-115 7,-216 29,-324 29,-187 86,-360 151,-518 51,-130 353,-944 281,-1037 -36,21 -79,230 -108,317 -36,115 -65,223 -108,324 -353,892 -446,1166 -238,2181 152,713 -50,742 -187,1476 -93,511 -50,1073 43,1591z"/>
   <path class="fil9" d="M16948 13118c-238,79 -339,165 -706,144 -115,-15 -230,-51 -309,-108 -209,-144 -288,-231 -440,-404 -129,-144 -360,-712 -352,-921 -22,-36 -8,-51 50,-43l-29 -15c-50,-14 -57,51 -50,-165 403,-15 626,-22 1022,64 72,15 245,29 267,94 21,14 14,-22 14,22 -29,21 -36,14 -50,64 100,8 108,-50 187,-72 -29,65 0,8 -51,65l-14 15c0,0 -7,7 -7,7 93,36 115,-29 187,-58 -14,65 0,29 -65,72 -7,15 -7,15 -14,22 36,21 108,-22 137,-36 -123,-245 -490,-303 -728,-353 -316,-65 -662,-65 -979,-14 -36,273 72,612 151,820 159,418 519,872 958,994 194,58 547,7 742,-72 43,-14 50,-22 79,-43l0 -79z"/>
   <path class="fil6" d="M10835 18416l-7 -72c137,65 310,288 403,396 65,65 123,137 180,216 36,58 123,202 173,231 -22,-79 -115,-209 -158,-295 -58,-116 -94,-195 -137,-310 -238,-562 -410,-1073 -511,-1692l-43 -331c-8,-36 -8,-29 -22,-43 0,338 -43,655 -14,1008 28,360 57,475 108,792 7,14 7,36 7,50 7,22 7,14 14,29l7 21z"/>
   <path class="fil6" d="M6242 19561c50,-29 29,-14 72,-115 14,-50 29,-72 43,-122 151,-368 331,-843 483,-1196 180,-417 482,-935 734,-1267 151,-187 612,-590 648,-698 -151,65 -619,511 -727,626 -612,648 -634,850 -943,1750 -58,165 -123,331 -173,497 -43,129 -151,403 -137,525z"/>
   <path class="fil11" d="M17322 15501c58,-15 144,-101 202,-58 -22,50 -173,137 -231,166 -36,14 -64,21 -86,50 65,29 122,36 144,108 -101,-14 -209,-65 -324,-65 -115,0 -216,58 -353,29l-7 -36c0,0 -36,7 -36,7 -7,7 -22,7 -29,15 -65,7 -43,7 -65,-15l-86 72c194,123 223,245 331,461 101,209 180,245 389,173 50,-15 94,-29 130,-72 -310,43 -418,-252 -281,-389 86,-94 137,-101 245,-29 144,87 115,187 129,259 36,-50 22,-201 15,-266 0,-151 -15,-130 64,-216 80,-79 188,-230 224,-353l-108 15c-29,-44 -65,-202 -216,-195 -15,101 64,43 21,187 -21,58 -57,94 -72,152z"/>
   <path class="fil8" d="M10202 11649c29,14 50,-7 86,-29 36,-22 58,-36 94,-58 353,-201 590,-352 885,-626 101,-101 216,-180 310,-295 -72,0 -108,29 -195,7 -115,-21 -417,22 -547,36 -93,159 -208,339 -309,490l-324 475z"/>
   <path class="fil4" d="M6782 17056c101,-101 245,-432 569,-742 281,-273 748,-705 993,-972 123,-129 209,-237 324,-338 108,-94 259,-202 353,-303l245 -259c21,-21 43,-64 65,-79l14 -50c-36,29 -65,93 -158,165 -58,44 -130,115 -173,159 -223,208 -864,684 -1109,885 -72,58 -122,94 -180,151 -65,58 -101,108 -165,173 -166,180 -785,1023 -807,1195l29 15z"/>
   <path class="fil12" d="M16537 15702c22,22 0,22 65,15 7,-8 22,-8 29,-15 0,0 36,-7 36,-7 209,-29 540,-86 655,-194 15,-58 51,-94 72,-152 43,-144 -36,-86 -21,-187 151,-7 187,151 216,195l108 -15c35,-57 14,-173 -36,-209 -29,-21 -159,-64 -202,-79 -338,-93 -446,-29 -698,339l-224 309z"/>
   <path class="fil6" d="M15961 21008c-21,-57 8,0 -14,-29l-79 -79c-159,-180 -310,-331 -519,-460 -72,-51 -187,-101 -237,-159l302 43c-29,-36 -79,-43 -115,-64l-302 -180c-144,-101 -324,-303 -346,-310 0,151 50,425 101,547 36,101 230,231 345,288 130,65 296,144 440,195 259,100 309,165 424,208z"/>
   <path class="fil6" d="M10382 17034c21,-7 21,-36 29,72 7,43 14,87 14,123l94 446c14,36 21,72 28,108 15,50 15,72 51,101l21 -1073c8,-108 29,-216 29,-324 7,-230 22,-468 36,-691 7,-115 -7,-245 -7,-367 7,-116 22,-231 14,-339 -64,123 -302,1707 -309,1944z"/>
   <path class="fil6" d="M13074 22247c58,129 303,158 476,158 151,0 273,-14 381,86 36,29 43,58 79,80 8,-288 -21,-490 -194,-663 -50,-50 -374,-360 -360,-468 -43,15 -14,65 0,123 50,216 14,446 -122,619 -65,86 -130,86 -260,65z"/>
   <path class="fil8" d="M7747 23341c21,36 -15,0 29,14l151 8c396,7 266,-22 532,-80 51,-7 591,-475 620,-525 21,-51 72,-101 108,-144 36,-58 64,-94 100,-144 22,-36 166,-267 144,-295l-187 180c-353,331 -1058,828 -1497,986z"/>
   <path class="fil8" d="M15961 21008c15,22 159,123 202,180 79,87 58,58 252,115 -7,-244 -209,-539 -338,-647 -80,-72 -195,-152 -310,-202 -65,-29 -295,-137 -353,-130l-302 -43c50,58 165,108 237,159 209,129 360,280 519,460l79 79c22,29 -7,-28 14,29z"/>
   <path class="fil4" d="M11289 22434c201,21 612,324 749,461 374,381 806,957 957,1490 79,302 159,698 202,1015l223 0c-22,-137 -101,-360 -144,-504 -50,-158 -108,-310 -166,-461 -115,-273 -237,-640 -417,-871 -115,-165 -447,-561 -583,-684 -130,-122 -540,-461 -807,-482 -29,29 -7,0 -14,36z"/>
   <path class="fil6" d="M11757 9935l403 -237c72,-43 137,-72 202,-115 57,-36 144,-94 216,-116 -44,216 -188,346 -324,490l-15 14c173,-43 605,-410 634,-489l259 -879 -295 382c-216,266 -461,425 -713,634 -65,50 -331,252 -367,316z"/>
   <path class="fil6" d="M3643 25170l79 230 382 0c-115,-187 -94,-389 -43,-626 50,-281 100,-324 208,-519l-72 -86 8 36c-152,50 -303,230 -375,374 -79,159 -144,403 -165,598l-22 -7z"/>
   <path class="fil6" d="M15493 21685l-21 43c-108,-29 -346,-122 -425,-201l-14 -22c-8,43 21,14 -15,36 -36,-43 -245,-216 -317,-223 -21,331 504,569 800,648 187,43 410,65 604,101 353,72 404,151 533,187 -86,-180 -641,-367 -864,-425 -72,-22 -281,-58 -281,-144z"/>
   <path class="fil6" d="M7826 22880c-65,22 -130,51 -194,65 -65,22 -137,36 -195,65l-65 374c353,-57 706,-252 965,-417 173,-116 720,-468 792,-598 -86,36 -209,130 -295,180 -288,151 -576,432 -1022,360 28,-7 0,0 14,-29z"/>
   <path class="fil8" d="M12009 16717c-22,130 173,778 216,922 79,237 180,482 281,713l50 86c0,0 7,7 7,7 -7,-194 -108,-1152 -165,-1267 -72,-29 -152,-194 -202,-266 -65,-94 -115,-173 -187,-252l0 57z"/>
   <path class="fil8" d="M9964 11318c-65,93 -345,633 -410,763 -43,93 -101,158 -144,237 158,-108 561,-547 684,-676 108,-123 475,-627 554,-792 -86,14 -302,158 -367,209 -72,43 -245,237 -317,259z"/>
   <path class="fil8" d="M8495 19986c260,-65 605,-396 764,-634 108,-165 151,-266 201,-489 36,-144 94,-468 87,-612 -159,410 -605,1202 -886,1548 -58,72 -122,122 -166,187z"/>
   <path class="fil12" d="M11332 21505l317 144c101,50 216,108 324,166l590 367c-29,-317 -201,-497 -403,-605 -194,-108 -605,-187 -828,-72z"/>
   <path class="fil6" d="M7747 23341c-65,22 -123,43 -187,65 -274,72 -152,-123 -368,482 267,-50 943,-353 1203,-540 36,-29 43,-29 64,-65 -266,58 -136,87 -532,80l-151 -8c-44,-14 -8,22 -29,-14z"/>
   <path class="fil8" d="M11757 9935c-29,15 -187,137 -202,159 -29,72 -122,115 -165,194 57,-7 50,-21 108,-7 64,14 151,0 223,-7l101 -51c72,-43 180,-129 244,-158 15,-58 137,-72 173,-94l15 -14c136,-144 280,-274 324,-490 -72,22 -159,80 -216,116 -65,43 -130,72 -202,115l-403 237z"/>
   <path class="fil6" d="M9309 6609l22 0c-58,58 -159,180 -216,259 -101,130 -598,728 -612,843l417 -403c274,-274 519,-562 821,-800 29,-21 446,-338 461,-367 -159,36 -519,231 -684,331l-159 94c-36,22 -28,14 -50,43z"/>
   <path class="fil4" d="M10893 7135c-202,115 -641,597 -778,785 -93,129 -532,871 -525,1043 65,-36 129,-252 194,-316 51,-166 360,-612 461,-742 79,-93 468,-533 576,-612 108,-86 223,-180 338,-266 115,-87 223,-151 353,-238 137,-79 230,-137 389,-209 86,-43 345,-136 389,-194 -116,36 -260,101 -382,151 -367,144 -691,360 -1015,598z"/>
   <path class="fil6" d="M15126 20692c-194,-94 -237,-152 -309,-195 14,108 122,259 180,331 129,180 79,151 280,223 101,36 749,159 836,166 -44,-65 -180,-151 -288,-216 -116,-72 -202,-101 -353,-151 -115,-43 -245,-115 -346,-158z"/>
   <path class="fil9" d="M11382 13254l58 36c65,29 130,36 158,87l-115 -15c36,29 29,15 79,36 -36,72 -93,108 -172,152 -51,21 -80,21 -123,28l-144 22c29,94 216,187 331,187 0,0 -14,-29 -21,-36 72,-36 144,-57 216,-144 65,-65 86,-194 50,-295 -93,-79 -187,14 -266,-158 -94,-224 173,-476 144,-656 -15,-93 -72,-194 -173,-180l-50 22c57,22 79,130 72,202 -8,93 -130,280 -116,489 8,108 51,137 87,216l-15 7z"/>
   <path class="fil5" d="M15191 11786c94,14 158,36 266,43 310,14 324,-7 569,0 173,0 115,-29 238,-72l-22 72c58,14 130,-36 159,-65 -22,-65 -195,-79 -267,-94 -396,-86 -619,-79 -1022,-64 -7,216 0,151 50,165l29 15z"/>
   <path class="fil6" d="M12455 21138c0,7 7,7 7,7l51 50c21,15 21,15 50,36 159,144 187,101 303,252 -8,-331 -346,-1072 -591,-1367 -29,-29 -14,-22 -36,-36 0,57 65,180 87,244 36,80 57,159 79,252 21,87 108,504 50,562z"/>
   <path class="fil6" d="M8409 11541c122,-108 194,-159 353,-252 137,-72 273,-115 446,-151 22,21 15,-22 7,21 65,-36 123,-122 188,-180 64,-57 144,-108 201,-172 -129,7 -295,43 -425,64 -194,29 -266,22 -360,123 -100,108 -360,381 -410,547z"/>
   <path class="fil4" d="M5328 25400l64 0c-36,-130 -309,-612 -424,-1022 -72,-267 -130,-648 -130,-936 0,-79 36,-288 0,-339 -57,-7 -72,22 -101,65 -21,36 -36,72 -57,115 -36,72 -72,180 -94,267 -21,101 -29,223 -29,324 8,101 8,237 108,259 -43,-144 -50,-238 -36,-396 15,-115 51,-281 123,-338 14,43 57,468 65,561 79,641 309,936 511,1440z"/>
   <path class="fil8" d="M9885 10418c22,-137 -58,-511 7,-922 22,-151 87,-432 137,-583 14,-43 58,-144 43,-173 -86,159 -245,583 -295,771 -94,302 -130,590 -151,936l259 -29z"/>
   <path class="fil6" d="M11541 11620c108,173 461,288 705,43 166,-158 281,-511 288,-741 -36,50 -64,144 -158,273 -65,87 -122,159 -202,216 -216,173 -302,180 -633,209z"/>
   <path class="fil14" d="M15853 11980c-64,-7 -208,-29 -259,-22 -7,29 51,173 65,209 36,87 58,130 115,173 79,58 353,122 454,130 -123,-360 -43,-281 -79,-490 -101,0 -202,7 -296,0z"/>
   <path class="fil6" d="M8927 12722c216,-116 432,-396 548,-605 64,-123 115,-267 187,-389 72,-122 137,-238 201,-367 -36,0 -57,43 -64,57 -22,29 -44,58 -65,80l-396 468c-159,201 -317,460 -411,756z"/>
   <path class="fil5" d="M11382 13254l15 -7c-36,-79 -79,-108 -87,-216 -14,-209 108,-396 116,-489 7,-72 -15,-180 -72,-202 -130,14 -267,302 -288,490 -15,115 -43,280 43,324 36,14 259,100 273,100z"/>
   <path class="fil6" d="M12066 10065c-64,29 -172,115 -244,158l-101 51c158,-15 317,-29 482,-43 151,-15 339,-8 490,-22l137 -569c-51,36 -87,108 -152,159 -43,36 -115,93 -172,129 -80,51 -332,195 -440,137z"/>
   <path class="fil6" d="M12570 17157l-194 -324c22,108 79,259 108,388 29,137 50,288 72,432l72 699c7,50 7,158 50,194 22,-158 22,-331 51,-497 21,-201 29,-295 0,-496 -29,-144 -94,-274 -159,-396z"/>
   <path class="fil9" d="M10468 12628c-21,29 -14,94 -7,130 7,50 22,79 22,136l-51 -14c29,166 238,367 360,468 36,29 101,122 144,122 7,-50 -43,-194 -50,-259 -7,-29 -15,-108 -15,-151l-14 -115c-22,-101 36,65 -7,-22l-7 -21c0,36 28,259 0,288 -58,-87 -44,-260 -72,-368 -51,-172 -195,-165 -180,-244 -29,21 -44,50 -58,72 -29,36 -36,50 -58,79l-7 -101z"/>
   <path class="fil8" d="M12117 6832c-79,152 -144,209 -187,425 -8,43 -15,36 0,58 72,-58 194,-231 417,-418l454 -367c29,-58 14,-122 -36,-137 -58,7 -108,65 -166,94 -72,43 -115,65 -173,108 -64,43 -295,194 -309,237z"/>
   <path class="fil9" d="M17293 14493l0 -58c324,51 511,-50 576,-7 -29,43 -65,50 -122,65 -65,21 -245,72 -302,72 -58,7 -72,-29 -130,-51 50,108 86,115 101,202l21 79c0,7 0,7 8,14 0,0 0,8 7,15 -7,-29 -7,-65 -15,-87 0,-28 -7,-43 8,-57 28,-43 669,-180 820,-317 15,-14 22,-21 29,-50 0,-36 -7,-51 -22,-65l0 50c-165,15 -986,-21 -986,29l-7 101c0,65 -14,-43 0,22 7,43 -7,14 14,43z"/>
   <path class="fil6" d="M16199 21887c22,28 36,28 72,43 22,7 50,21 72,29 230,108 317,230 382,266 -44,-130 -8,-194 -166,-374 -79,-87 -173,-173 -310,-231 -122,-50 -273,-86 -403,-129l-302 -101c-29,0 -65,-15 -94,0 51,57 303,129 454,209 194,108 194,79 288,208 21,36 50,65 72,101l-65 -21z"/>
   <path class="fil8" d="M8719 11951c-15,101 28,159 -22,353 0,14 -14,43 -14,50 0,15 0,22 0,29 7,36 -8,0 7,29 144,-266 338,-518 504,-770l21 -44c-57,-79 -28,-64 -7,-165 15,-51 43,-130 22,-159 -43,29 -439,540 -497,634 -22,43 -7,7 -14,43z"/>
   <path class="fil6" d="M9230 11274c21,29 -7,108 -22,159 -21,101 -50,86 7,165l58 -57c137,-173 158,-202 331,-374 65,-72 123,-137 195,-209 50,-58 165,-151 194,-202 -324,0 -374,115 -612,346 -36,36 -130,122 -151,172z"/>
   <path class="fil6" d="M11894 12218c14,-15 0,-8 36,-15 144,-21 194,-29 338,-187 58,-72 43,-101 94,-79 -15,-137 28,-202 36,-331 -36,36 -72,93 -130,144 -43,28 -101,72 -158,93 -180,72 -274,15 -425,-29 21,65 65,130 93,209 22,72 22,101 72,159l44 36z"/>
   <path class="fil6" d="M15097 20058c-28,-72 -108,-86 -158,-223 -14,-51 -29,-94 -29,-151 7,-94 15,-130 58,-137 -43,-87 -144,-202 -202,-295l-115 -231c-7,-14 -14,-36 -22,-43 -21,-36 0,-14 -28,-29 7,130 7,267 14,396 14,137 -7,245 58,339 64,86 295,324 424,374z"/>
   <path class="fil4" d="M5616 25400l50 0 -58 -238c-57,-388 -158,-770 -187,-1180 -21,-223 -14,-447 0,-663 15,-201 51,-417 58,-612l0 -100c-51,14 -29,0 -58,144 -57,410 -108,892 -65,1303 51,424 152,950 260,1346z"/>
   <path class="fil6" d="M18510 24003l-14 22c-51,-58 -281,-302 -310,-382 -22,-50 -36,-115 -72,-158l-22 65c-28,-51 -43,-137 -151,-130 -101,411 576,792 749,806 -58,-57 -94,-72 -137,-158l-43 -65z"/>
   <path class="fil8" d="M7106 12318c14,58 -14,144 -7,231 79,-87 151,-504 324,-807 223,-388 461,-554 511,-633 -130,22 -115,14 -180,86 -122,108 -266,259 -367,396 -94,144 -310,511 -281,727z"/>
   <path class="fil12" d="M17301 16336c36,-7 43,-22 64,-65 22,-36 29,-50 29,-94 -14,-72 15,-172 -129,-259 -108,-72 -159,-65 -245,29 -137,137 -29,432 281,389z"/>
   <path class="fil8" d="M3643 25170l22 7c21,-195 86,-439 165,-598 72,-144 223,-324 375,-374l-8 -36c-7,-36 -64,-130 -93,-151 -108,93 -288,345 -367,468 -116,194 -159,432 -94,684z"/>
   <path class="fil12" d="M16185 11994c-8,130 0,224 28,346 44,166 101,158 195,180 43,-36 79,-151 101,-223 14,-58 14,-245 -15,-295 -36,-22 -252,-22 -309,-8z"/>
   <path class="fil9" d="M16501 17445c137,-29 166,-94 224,-202 50,-86 86,-166 122,-281 94,-281 137,-396 -209,-468l-14 -43c-43,43 29,158 50,230 51,202 22,490 -93,663l-80 101z"/>
   <path class="fil6" d="M9964 11318c72,-22 245,-216 317,-259 65,-51 281,-195 367,-209l108 -159c-86,0 -259,8 -338,22 -101,14 -418,518 -454,605z"/>
   <path class="fil9" d="M16667 12621c94,-72 -22,-353 22,-439 21,64 43,165 50,237 14,65 22,195 65,223 93,-43 -15,-439 -43,-547 -22,-65 -58,-122 -36,-180l-87 36c0,79 43,173 29,231 -50,-22 -36,-36 -58,-87 -14,-29 -28,-50 -57,-57 -15,100 57,345 29,424 -44,-21 -15,-72 -51,-115l-72 187c43,8 202,36 209,87z"/>
   <path class="fil3" d="M16660 11699c115,144 101,87 144,209 14,29 21,50 29,86 28,137 50,267 72,404 21,136 36,280 50,417 7,72 14,151 22,223 0,15 7,87 14,101 14,43 36,58 65,22 21,-15 14,21 14,-43l-36 -375c-29,-237 -86,-583 -144,-799 -43,-130 -21,-202 -230,-245z"/>
   <path class="fil9" d="M10648 12131c0,-7 15,-7 22,-14 36,-7 0,0 14,0 15,0 0,-29 15,14 14,22 21,87 21,108l36 -7c43,58 58,72 137,36l266 -144c36,-14 101,-36 137,-58 -50,-57 -237,-108 -345,-100 -116,14 -252,79 -303,165z"/>
   <path class="fil6" d="M11879 12556c15,115 0,194 108,223 252,72 396,-273 411,-525 -94,86 -108,388 -519,302z"/>
   <path class="fil8" d="M19172 24651c58,101 245,187 317,461 43,-187 29,-338 -72,-461 -36,-36 -281,-194 -353,-201l-21 7c43,50 93,115 129,194z"/>
   <path class="fil8" d="M12621 8603l-324 339c-22,72 -58,108 -79,201 21,22 -22,15 21,8 79,-36 598,-584 619,-641 -21,-22 -7,-15 -50,0 -22,7 -43,21 -65,29 -43,21 -72,50 -122,64z"/>
   <path class="fil8" d="M12059 13182c137,123 331,-36 382,-144 65,-144 57,-374 43,-540 -58,116 7,144 -144,411 -36,57 -65,108 -122,158 -51,43 -130,79 -159,115z"/>
   <path class="fil13" d="M13521 10310c-223,79 -94,374 108,309 216,-64 101,-381 -108,-309z"/>
   <path class="fil6" d="M12002 13103c194,-29 388,-353 388,-569 -108,202 -165,360 -468,281 8,94 44,223 80,288z"/>
   <path class="fil6" d="M12621 8603c50,-14 79,-43 122,-64 22,-8 43,-22 65,-29 43,-15 29,-22 50,0l108 -115c130,-152 231,-260 195,-454l-468 576c-36,43 -51,36 -72,86z"/>
   <path class="fil4" d="M17322 15501c-115,108 -446,165 -655,194l7 36c137,29 238,-29 353,-29 115,0 223,51 324,65 -22,-72 -79,-79 -144,-108 22,-29 50,-36 86,-50 58,-29 209,-116 231,-166 -58,-43 -144,43 -202,58z"/>
   <path class="fil8" d="M11894 12218c43,93 230,158 331,50 50,-58 151,-230 137,-331 -51,-22 -36,7 -94,79 -144,158 -194,166 -338,187 -36,7 -22,0 -36,15z"/>
   <path class="fil8" d="M11843 12261c0,93 7,216 72,245 79,43 180,14 245,-29 79,-51 202,-252 223,-389l-21 43c-58,130 -144,324 -375,223 -108,-43 -72,-57 -144,-93z"/>
   <path class="fil4" d="M13521 10310c209,-72 324,245 108,309 -202,65 -331,-230 -108,-309zm14 -51c-309,87 -180,483 101,404 94,-22 180,-130 144,-252 -22,-101 -130,-180 -245,-152z"/>
   <path class="fil4" d="M17293 14493l22 21c58,22 72,58 130,51 57,0 237,-51 302,-72 57,-15 93,-22 122,-65 -65,-43 -252,58 -576,7l0 58z"/>
   <path class="fil6" d="M8330 11498c43,-44 72,-101 108,-152l331 -403c-151,15 -166,29 -281,224 -43,71 -137,237 -158,331z"/>
   <path class="fil4" d="M10843 12902c-15,-87 -29,-152 -80,-209 -28,-36 -108,-115 -172,-115 -15,79 129,72 180,244 28,108 14,281 72,368 28,-29 0,-252 0,-288z"/>
   <path class="fil6" d="M12765 6393c50,15 65,79 36,137 43,-22 180,-101 216,-130l-7 -122c-87,22 -195,58 -245,115z"/>
   <path class="fil9" d="M11238 12160c65,7 101,50 94,115 79,-21 101,-14 173,7 -22,-86 -72,-194 -180,-172l-87 50z"/>
  </g>
 </g>
</svg>
