<?xml version="1.0" encoding="UTF-8"?>
<!DOCTYPE svg PUBLIC "-//W3C//DTD SVG 1.1//EN" "http://www.w3.org/Graphics/SVG/1.1/DTD/svg11.dtd">
<!-- Creator: CorelDRAW Home & Student X7 -->
<svg xmlns="http://www.w3.org/2000/svg" xml:space="preserve" width="254mm" height="254mm" version="1.1" style="shape-rendering:geometricPrecision; text-rendering:geometricPrecision; image-rendering:optimizeQuality; fill-rule:evenodd; clip-rule:evenodd"
viewBox="0 0 25400 25400"
 xmlns:xlink="http://www.w3.org/1999/xlink">
 <defs>
  <style type="text/css">
   <![CDATA[
    .fil4 {fill:#020202}
    .fil0 {fill:#03BDB8}
    .fil2 {fill:#474747}
    .fil3 {fill:#724241}
    .fil5 {fill:#737373}
    .fil7 {fill:#964C4B}
    .fil6 {fill:#F1BC07}
    .fil1 {fill:#F1F008}
    .fil8 {fill:#FDFEFD}
   ]]>
  </style>
 </defs>
 <g id="Layer_x0020_1">
  <metadata id="CorelCorpID_0Corel-Layer"/>
  <rect class="fil0" width="25400" height="25400"/>
  <path class="fil1" d="M0 1742l0 510c63,31 124,76 189,115 356,218 867,629 1250,874 473,303 284,190 781,434l710 347c47,22 69,18 79,70 -22,5 -380,-89 -455,-103 -168,-31 -294,-72 -442,-126 -268,-99 -544,-238 -781,-366 -122,-66 -251,-154 -349,-230 -106,-82 -892,-690 -982,-727l0 373c140,117 286,254 436,378 393,325 458,393 948,675 175,101 329,200 518,289 543,258 1151,372 1678,753 48,35 465,354 294,421 -40,-26 0,-8 -39,-51 -18,-19 -28,-23 -46,-34 -34,-21 -64,-43 -97,-62 -453,-269 -688,-317 -1175,-461 -576,-170 -1236,-207 -1614,-340 -160,-56 -322,-118 -464,-195 -86,-47 -349,-190 -439,-208l0 405c136,57 489,271 710,374 326,151 1247,387 1666,492 149,37 291,65 435,109 62,20 337,124 355,176 -28,23 -367,-21 -429,-25 -150,-10 -299,-17 -450,-26 -283,-17 -569,-51 -844,-98 -774,-132 -974,-325 -1443,-441l0 922c90,82 192,183 305,260 952,646 1746,725 2862,798 77,5 197,-12 216,54 -117,66 -722,130 -907,123 -683,-26 -1107,-122 -1747,-320 -381,-118 -463,-195 -729,-298l0 799c11,11 4,2 14,20 44,78 -13,17 92,137 43,49 78,79 133,128l290 232c224,173 396,280 651,395 220,100 508,231 763,281 376,73 392,94 704,217 85,34 64,27 69,57 -80,62 -671,9 -800,-7 -411,-51 -994,-185 -1367,-337 -265,-108 -342,-186 -549,-308l0 372c32,30 85,105 160,177 65,63 109,104 182,159 126,96 258,177 407,263 259,148 624,310 941,399 723,202 1122,145 1792,228 102,12 197,28 290,53 56,15 215,47 224,102 -38,17 -230,12 -297,19 -612,66 -1125,336 -1734,448 -373,69 -702,61 -1051,198 -285,112 -611,264 -797,436 65,1 175,-22 247,-30 629,-66 1261,54 1892,18 350,-20 1132,-125 1477,-217l386 -105c51,-10 20,-13 52,6 -15,41 -29,36 -76,51 -197,66 -413,167 -636,240 -852,277 -1769,307 -2669,323l217 83c75,26 145,52 218,78 842,300 1703,285 2563,60 196,-52 816,-208 996,-168 -12,46 4,25 -55,41l-175 64c-353,130 -408,214 -661,327 -157,70 -354,94 -538,119 -930,130 -963,475 -1492,489 -213,5 -416,4 -614,-48 -176,-46 -328,-137 -479,-181 45,73 322,257 435,327 347,215 765,338 1187,269 470,-77 703,-212 1101,-409 408,-203 780,-206 1129,-371 87,-41 170,-88 234,-141 42,-35 62,-53 103,-90 35,-31 57,-73 106,-73 -2,68 -98,122 -135,157 -339,321 -868,314 -1280,493 -36,15 -66,31 -101,46 -33,16 -73,30 -98,54 308,-41 430,-127 776,-71 120,19 166,7 283,8 186,0 372,48 558,19 259,-41 359,-173 421,-179 -15,82 -101,111 -179,147 -455,212 -844,-102 -1308,192 -251,159 -479,352 -672,577 -75,86 -207,221 -348,277 -179,71 -336,58 -511,113 -229,72 -292,191 -374,239 69,-2 322,-89 423,-111 322,-69 657,-70 986,-94 744,-54 998,-617 2167,-508 -8,56 -36,53 -71,107 -107,163 -249,292 -395,423 -703,629 -1147,350 -1756,504 -165,42 -304,131 -457,190 -577,226 -656,6 -1062,-36 252,89 483,263 719,320 752,180 1208,-103 1806,-185 278,-38 570,-34 849,8 60,9 70,2 82,46 -19,17 -433,97 -499,118 -272,87 -632,300 -858,347 -100,21 -409,43 -491,120 281,-1 471,-33 760,11 854,129 821,-114 1391,-99 119,3 629,92 557,204 -23,23 9,6 -25,14 -26,7 -55,-6 -86,-13 -239,-52 -668,-25 -891,23 -427,91 -748,328 -1070,566 -328,242 -854,382 -991,639 52,-7 143,-50 199,-69 628,-220 1130,-159 1572,-267l834 -222c131,-41 258,-93 373,-150 142,-71 263,-193 332,-185 16,71 -53,96 -93,128 -122,98 -236,184 -376,272 -622,390 -1696,486 -1878,730 101,0 223,-22 334,-26 114,-4 221,1 334,1 235,1 459,11 690,-20 288,-40 577,-124 823,-257 48,-26 191,-128 225,-128 -7,74 -169,204 -216,251 -159,154 -320,285 -470,438 -151,155 -291,312 -426,483 -208,263 -388,509 -506,846 44,-87 336,-398 397,-455 286,-268 652,-520 993,-711 95,-54 187,-99 277,-155 51,-31 219,-153 265,-147 -2,40 -80,126 -105,159l-373 434c-155,167 -382,407 -468,605 212,-185 408,-403 608,-601 159,-158 306,-292 427,-482 33,-53 87,-128 114,-187 -37,-75 -90,-147 -29,-240 61,-94 112,-72 207,-33 153,-268 338,-535 502,-802 51,-83 110,-187 136,-295 8,-35 8,-65 19,-96 7,-22 17,-43 26,-75 50,-172 80,-352 123,-526 58,-235 118,-474 133,-729 31,-500 122,-1123 47,-1611 -76,-499 -145,-1026 -191,-1534 -47,-519 -85,-1057 -163,-1563 -37,-243 -188,-521 -123,-698 32,-88 135,-231 147,-288 27,-131 -131,-140 -79,-327 82,-296 221,-294 95,-660 -81,-234 158,-358 121,-449 -90,-217 -125,-277 86,-427 151,-108 21,-143 -11,-274 -33,-134 -17,-258 56,-340 70,-77 180,-97 268,-165 11,-106 -68,-178 32,-262 75,-62 211,-3 307,-33 44,-151 -74,-191 148,-330 133,-82 219,-73 387,-67 44,-203 80,-119 185,-112 32,-85 10,-229 59,-281 69,-74 192,-18 290,-40 76,-93 21,-282 201,-320 124,-27 317,53 449,63 -2,-110 -20,-146 44,-216 75,-16 128,21 157,7 61,-88 -16,-225 165,-267 207,-48 197,51 351,42 41,-73 65,-101 180,-78 -56,-217 -57,-417 -96,-637 -146,-821 -579,-1237 -1231,-1654 -74,-48 -139,-97 -215,-148 -216,-148 -429,-283 -663,-417 -97,-55 -375,-222 -428,-276 35,292 777,955 1040,1244 260,284 525,686 355,1100 -42,-14 -71,-58 -105,-89 -82,-73 -555,-308 -788,-485 -79,-60 -130,-101 -201,-173 -48,-47 -121,-141 -164,-200 -310,-419 -538,-894 -919,-1274 -60,-60 -128,-111 -193,-170 -69,-63 -128,-106 -199,-165 -107,-89 -371,-238 -429,-294l-3493 0c32,49 69,75 115,125 111,121 112,188 336,358 140,107 148,101 358,105 86,2 105,50 149,92 48,48 87,55 133,92 -17,48 -87,78 -149,87 -346,48 -639,-124 -893,-293 -85,-56 -198,-125 -332,-132 -270,-12 -583,151 -825,62 -179,-65 -374,-307 -442,-496l-1752 0c57,158 249,422 341,532l396 468c72,80 133,161 199,233 42,46 58,66 102,113 32,33 63,82 97,119l203 229c78,79 142,142 216,215l908 831c230,190 608,508 846,665 93,61 129,60 105,102 -28,27 -18,22 -66,7 -115,-37 -322,-138 -424,-191 -158,-82 -295,-170 -435,-258 -149,-94 -278,-186 -420,-284 -142,-99 -277,-182 -417,-276 -412,-277 -438,-298 -897,-500 -269,-117 -802,-225 -1119,-263z"/>
  <path class="fil2" d="M6977 21206c-94,-40 -301,-97 -323,-134 38,-27 109,10 183,35 139,47 266,107 398,171 72,35 54,26 59,55 -44,19 -256,-100 -317,-127zm183 -830c-92,-31 -167,-31 -186,-65 29,-22 8,-17 56,-13l237 73c71,26 66,22 72,54 -43,18 -130,-33 -179,-49zm1696 8c59,54 346,315 346,380 -55,-6 -65,-40 -109,-84l-271 -274c-61,-57 -127,-114 -193,-171 -64,-56 -180,-122 -184,-170 75,-9 346,261 411,319zm3043 5016l8444 0c-90,-389 -549,-1303 -727,-1645 -133,-253 -288,-523 -436,-757 -282,-445 -147,-353 -471,-415 -397,-76 -801,-178 -1184,-304 -157,-51 -298,-85 -461,-130 -159,-44 -301,-92 -456,-135 -159,-44 -307,-73 -461,-129 -149,-55 -290,-97 -445,-146 -142,-45 -292,-104 -436,-155 -144,-51 -273,-117 -422,-168 -239,-81 -637,-232 -858,-335 -1169,-543 -2408,-1151 -3498,-1841 -123,-78 -242,-152 -365,-226 -429,-260 -834,-538 -1237,-830 -54,-39 -122,-95 -173,-120 -262,162 -265,191 -488,385 -294,254 -412,400 -654,686l-549 667c-64,77 -157,191 -208,282 36,27 61,24 139,45 307,81 614,197 906,320 168,71 319,149 477,227 146,72 313,193 459,250 -31,-88 -98,-124 -174,-171 -78,-48 -195,-87 -188,-144 120,-4 703,437 790,508 70,57 661,557 642,651 -38,0 -51,-34 -85,-61 -198,-152 -369,-307 -578,-456 -234,-169 -477,-307 -728,-454 -358,-209 -1281,-614 -1692,-667 -60,52 -160,210 -213,285 -63,90 -140,212 -191,303 10,7 599,147 677,170 520,153 1028,350 1506,595 50,26 250,106 262,154 -51,21 -226,-87 -287,-118 -482,-246 -992,-445 -1516,-596 -171,-49 -507,-145 -681,-158 -64,119 -188,293 -203,438 151,32 323,88 472,132 341,100 515,197 797,384 92,61 380,172 393,192 -46,51 -339,-98 -401,-127 -129,-62 -264,-121 -402,-178 -196,-80 -691,-245 -894,-264 -23,171 -80,174 -206,273 -90,72 -185,129 -228,239 385,21 688,5 1064,84 154,33 316,72 465,115 344,97 1267,528 1580,715 280,167 456,258 759,388 192,82 206,82 343,225 95,101 182,206 287,292l445 419c104,96 173,191 286,282 30,24 61,42 84,63 124,115 231,242 346,370 57,64 234,257 256,315 37,-49 -3,-151 -14,-205 -87,-430 -236,-860 -419,-1251 -153,-330 -314,-626 -520,-911 -31,-42 -212,-220 -204,-255 44,-17 48,16 81,48 32,31 41,33 68,69 40,52 77,95 120,152 42,56 86,81 134,139 475,583 979,1743 1071,2490z"/>
  <path class="fil1" d="M25400 3881l0 -3179c-77,36 -243,190 -293,243 -312,336 -384,556 -556,1023 -209,569 -322,753 -629,1212 -91,135 -54,143 -112,153 -7,-14 -5,-6 -6,-26 -1,-23 -1,-3 2,-26 42,-269 33,-668 51,-964 53,-901 335,-1681 879,-2317l-430 0c-89,106 -193,180 -278,287 -428,536 -655,919 -867,1632 -221,746 -165,1415 -466,2215 -19,53 -37,88 -61,131 -155,285 -87,-166 -94,-323 -5,-128 -13,-265 -36,-387 -94,-505 -212,-980 -98,-1494 56,-254 144,-406 240,-602 -127,63 -290,319 -354,454 -341,722 -181,1847 -352,2132 -79,-10 -73,-83 -88,-167 -40,-216 -100,-417 -125,-637 -116,-1032 366,-1876 343,-2663 -71,88 -153,266 -220,371 -232,359 -479,703 -677,1094 -265,524 -459,1195 -513,1865 -30,381 -15,753 4,1136 3,74 44,523 -28,540 -61,14 -136,-226 -229,-364 -81,-119 -196,-187 -266,-325 -224,-443 87,-1215 -84,-1607 -263,319 -494,699 -598,1222 -57,288 -43,557 -26,851 10,175 49,744 -42,853 -55,-20 -97,-191 -121,-243 -156,-340 -224,-415 -248,-846 -24,-455 117,-875 102,-1340 -42,34 -350,676 -398,776 -134,281 -241,525 -333,849 -98,345 -118,691 -94,1065 12,186 39,356 45,545 5,143 -1,279 -21,419 -10,64 -10,91 -68,94 -15,-26 -28,-149 -70,-227 -140,-263 -209,-228 -218,-705 -133,204 -131,491 -151,767 -14,200 -35,410 -87,604 -27,102 -18,90 5,194 46,212 162,584 114,799 -40,181 -83,372 -145,547 -76,214 -70,145 125,480 130,226 415,587 593,804 232,285 295,341 68,581 -66,70 -193,146 -278,189 -90,46 -218,116 -294,169 29,130 144,245 146,386 1,100 -22,42 17,140 47,119 14,193 -46,263 -60,70 -119,114 -171,181 191,15 459,-78 646,-138 6,-2 35,-10 42,-14l33 -23c-55,-47 -128,-87 -187,-119 -38,-21 -40,-16 -40,-64 94,-14 379,32 499,35 132,4 408,29 514,-23 -81,-88 -164,-125 -248,-231 -42,-52 -190,-236 -101,-343 22,4 66,49 100,72 115,74 284,135 423,153 -48,-73 -100,-125 -153,-208 -32,-51 -70,-112 -90,-172 -42,-126 136,-47 204,-33 90,18 143,23 239,21 -29,-96 -347,-380 -436,-471 -19,-19 -26,-22 -48,-43 -206,-191 -374,-397 -521,-660 -43,-76 -239,-423 -187,-512 28,9 122,154 149,187 127,154 311,256 462,389 40,36 52,52 89,77 -29,-78 -646,-753 -323,-559 267,161 506,165 679,468 100,175 185,335 336,420 -30,-153 -48,-305 -26,-471 8,-63 8,-106 63,-113 22,25 46,155 60,197 66,195 184,363 302,517 80,106 164,182 235,309l186 362c2,-3 4,-10 5,-9l11 -26c28,-90 36,-190 59,-281 27,-104 57,-194 92,-294 64,-182 154,-382 241,-542 95,-174 203,-318 309,-464 217,-296 454,-590 683,-874l544 -625c67,-73 118,-136 177,-210 446,-555 598,-769 918,-1422 84,-173 172,-343 250,-523 79,-184 145,-374 224,-559 319,-755 480,-1139 948,-1779 30,-41 52,-72 81,-112l94 -114z"/>
  <path class="fil2" d="M4147 21844c39,-75 445,-169 496,-125 -14,32 -5,24 -55,33l-207 33c-46,10 -80,20 -121,37 -95,38 -75,52 -113,22zm-2669 3556l7721 0c-26,-54 -103,-137 -141,-186 -51,-67 -106,-99 -159,-159 -65,-73 -181,-161 -268,-220 -34,-23 -68,-37 -76,-82 48,-1 78,35 112,57 38,26 62,48 98,72 66,46 129,105 184,157 87,84 239,244 305,361l2225 0c-62,-164 -166,-358 -243,-525 -105,-228 -141,-282 -332,-439 -39,-32 -69,-52 -109,-84l-958 -781c-450,-351 -629,-508 -1136,-794 -166,-94 -334,-170 -518,-255 -344,-159 -717,-361 -1094,-450 -629,-150 -719,-154 -1375,-170 -641,-15 -1577,263 -2182,521 -55,23 -215,118 -261,92 13,-39 -12,-11 35,-35 211,-109 438,-190 662,-268 510,-177 880,-269 1403,-337 173,-23 203,33 281,-81 16,-24 34,-53 51,-74 41,-48 215,-182 273,-226 75,-57 69,-50 83,-165 -134,-18 -367,-76 -493,-79 -97,-2 -381,132 -420,117 7,-48 54,-52 101,-69l351 -126c83,-31 153,-74 233,-48 72,23 187,53 261,66 37,-186 156,-326 199,-437l-442 -64c8,-33 -18,-32 41,-33l182 22c76,9 185,39 255,31 73,-94 131,-203 196,-304 62,-96 157,-191 206,-291 -60,-9 -119,-24 -181,-36 -50,-9 -142,-5 -159,-51 51,-35 294,43 370,48 78,-87 143,-198 217,-286 78,-93 146,-181 221,-267l338 -411c339,-406 462,-530 851,-865 73,-62 176,-168 287,-203 -17,-32 1,-4 -18,-24 -2,-3 -10,-10 -13,-12 0,0 -26,-19 -26,-19 -255,-178 -967,-739 -1152,-938 -54,-58 -125,-119 -192,-171 -54,-42 -141,-164 -184,-180 -80,75 -38,94 -81,168 -27,45 -77,111 -90,151 36,23 180,148 202,180 -44,42 -81,-17 -115,-51 -21,-20 -93,-86 -120,-97l-211 210c-204,205 -402,416 -616,611 -163,147 -305,321 -406,412l-610 616c-66,71 -113,156 -184,226 -72,71 -139,125 -201,207 -177,235 -363,455 -558,670 -115,127 -571,587 -723,708 -114,91 -214,200 -319,295 -72,66 -144,126 -211,197 -251,263 -495,619 -711,925 -115,164 -219,328 -329,489 -178,261 -324,475 -434,793 -49,142 -17,182 25,323 46,157 166,466 251,569 24,-26 40,-71 56,-106 107,-240 244,-512 399,-714 173,-227 114,-162 290,-346 58,-61 253,-301 324,-305 -8,55 -14,40 -52,77l-226 250c-204,252 -381,462 -525,782 -95,213 -202,449 -280,674 -95,275 -105,496 -155,787z"/>
  <path class="fil2" d="M11246 3758c-175,23 -254,-132 -427,-4 -87,65 -10,135 -50,211 -39,72 -139,-9 -210,16 -8,70 26,118 -2,179 -90,108 -405,-101 -547,-12 -87,54 -33,170 -83,258 -51,87 -191,36 -298,47 -73,97 -56,82 -58,216 -3,182 -150,64 -182,102 -25,74 21,60 -6,103 -26,40 -66,12 -106,5 -84,-15 -175,-2 -248,27 -284,115 -172,299 -206,347 -54,86 -227,-5 -311,43 -93,53 22,204 -40,268 -47,49 -399,142 -320,382 27,82 90,149 91,257 1,209 -341,157 -191,433 71,132 61,140 -21,247 -189,244 -2,282 -9,546 -4,172 -216,420 -151,547 35,69 126,131 85,253 -74,222 -213,124 -117,528 17,71 45,235 79,284 100,-33 230,-102 329,-147 339,-153 634,-308 1000,-465 475,-205 932,-349 1469,-485 525,-134 1017,-279 1543,-409 429,-106 752,-195 1187,-281 137,-27 281,-40 420,-69 -31,-81 -90,-75 16,-175 51,-48 101,-80 174,-111 247,-104 238,-477 621,-514 233,-23 270,29 486,-82 288,-149 170,-70 468,-78 428,-13 921,-323 1391,-27 30,19 -1,3 34,19 1,-77 14,-181 -28,-242 -33,-47 -85,-87 -98,-162 -34,-181 112,-260 95,-417 -59,-47 -141,-32 -208,-107 -65,-74 -20,-194 -46,-282 -64,-94 -129,4 -124,-225 3,-111 19,-218 15,-330 -84,-10 -294,215 -252,-38 36,-217 48,-216 -52,-324 -25,-27 -40,-43 -77,-60 -57,-28 -44,-10 -72,-76 -22,-50 -64,-156 -95,-189 -78,-11 -112,32 -197,15 -58,-37 13,-149 -83,-201l-139 -65c-65,-27 -146,-51 -223,-49 -71,65 -71,178 -181,177 -55,-52 -30,-111 -69,-165 -134,42 -157,147 -232,38 -265,-392 -259,155 -778,-85 -107,-49 -196,-76 -295,-10 -159,107 -167,-14 -249,-37 -59,-16 -110,10 -168,-13 -67,-26 -108,-264 -367,-212 -120,25 -132,119 -198,178 -78,69 -203,-12 -274,-48 -110,-55 -182,-46 -243,54 -75,126 -65,158 -224,83 -113,-54 -156,63 -211,129 -120,143 -197,-6 -290,26 -69,23 -66,201 -211,149 -175,-62 -112,-100 -236,29z"/>
  <path class="fil3" d="M8302 12902l1389 17c54,2 46,-5 55,31 -62,38 -1255,-18 -1450,-6l0 115 1098 20c142,0 114,-6 129,30l-1235 -7 5 104 703 12c43,1 84,1 126,0 51,0 72,-10 94,27l-231 15c-79,0 -159,-2 -238,-4 -146,-5 -319,-12 -463,-7 -11,127 -9,256 -22,384 -37,377 -66,683 -159,1057l-167 645c1,239 104,444 202,609 112,188 235,279 419,399 81,54 171,96 260,149 523,310 832,381 1403,608 96,38 208,68 300,109 89,41 194,79 291,117 196,79 366,162 566,242 193,77 396,141 585,220 729,303 1714,563 2496,730l675 112 117 -1067c-5,-37 -45,-67 -64,-102 -64,-117 -4,-141 -190,-151 -234,-13 -177,-2 -250,-90 -78,-93 -164,16 -228,-113 -49,-101 25,-177 35,-276 -215,-132 -444,-43 -396,-419 -122,-31 -218,-79 -260,-206 -123,-370 -111,-183 -365,-317 -54,-29 -51,-97 -76,-151 -80,-175 -158,-128 -232,-222 -91,-114 44,-198 -195,-259 -146,-37 -152,-112 -197,-257 -48,-158 -97,-191 -176,-279l-240 -216c19,119 201,620 170,680 -52,-12 -44,-63 -78,-179 -20,-66 -36,-131 -56,-195 -14,-49 -122,-351 -138,-370 -48,54 -23,79 -1,147 23,74 130,402 114,439 -44,-3 -26,13 -56,-90 -17,-59 -77,-283 -105,-321 -13,214 131,664 192,871l704 2407c3,26 1,13 -1,28l-7 18c-39,-13 -19,15 -52,-98l-99 -335c-43,-144 -84,-293 -127,-439l-777 -2654c-43,-150 -218,-783 -271,-876 -68,-117 -195,-217 -129,-407 20,-58 88,-156 92,-194 8,-64 -72,-131 -107,-175 -170,-212 -339,-416 -517,-630l-384 -469c-40,-52 -97,-107 -124,-160 -60,30 -184,242 -228,314 -68,114 -113,227 -172,351 -89,190 -271,541 -388,662l-1569 -30 0 102z"/>
  <path class="fil2" d="M18006 12168c24,-94 -15,-150 -49,-226 -16,-34 -75,-176 -96,-189 -72,-44 -231,53 -515,47 -235,-5 -281,38 -486,74 -188,33 -350,-18 -528,50 -380,144 -285,30 -486,93l-407 173c-147,74 -170,182 -363,218 -153,29 -187,195 -382,332 -31,22 -58,46 -85,63 -213,138 -339,-140 -464,-310 -154,-210 -279,-102 -580,-579 -60,-96 -142,-15 -209,-86 -55,-58 -11,-150 -73,-211 -56,-54 -115,-68 -184,-111 -108,-69 -67,-50 -130,-154 -77,-125 -172,-216 -170,-413 1,-177 57,-330 56,-519l-356 146c102,339 -73,603 -162,908 -63,218 -54,241 -162,416l-306 570c-46,81 -71,102 -60,213 6,67 33,202 27,265 -7,62 -66,127 -91,193 -65,178 62,288 131,405 153,261 337,477 429,718 67,175 148,216 259,320 58,55 93,91 146,149 61,67 77,61 125,160 32,66 44,141 71,212 78,202 263,51 316,263 30,117 5,121 105,180 113,67 150,102 192,250 16,56 12,55 63,74 211,77 252,23 331,249 29,84 31,146 95,189 56,38 164,59 201,80 -7,126 -55,226 76,301 76,43 235,57 292,118 74,79 -90,197 -9,303 41,52 100,17 161,44 35,15 70,73 93,108 148,15 327,-17 376,116 23,64 33,115 106,132 152,37 324,-102 394,-7 46,61 25,103 126,112 71,6 159,-28 206,-13 63,19 91,83 166,45 52,-26 101,-88 142,-97 48,-12 141,11 215,-2 161,-27 189,-125 372,-79 77,19 123,10 171,-47 47,-55 50,-84 69,-113 66,-97 285,13 447,-87 166,-103 54,-203 139,-337 46,-73 59,-73 117,-122 247,-206 493,-853 501,-1170 2,-85 -26,-120 -48,-191 -21,-68 -10,-143 -32,-208 -47,-144 -207,-110 -261,-214 -85,-160 -19,-195 -194,-226l-44 -17c-25,-32 1,-119 7,-170 9,-91 -24,-85 -75,-120 -15,-92 11,-201 12,-296 -54,28 -68,52 -151,77 -226,70 -375,-15 -544,-61 -76,80 -47,145 -203,138 -54,-2 -106,-11 -160,-10 -60,0 -109,8 -170,2 -137,-13 -299,-185 -438,-243 -95,-39 -201,-33 -257,-95 -50,-54 -88,-132 -144,-197 -82,-94 -127,21 -219,-121 -48,-75 -67,-181 -103,-235 -93,62 -136,18 -186,-56 -27,-40 -39,-46 -56,-92 -178,-466 19,-363 123,-466 37,-36 68,-136 110,-186 47,-57 110,-73 192,-104 75,-27 119,-72 201,-93 69,-19 189,-24 265,-26 433,-14 171,1 500,-107 77,-25 167,-28 249,-47 847,-187 690,86 1010,-34 129,-48 170,-1 253,-19z"/>
  <path class="fil3" d="M15099 12155c42,-98 813,-353 871,-330 -3,37 29,24 -98,59 -258,72 -313,86 -567,195 -117,50 -167,105 -206,76zm2956 -830c-12,46 -92,79 -128,105 -48,34 -83,58 -125,90 -51,40 -74,81 -148,84 -60,3 -172,10 -183,-42 -12,-55 68,-83 118,-108l311 -131c61,-21 117,-50 155,2zm-1936 -1181c34,-15 152,-27 220,-53 136,-53 466,-263 519,-243 12,28 9,22 -16,52 -51,62 -67,84 -140,134 -36,25 -163,112 -207,109 -30,-2 -9,3 -28,-10 32,-42 228,-119 286,-202 -91,35 -206,109 -305,156 -77,37 -164,74 -255,86 -96,13 -72,-18 -74,-29zm-1042 -1208c-13,-53 -5,-61 26,-92 124,-123 318,-277 489,-329 226,-68 613,9 821,75 258,81 433,166 643,288 291,169 -45,259 -35,422 3,45 6,49 -40,55 -28,4 -89,0 -121,0 12,180 -29,262 -66,419 48,-4 64,-19 94,7 -14,32 -25,31 -75,37 -189,21 -798,-127 -981,-182 -55,-17 -109,-36 -165,-51 -50,-13 -137,-10 -163,-54 48,-69 623,-156 689,-165 128,-18 249,-30 377,-41 136,-12 281,-1 409,-14 -13,-75 -140,-73 -212,-77 -137,-8 -551,19 -694,47 -37,7 -56,16 -88,11 -27,-5 -9,2 -26,-11 20,-35 -15,-11 41,-27 185,-55 645,-56 824,-63 -66,-70 -667,-313 -813,-358 -297,-91 -406,-64 -730,30 -59,17 -164,65 -204,73zm-1209 -1836c44,93 274,186 257,477 -6,104 -55,196 -64,306 -10,117 0,245 -1,364 -1,334 -37,341 -232,492 -91,70 -320,262 -365,356 116,8 757,18 804,49 -8,51 -19,36 -96,86 -43,27 -68,43 -112,70l-451 287c-74,34 -457,136 -569,169 -70,20 -82,11 -107,74 -49,125 -6,579 -61,872 -20,109 -43,224 -21,338 20,108 79,173 128,247 79,120 62,104 178,185 58,41 177,103 198,177 12,43 6,118 34,148 33,35 100,16 147,33 72,27 164,255 349,401 73,57 153,96 223,153 127,102 160,288 339,399 71,45 131,-6 239,-86 189,-141 195,-295 403,-334 115,-22 155,-88 230,-146 72,-55 406,-203 502,-236 129,-45 214,-7 328,-37 93,-24 183,-78 281,-94 273,-42 144,50 661,-76 142,-34 207,-12 347,-17 138,-4 207,-42 319,-56 177,-20 27,54 285,-90 81,-45 150,-95 229,-146 80,-52 144,-93 216,-147 56,-43 132,-144 78,-256 -44,-89 -390,-492 -485,-617 -205,-267 -265,-368 -430,-683 -101,-193 -50,-91 75,-535 74,-264 129,-317 65,-628 -108,-517 -276,-1261 -477,-1750 -32,-79 -189,-479 -220,-518l-87 -94c-94,-88 -302,-117 -431,-121 -331,-11 -666,147 -955,152 -120,3 -227,-33 -335,19 -88,41 -141,85 -249,115 -244,67 -356,-54 -599,139 -78,62 -99,124 -158,217 -50,78 -101,133 -197,178 -93,43 -177,87 -213,164z"/>
  <path class="fil4" d="M703 25083c-11,-190 261,-456 393,-563 38,-31 143,-128 178,-142l9 363 -269 185c-66,48 -208,162 -311,157zm641 181c-23,-174 -53,-1525 -13,-1604 45,143 82,264 142,403 212,491 183,69 -21,767l-108 434zm21018 -1615c183,34 252,375 -103,564 -223,118 -609,114 -742,-53 169,10 310,22 447,-61 64,-39 102,-71 139,-133 88,-145 -45,-272 152,-295 26,131 -31,88 67,184 -6,90 -100,203 -173,237 -50,23 -68,9 -75,58 96,28 204,-102 240,-155 82,-119 68,-199 48,-346zm-1540 -31c-47,-44 -128,-172 -168,-242 -81,-141 -65,-174 -3,-306l81 20c-70,227 -41,171 18,258 7,9 68,244 72,270zm-1242 -28c-94,-137 -113,-216 -61,-366 36,-106 48,-34 111,-130 26,-41 115,-68 167,-81 -18,165 -140,462 -217,577zm3266 -805c36,64 74,98 100,196 56,208 19,442 -89,625 -20,34 -50,60 -65,84 2,-311 47,-337 -117,-597 -13,-21 -1,6 -12,-22l100 -77c45,73 82,143 96,244 9,58 -11,76 34,94 37,-67 -16,-137 -21,-283 -4,-105 -100,-185 -26,-264zm-3742 -3c341,6 210,95 263,212 33,74 95,21 103,134 5,62 -10,158 -18,222 -22,-7 -216,-343 -258,-412 -17,-29 -26,-44 -43,-70 -18,-28 -32,-62 -47,-86zm1066 -165l85 -48c125,283 -4,989 -159,1195 17,-305 36,-266 2,-614 -22,-219 -70,-339 -150,-509 99,8 93,-14 139,52 47,68 75,24 93,102 18,76 -5,342 17,376 41,-15 36,-38 36,-122 -1,-354 -48,-290 -63,-432zm-2984 -2317c317,65 1551,617 1836,755 204,99 726,362 783,512 62,165 -297,344 -482,471 -85,58 -192,98 -203,125 60,37 191,-72 237,-97 209,78 302,113 554,123 114,5 186,13 270,69 216,144 93,301 -114,342 -129,25 -181,-36 -249,-81 -97,-62 -149,-17 -247,-94 -34,-26 -115,-76 -163,-88 -10,-3 -27,-7 -39,-6l-29 9c-3,1 -7,2 -9,4 23,35 85,25 198,100 48,32 122,100 162,145 45,50 87,120 133,174 64,78 84,146 -26,193 -80,35 -115,75 -225,77 -117,1 -173,-22 -178,-133 -6,-109 -53,-136 -159,-151 -135,-19 -167,34 -208,-96 134,-4 273,8 295,-128 49,-306 -378,-245 -554,-287 -61,-15 -161,-181 -183,-230 141,51 267,215 342,166 -20,-40 -64,-36 -159,-106 -56,-41 -92,-65 -163,-97 -98,-45 -81,-41 -139,-123 -35,-49 -64,-91 -105,-146 27,2 333,71 379,99 123,76 230,204 287,204 -7,-38 -67,-95 -98,-120 -42,-33 -86,-68 -130,-97 -74,-50 -342,-179 -446,-213 -95,-31 -102,-7 -152,-75 -64,-86 -123,-165 -190,-253 -81,-108 -302,-347 -409,-477 -62,-76 -141,-175 -206,-238 -39,-38 -194,-199 -211,-232zm1045 -2265c93,16 290,115 384,155 262,113 833,402 1068,546 374,229 894,618 1266,891 151,111 454,383 567,502 155,162 354,352 454,625 128,353 -254,412 -537,475 -123,27 -293,89 -381,153 -90,64 -61,74 -109,163 -54,102 -117,79 -133,140 61,29 136,-75 163,-109 53,62 161,227 201,303 -32,91 -105,115 -122,147 61,49 125,-67 143,-103 28,19 25,19 45,49l106 166c105,158 -23,135 -34,239 68,-1 71,-57 112,-110 19,14 215,295 212,335 -7,69 -70,67 -59,123 51,0 74,-54 93,-98 126,21 567,2 694,-23 105,-22 208,-51 304,-4 213,103 104,442 -85,437 -94,-2 -143,-183 -417,-87 -177,62 -105,-59 -176,-138 -19,-22 -81,-68 -122,-47 17,60 61,24 98,83 28,44 14,94 56,137 46,48 108,50 192,183 22,36 43,79 69,112 106,134 232,182 193,345 -70,6 -101,-33 -219,-4 -92,22 -126,77 -174,94 -80,-26 -87,-40 -109,-125 -68,-251 5,-216 -272,-468 -328,-298 -393,-204 -659,-68 -99,50 -347,21 -383,-49 -65,-125 312,-302 412,-303 95,0 177,-6 214,42 71,95 68,37 163,87 45,24 90,97 144,102 5,-56 -40,-70 -76,-113 -30,-36 -62,-75 -93,-112l-556 -668c-42,4 -54,38 -148,47 -175,17 -292,-101 -487,51 -49,-226 242,-118 361,-260 28,-33 106,-133 31,-152 -16,-4 -25,-3 -41,-5 -218,-17 -283,-132 -280,-362 116,109 266,138 298,44 -58,-32 -118,75 -263,-75 -107,-111 -128,-95 -300,-70 23,-50 106,-121 176,-144 261,-87 242,246 710,-152 43,21 78,54 146,51 132,-6 67,26 149,35 3,-64 -17,-58 -65,-93 -681,-513 -761,-513 -1611,-888 -322,-141 -625,-243 -971,-358 -357,-119 -683,-193 -1077,-253 40,-37 217,-127 306,-223 77,-83 175,-210 225,-320 69,-152 77,-256 102,-433 23,-166 77,-303 102,-445zm-10724 -1363c95,38 224,154 309,208 276,174 577,308 852,454 62,34 109,46 177,85 230,131 467,210 731,314 123,48 235,111 359,163 364,150 786,268 1162,406 126,47 266,82 404,118 142,37 263,83 397,126 263,86 514,183 788,257 275,75 561,142 836,209 560,137 1116,275 1686,393 292,60 612,92 911,133 319,43 310,85 512,272 49,45 88,81 135,127l388 395c46,46 74,91 124,138l487 558c156,183 313,384 463,581 75,99 150,199 223,301 37,53 70,94 109,152 32,46 82,104 101,153 -136,-25 -270,-68 -406,-98 -350,-76 -501,-131 -824,-221 -136,-38 -275,-85 -399,-123 -70,-21 -134,-31 -206,-56 -65,-22 -130,-45 -196,-65 -121,-37 -278,-101 -400,-124 -393,-73 -1551,-609 -2080,-792 -155,-54 -1464,-656 -1616,-736 -227,-120 -456,-230 -684,-350l-994 -573c-113,-70 -214,-133 -322,-202 -394,-251 -1562,-1007 -1880,-1255 -173,-135 -524,-390 -663,-507l-449 -402c-8,-7 -11,-9 -18,-17 -14,-16 -5,-3 -17,-22zm-445 -132c-15,-82 49,-169 132,-130 66,31 162,187 274,295l380 336c66,52 139,130 233,199l246 185c97,62 416,318 580,431 594,412 1496,1000 2103,1362 393,235 701,405 1109,618 246,128 508,265 764,383 133,61 269,116 402,177 133,62 253,122 387,181l402 177c561,197 1092,450 1651,656 274,101 573,203 853,293 155,51 298,78 457,124 151,44 299,87 449,129 148,42 288,90 440,129 201,52 758,185 946,213 174,26 386,0 408,172 27,214 -252,112 -395,99 -116,-12 -812,-171 -941,-207 -160,-44 -295,-95 -440,-139 -149,-44 -299,-80 -446,-122 -152,-43 -301,-95 -448,-132 -248,-61 -650,-183 -888,-271 -137,-50 -282,-98 -420,-147 -144,-52 -265,-115 -414,-166 -284,-99 -562,-207 -837,-322 -147,-61 -241,-122 -384,-184 -537,-231 -1421,-678 -1922,-962 -522,-297 -936,-529 -1448,-848 -702,-437 -1576,-1023 -2207,-1541 -51,-42 -103,-89 -156,-128 -173,-127 -446,-392 -611,-547 -63,-60 -236,-189 -259,-313zm209 -151c81,-91 -29,96 173,-209 156,-236 326,-524 453,-774 22,53 42,221 74,308 45,125 208,406 300,483 133,112 60,77 230,170 169,92 330,188 500,282 259,143 1389,567 1687,676 190,70 361,154 550,234 189,79 388,142 579,216 918,360 1433,511 2411,735 65,15 820,175 905,173 54,-1 27,-19 65,-5 40,14 193,121 242,154 175,116 615,446 776,599 9,8 95,85 102,90l-660 -88c-411,-58 -868,-157 -1264,-260 -203,-52 -415,-92 -618,-143 -253,-63 -1023,-246 -1214,-308 -385,-127 -753,-262 -1149,-374 -385,-108 -780,-240 -1146,-375 -191,-70 -363,-141 -540,-221 -179,-80 -359,-144 -544,-218 -226,-90 -647,-346 -757,-378 -200,-58 -570,-302 -731,-417 -105,-74 -409,-244 -424,-350zm15166 -2377c288,-62 633,-123 881,52 -106,127 -670,-17 -881,-52zm-748 -135c106,-58 173,-62 269,-143 249,-210 329,-538 779,-405 186,55 433,171 557,273 186,154 273,461 164,571 -49,-59 -67,-108 -126,-154 -42,-33 -126,-65 -189,-85 -170,-53 -309,-24 -484,2 -441,65 -561,15 -970,-59zm-6322 -525c-87,-2 -130,171 -267,-257 -95,-298 96,-141 203,-348 54,-103 66,-169 199,-192 1,199 118,90 362,411 282,370 397,639 795,932 42,32 64,58 103,91 80,66 157,102 211,142l12 12c-45,155 -148,106 -423,105 -156,0 -260,-118 -367,-181 -366,-218 -219,46 -487,-331 -72,-102 -84,-33 -181,-78 -80,-42 -110,-246 -160,-306zm-7065 -552l1569 30c117,-121 299,-472 388,-662 59,-124 104,-237 172,-351 44,-72 168,-284 228,-314 27,53 84,108 124,160l384 469c178,214 347,418 517,630 35,44 115,111 107,175 -4,38 -72,136 -92,194 -66,190 61,290 129,407 53,93 228,726 271,876l777 2654c43,146 84,295 127,439l99 335c33,113 13,85 52,98l7 -18c2,-15 4,-2 1,-28l-704 -2407c-61,-207 -205,-657 -192,-871 28,38 88,262 105,321 30,103 12,87 56,90 16,-37 -91,-365 -114,-439 -22,-68 -47,-93 1,-147 16,19 124,321 138,370 20,64 36,129 56,195 34,116 26,167 78,179 31,-60 -151,-561 -170,-680l240 216c79,88 128,121 176,279 45,145 51,220 197,257 239,61 104,145 195,259 74,94 152,47 232,222 25,54 22,122 76,151 254,134 242,-53 365,317 42,127 138,175 260,206 -48,376 181,287 396,419 -10,99 -84,175 -35,276 64,129 150,20 228,113 73,88 16,77 250,90 186,10 126,34 190,151 19,35 59,65 64,102l-117 1067 -675 -112c-782,-167 -1767,-427 -2496,-730 -189,-79 -392,-143 -585,-220 -200,-80 -370,-163 -566,-242 -97,-38 -202,-76 -291,-117 -92,-41 -204,-71 -300,-109 -571,-227 -880,-298 -1403,-608 -89,-53 -179,-95 -260,-149 -184,-120 -307,-211 -419,-399 -98,-165 -201,-370 -202,-609l167 -645c93,-374 122,-680 159,-1057 13,-128 11,-257 22,-384 144,-5 317,2 463,7 79,2 159,4 238,4l231 -15c-22,-37 -43,-27 -94,-27 -42,1 -83,1 -126,0l-703 -12 -5 -104 1235 7c-15,-36 13,-30 -129,-30l-1098 -20 0 -115c195,-12 1388,44 1450,6 -9,-36 -1,-29 -55,-31l-1389 -17 0 -102zm7644 -172c331,-1 631,-41 957,-47 263,-5 655,25 883,112 23,156 -50,481 -76,643 -255,24 -312,48 -565,-26 -144,-41 -332,-104 -451,-174 -131,-78 -249,-163 -377,-248l-286 -190c-38,-27 -58,-36 -85,-70zm-160 178c-163,-155 -246,-123 -244,-243l313 61 370 255c342,240 579,399 1001,498 391,92 441,-103 595,109 118,163 4,415 -80,563 -137,242 -527,148 -741,42 -187,-92 -352,-267 -497,-378 -28,-22 -39,-32 -66,-58 -119,-118 -330,-421 -434,-566 -68,-96 -146,-216 -217,-283zm-204 -289c179,-71 60,-78 366,-96 178,-11 252,17 411,-49 155,-63 172,-69 354,-100 291,-50 487,-122 778,-35 274,81 200,-69 461,-28 52,8 49,2 70,42 27,52 55,115 27,175 -30,67 -170,200 -226,234 -343,-123 -740,-128 -1125,-113 -410,15 -411,57 -862,25 -56,-4 -206,-15 -254,-55zm-3723 -396c29,21 87,72 83,109l-50 94c-25,33 -5,9 -25,26l-159 -203 151 -26zm185 -68l-71 123 -61 -71 132 -52zm-1364 -591c23,-39 53,-65 77,-101 37,22 240,282 286,338l690 843c37,45 44,190 45,258 -127,-133 -414,-500 -555,-668l-543 -670zm971 913c-41,-52 -82,-101 -122,-151 -144,-177 -636,-761 -732,-901l51 -45c36,30 100,98 136,139 182,206 163,141 328,456 166,318 274,198 363,307l178 216 -73 125c-31,-18 -106,-117 -129,-146zm-2392 -1583c-54,32 -411,124 -500,148 -89,25 -165,75 -271,53 -94,-19 -128,-68 -149,-169 -53,-264 128,-276 319,-325 139,-36 363,-121 495,-137l106 430zm1933 -1616c198,-33 335,21 488,102 151,80 211,175 303,299 327,443 231,445 383,821 64,156 161,264 120,473 -30,152 -101,312 -148,456 -45,137 -81,344 -146,456l-89 150c-19,35 -82,75 -121,95 -533,272 -632,-224 -785,-438 -52,-73 -215,-241 -285,-317 -55,-58 -108,-82 -159,-147 -41,-52 -83,-110 -111,-185 -95,-259 -38,-808 17,-1088 50,-252 262,-633 533,-677zm6814 2992c-83,18 -124,-29 -253,19 -320,120 -163,-153 -1010,34 -82,19 -172,22 -249,47 -329,108 -67,93 -500,107 -76,2 -196,7 -265,26 -82,21 -126,66 -201,93 -82,31 -145,47 -192,104 -42,50 -73,150 -110,186 -104,103 -301,0 -123,466 17,46 29,52 56,92 50,74 93,118 186,56 36,54 55,160 103,235 92,142 137,27 219,121 56,65 94,143 144,197 56,62 162,56 257,95 139,58 301,230 438,243 61,6 110,-2 170,-2 54,-1 106,8 160,10 156,7 127,-58 203,-138 169,46 318,131 544,61 83,-25 97,-49 151,-77 -1,95 -27,204 -12,296 51,35 84,29 75,120 -6,51 -32,138 -7,170l44 17c175,31 109,66 194,226 54,104 214,70 261,214 22,65 11,140 32,208 22,71 50,106 48,191 -8,317 -254,964 -501,1170 -58,49 -71,49 -117,122 -85,134 27,234 -139,337 -162,100 -381,-10 -447,87 -19,29 -22,58 -69,113 -48,57 -94,66 -171,47 -183,-46 -211,52 -372,79 -74,13 -167,-10 -215,2 -41,9 -90,71 -142,97 -75,38 -103,-26 -166,-45 -47,-15 -135,19 -206,13 -101,-9 -80,-51 -126,-112 -70,-95 -242,44 -394,7 -73,-17 -83,-68 -106,-132 -49,-133 -228,-101 -376,-116 -23,-35 -58,-93 -93,-108 -61,-27 -120,8 -161,-44 -81,-106 83,-224 9,-303 -57,-61 -216,-75 -292,-118 -131,-75 -83,-175 -76,-301 -37,-21 -145,-42 -201,-80 -64,-43 -66,-105 -95,-189 -79,-226 -120,-172 -331,-249 -51,-19 -47,-18 -63,-74 -42,-148 -79,-183 -192,-250 -100,-59 -75,-63 -105,-180 -53,-212 -238,-61 -316,-263 -27,-71 -39,-146 -71,-212 -48,-99 -64,-93 -125,-160 -53,-58 -88,-94 -146,-149 -111,-104 -192,-145 -259,-320 -92,-241 -276,-457 -429,-718 -69,-117 -196,-227 -131,-405 25,-66 84,-131 91,-193 6,-63 -21,-198 -27,-265 -11,-111 14,-132 60,-213l306 -570c108,-175 99,-198 162,-416 89,-305 264,-569 162,-908l356 -146c1,189 -55,342 -56,519 -2,197 93,288 170,413 63,104 22,85 130,154 69,43 128,57 184,111 62,61 18,153 73,211 67,71 149,-10 209,86 301,477 426,369 580,579 125,170 251,448 464,310 27,-17 54,-41 85,-63 195,-137 229,-303 382,-332 193,-36 216,-144 363,-218l407 -173c201,-63 106,51 486,-93 178,-68 340,-17 528,-50 205,-36 251,-79 486,-74 284,6 443,-91 515,-47 21,13 80,155 96,189 34,76 73,132 49,226zm-8737 -1840l100 439 -65 15 -108 -438 73 -16zm10103 422c44,-149 -407,-548 -466,-685l350 157c265,128 314,335 469,542 35,47 190,234 266,211 33,-24 -20,-126 -27,-155 -30,-130 -14,-258 2,-389 33,74 60,177 96,258 100,228 275,407 423,599 147,191 211,463 382,640 468,480 1024,493 1505,881 125,100 245,206 199,378 -26,99 -80,62 -169,93 -135,47 -217,139 -303,243 -446,542 -649,206 -1048,315 -207,56 -325,150 -457,258 -415,342 -640,877 -738,1408 -39,211 -29,383 -84,622 -16,-97 -82,-376 -154,-401 -54,69 -79,629 -140,785l-76 -245c-32,13 -25,8 -40,53 -33,101 -85,413 -153,474 -43,-77 -62,-323 -136,-354 -66,72 -101,716 -162,883 -46,126 -126,241 -214,308 -75,56 -246,131 -354,160 29,-67 73,-102 117,-147 31,-31 41,-39 74,-62 29,-19 58,-24 76,-52 -17,-12 0,-7 -27,-10 -24,-3 -70,25 -117,62 -150,122 -184,211 -251,373 -239,574 44,1155 -964,1559 -80,32 -578,197 -644,192 -37,-3 -180,-153 -221,-194 -211,-210 -462,-377 -701,-559 -116,-89 -478,-316 -498,-333l111 -1045c15,-11 3,-5 26,-13 13,-4 8,-3 19,-5 9,-1 38,-2 50,-3 57,-3 233,-53 257,-42 52,54 44,116 144,137 82,16 189,-25 235,-7 81,30 75,98 200,32 62,-32 112,-85 185,-84 299,3 346,-115 465,-95 143,24 233,43 327,-184 693,24 467,-234 647,-455 99,-122 177,-153 246,-311 137,-310 229,-449 295,-807 51,-284 -32,-242 -47,-458 -20,-271 -155,-206 -257,-300 -44,-42 -44,-137 -82,-191 -48,-67 -103,-53 -177,-99 -7,-130 70,-223 -69,-268 -3,-83 5,-173 19,-252 14,-78 42,-110 71,-179 45,-108 93,-311 49,-436 -33,-93 -60,-97 -106,-154 -54,-66 -23,-112 -5,-198 27,-122 48,-320 49,-452 230,-25 389,-43 602,-113 45,-15 92,-29 135,-47 74,-30 54,-33 127,4 62,30 215,97 280,50 -18,-36 -21,-26 -72,-32 -169,-21 -305,-116 -439,-213 172,-1 902,94 983,-27 -20,-61 -429,-255 -414,-521 41,25 71,50 124,76 61,30 470,210 460,105 0,-2 0,-5 -1,-8 -7,-29 -50,-54 -70,-77 -80,-88 -180,-214 -212,-340 139,22 334,94 467,37 -4,-60 -111,-156 -148,-201 -52,-63 -113,-115 -168,-174 -56,-60 -119,-108 -174,-166 -155,-160 -183,-181 -326,-356 -128,-157 -326,-459 -374,-653l376 345c68,50 144,99 196,156 34,35 134,164 181,156zm-8776 -796l-46 472 -1136 321 -101 -434 1283 -359zm2297 -153c-48,180 -22,379 -34,571l-390 152c-24,-81 -75,-166 -105,-270l-87 -279 616 -174zm694 -656c97,4 196,9 297,13l47 168c-53,46 -152,102 -222,146 -114,73 -101,91 -238,28 26,-64 71,-84 79,-153 -41,-30 -114,-45 -155,-78 7,-28 39,-84 55,-102 34,-40 82,-24 137,-22zm-190 23c-40,99 -91,118 24,164l77 40c-27,55 -68,69 -72,136 31,44 49,32 91,66l-1263 358c-27,-109 -192,-286 -233,-381l1376 -383zm-5483 -82c111,-30 930,-430 1067,-492 1134,-512 1252,-444 2338,-762 404,-119 808,-217 1222,-324 557,-144 728,-173 1285,-271 91,-16 87,-27 137,31 118,138 148,231 93,427 -72,259 -21,461 -49,722 -16,163 -57,173 -155,243 -123,88 -315,250 -405,369 -96,128 -68,93 -242,143l-1209 338c-129,-132 -140,-201 -350,-300 -162,-75 -326,-120 -525,-65 -149,40 -259,195 -333,303 -103,150 -130,250 -185,451 -78,39 -1647,466 -1830,521 -253,75 -465,76 -482,303 -21,289 162,372 427,278l1827 -526c10,189 -12,287 51,467 65,185 177,245 213,304 -26,43 -45,44 -75,79 -381,442 -393,611 -645,1082 -48,91 -178,324 -240,378l-1548 -26c4,-182 15,-320 -13,-500 -22,-147 -43,-298 -65,-444 -112,-749 -130,-1096 -195,-1829 -14,-157 -26,-305 -49,-461 -21,-144 -50,-295 -65,-439zm5954 -1986c36,-77 120,-121 213,-164 96,-45 147,-100 197,-178 59,-93 80,-155 158,-217 243,-193 355,-72 599,-139 108,-30 161,-74 249,-115 108,-52 215,-16 335,-19 289,-5 624,-163 955,-152 129,4 337,33 431,121l87 94c31,39 188,439 220,518 201,489 369,1233 477,1750 64,311 9,364 -65,628 -125,444 -176,342 -75,535 165,315 225,416 430,683 95,125 441,528 485,617 54,112 -22,213 -78,256 -72,54 -136,95 -216,147 -79,51 -148,101 -229,146 -258,144 -108,70 -285,90 -112,14 -181,52 -319,56 -140,5 -205,-17 -347,17 -517,126 -388,34 -661,76 -98,16 -188,70 -281,94 -114,30 -199,-8 -328,37 -96,33 -430,181 -502,236 -75,58 -115,124 -230,146 -208,39 -214,193 -403,334 -108,80 -168,131 -239,86 -179,-111 -212,-297 -339,-399 -70,-57 -150,-96 -223,-153 -185,-146 -277,-374 -349,-401 -47,-17 -114,2 -147,-33 -28,-30 -22,-105 -34,-148 -21,-74 -140,-136 -198,-177 -116,-81 -99,-65 -178,-185 -49,-74 -108,-139 -128,-247 -22,-114 1,-229 21,-338 55,-293 12,-747 61,-872 25,-63 37,-54 107,-74 112,-33 495,-135 569,-169l451 -287c44,-27 69,-43 112,-70 77,-50 88,-35 96,-86 -47,-31 -688,-41 -804,-49 45,-94 274,-286 365,-356 195,-151 231,-158 232,-492 1,-119 -9,-247 1,-364 9,-110 58,-202 64,-306 17,-291 -213,-384 -257,-477zm-2622 -3342c124,-129 61,-91 236,-29 145,52 142,-126 211,-149 93,-32 170,117 290,-26 55,-66 98,-183 211,-129 159,75 149,43 224,-83 61,-100 133,-109 243,-54 71,36 196,117 274,48 66,-59 78,-153 198,-178 259,-52 300,186 367,212 58,23 109,-3 168,13 82,23 90,144 249,37 99,-66 188,-39 295,10 519,240 513,-307 778,85 75,109 98,4 232,-38 39,54 14,113 69,165 110,1 110,-112 181,-177 77,-2 158,22 223,49l139 65c96,52 25,164 83,201 85,17 119,-26 197,-15 31,33 73,139 95,189 28,66 15,48 72,76 37,17 52,33 77,60 100,108 88,107 52,324 -42,253 168,28 252,38 4,112 -12,219 -15,330 -5,229 60,131 124,225 26,88 -19,208 46,282 67,75 149,60 208,107 17,157 -129,236 -95,417 13,75 65,115 98,162 42,61 29,165 28,242 -35,-16 -4,0 -34,-19 -470,-296 -963,14 -1391,27 -298,8 -180,-71 -468,78 -216,111 -253,59 -486,82 -383,37 -374,410 -621,514 -73,31 -123,63 -174,111 -106,100 -47,94 -16,175 -139,29 -283,42 -420,69 -435,86 -758,175 -1187,281 -526,130 -1018,275 -1543,409 -537,136 -994,280 -1469,485 -366,157 -661,312 -1000,465 -99,45 -229,114 -329,147 -34,-49 -62,-213 -79,-284 -96,-404 43,-306 117,-528 41,-122 -50,-184 -85,-253 -65,-127 147,-375 151,-547 7,-264 -180,-302 9,-546 82,-107 92,-115 21,-247 -150,-276 192,-224 191,-433 -1,-108 -64,-175 -91,-257 -79,-240 273,-333 320,-382 62,-64 -53,-215 40,-268 84,-48 257,43 311,-43 34,-48 -78,-232 206,-347 73,-29 164,-42 248,-27 40,7 80,35 106,-5 27,-43 -19,-29 6,-103 32,-38 179,80 182,-102 2,-134 -15,-119 58,-216 107,-11 247,40 298,-47 50,-88 -4,-204 83,-258 142,-89 457,120 547,12 28,-61 -6,-109 2,-179 71,-25 171,56 210,-16 40,-76 -37,-146 50,-211 173,-128 252,27 427,4zm-11246 4811l0 73 158 163c62,56 104,94 172,146 108,83 250,177 387,249 293,154 542,273 886,386 334,109 705,163 1078,194 261,21 968,26 1149,137 -880,87 -1271,376 -2010,481 -662,93 -868,103 -1443,419 -93,51 -327,199 -350,270 39,38 122,3 184,-6 856,-122 1519,83 2555,-46l735 -115c37,-7 73,-20 106,-3 -96,21 -212,75 -322,103 -968,252 -1315,213 -2268,267 -69,4 -381,-8 -412,16 13,45 152,75 201,92 74,26 141,50 218,77 635,220 758,265 1498,292 922,33 1743,-345 2051,-321 -428,148 -612,343 -896,402 -393,82 -722,87 -1066,251 -437,209 -406,319 -1032,290 -290,-14 -628,-129 -877,-274 -45,-26 -58,-55 -105,-53 -11,61 92,120 125,157 315,350 1014,679 1491,649 350,-22 671,-146 963,-260 193,-76 808,-263 1015,-168 -216,81 -374,215 -547,351 -42,34 -80,73 -119,108 -43,38 -76,70 -116,112 -40,40 -69,81 -108,119 -127,125 -204,225 -395,288 -128,42 -250,41 -381,71 -215,50 -345,166 -492,305 -44,41 -42,10 -54,56 52,22 340,-78 422,-99 514,-131 1077,-76 1451,-195 337,-107 496,-217 780,-322 352,-131 563,-132 960,-122 -62,181 -516,558 -679,665 -353,229 -629,217 -1096,242 -543,29 -584,178 -1036,307 -428,122 -797,-196 -1125,-138 11,76 87,58 179,87 199,65 381,163 561,257 246,128 613,172 926,142 344,-32 581,-117 893,-188 256,-58 739,-109 998,-46 -28,19 -349,88 -477,136 -379,144 -478,257 -910,328 -110,18 -427,90 -449,172 36,33 69,8 145,3 194,-10 393,-25 588,-11 250,17 475,86 741,63 247,-21 422,-112 669,-134 210,-19 518,18 661,123 -830,-97 -1188,29 -1761,391 -129,81 -203,155 -320,236 -105,72 -229,140 -358,198 -190,87 -371,175 -516,314 -34,33 -112,116 -99,178 53,3 286,-89 359,-112 121,-37 254,-67 385,-93 293,-60 554,-65 850,-102 202,-25 919,-209 1146,-286 122,-41 241,-108 348,-142 -183,205 -785,423 -1067,502 -353,98 -805,126 -1084,393 -8,9 -16,15 -21,25 -1,2 -2,5 -3,7l2 31c23,10 530,-28 627,-26 216,6 444,14 658,0 289,-18 560,-84 825,-188 82,-32 157,-77 228,-103 -74,70 -145,141 -226,208 -420,346 -968,971 -1195,1486 -22,49 -112,229 -118,281 -17,154 177,-145 196,-169 64,-83 132,-155 198,-234 326,-395 905,-715 1365,-975 45,-26 88,-58 136,-79 -40,73 -412,479 -488,556 -168,171 -316,401 -438,619 -43,78 -417,460 -504,541 -64,58 -124,105 -184,169 -67,72 -118,107 -182,169 -68,66 -118,118 -174,178l-254 269c-31,29 -69,50 -103,78 -123,101 -258,205 -442,263 -385,124 -866,-39 -1076,-236 -715,-671 -316,-1209 -2231,-1280 -233,-9 -432,-15 -660,-49l0 42c569,79 1477,32 1961,286 513,270 549,882 1101,1172 164,86 380,146 596,152 112,3 229,-11 328,-45 137,-48 206,-107 259,-124l-588 624c-35,35 -64,69 -97,107 -33,38 -68,67 -100,104 -64,74 -124,143 -195,215l-295 319c-36,44 -67,48 -129,75 -315,139 -734,116 -1060,47 -212,-44 -1070,-308 -1242,-395 -89,-45 -184,-89 -271,-137 -92,-51 -166,-103 -268,-143l0 49 608 310c208,93 479,154 702,230 234,80 490,150 754,176 148,14 300,10 445,-7 164,-19 226,-49 361,-93 -72,97 -173,195 -271,323 -203,263 -461,611 -642,892 -62,97 -55,90 -157,149 -66,39 -115,73 -189,107 -488,225 -1071,480 -1611,533l0 41c341,-36 692,-137 979,-252l642 -278c68,-29 151,-94 203,-107 -31,61 -170,238 -227,332 -135,222 -303,543 -319,815 -10,184 4,397 -12,570 -214,64 -396,139 -615,191l-651 156 0 41 649 -152c154,-36 566,-184 619,-182 -2,73 -29,65 -120,145 -233,203 -893,699 -1148,815l0 51c192,-79 639,-417 804,-532 -42,68 -95,135 -129,227 -61,164 54,167 165,109 121,-63 363,-256 444,-293l6 600 188 0c50,-291 60,-512 155,-787 78,-225 185,-461 280,-674 144,-320 321,-530 525,-782l226 -250c38,-37 44,-22 52,-77 -71,4 -266,244 -324,305 -176,184 -117,119 -290,346 -155,202 -292,474 -399,714 -16,35 -32,80 -56,106 -85,-103 -205,-412 -251,-569 -42,-141 -74,-181 -25,-323 110,-318 256,-532 434,-793 110,-161 214,-325 329,-489 216,-306 460,-662 711,-925 67,-71 139,-131 211,-197 105,-95 205,-204 319,-295 152,-121 608,-581 723,-708 195,-215 381,-435 558,-670 62,-82 129,-136 201,-207 71,-70 118,-155 184,-226l610 -616c101,-91 243,-265 406,-412 214,-195 412,-406 616,-611l211 -210c27,11 99,77 120,97 34,34 71,93 115,51 -22,-32 -166,-157 -202,-180 13,-40 63,-106 90,-151 43,-74 1,-93 81,-168 43,16 130,138 184,180 67,52 138,113 192,171 185,199 897,760 1152,938 0,0 26,19 26,19 3,2 11,9 13,12 19,20 1,-8 18,24 -111,35 -214,141 -287,203 -389,335 -512,459 -851,865l-338 411c-75,86 -143,174 -221,267 -74,88 -139,199 -217,286 -76,-5 -319,-83 -370,-48 17,46 109,42 159,51 62,12 121,27 181,36 -49,100 -144,195 -206,291 -65,101 -123,210 -196,304 -70,8 -179,-22 -255,-31l-182 -22c-59,1 -33,0 -41,33l442 64c-43,111 -162,251 -199,437 -74,-13 -189,-43 -261,-66 -80,-26 -150,17 -233,48l-351 126c-47,17 -94,21 -101,69 39,15 323,-119 420,-117 126,3 359,61 493,79 -14,115 -8,108 -83,165 -58,44 -232,178 -273,226 -17,21 -35,50 -51,74 -78,114 -108,58 -281,81 -523,68 -893,160 -1403,337 -224,78 -451,159 -662,268 -47,24 -22,-4 -35,35 46,26 206,-69 261,-92 605,-258 1541,-536 2182,-521 656,16 746,20 1375,170 377,89 750,291 1094,450 184,85 352,161 518,255 507,286 686,443 1136,794l958 781c40,32 70,52 109,84 191,157 227,211 332,439 77,167 181,361 243,525l420 0c-92,-747 -596,-1907 -1071,-2490 -48,-58 -92,-83 -134,-139 -43,-57 -80,-100 -120,-152 -27,-36 -36,-38 -68,-69 -33,-32 -37,-65 -81,-48 -8,35 173,213 204,255 206,285 367,581 520,911 183,391 332,821 419,1251 11,54 51,156 14,205 -22,-58 -199,-251 -256,-315 -115,-128 -222,-255 -346,-370 -23,-21 -54,-39 -84,-63 -113,-91 -182,-186 -286,-282l-445 -419c-105,-86 -192,-191 -287,-292 -137,-143 -151,-143 -343,-225 -303,-130 -479,-221 -759,-388 -313,-187 -1236,-618 -1580,-715 -149,-43 -311,-82 -465,-115 -376,-79 -679,-63 -1064,-84 43,-110 138,-167 228,-239 126,-99 183,-102 206,-273 203,19 698,184 894,264 138,57 273,116 402,178 62,29 355,178 401,127 -13,-20 -301,-131 -393,-192 -282,-187 -456,-284 -797,-384 -149,-44 -321,-100 -472,-132 15,-145 139,-319 203,-438 174,13 510,109 681,158 524,151 1034,350 1516,596 61,31 236,139 287,118 -12,-48 -212,-128 -262,-154 -478,-245 -986,-442 -1506,-595 -78,-23 -667,-163 -677,-170 51,-91 128,-213 191,-303 53,-75 153,-233 213,-285 411,53 1334,458 1692,667 251,147 494,285 728,454 209,149 380,304 578,456 34,27 47,61 85,61 19,-94 -572,-594 -642,-651 -87,-71 -670,-512 -790,-508 -7,57 110,96 188,144 76,47 143,83 174,171 -146,-57 -313,-178 -459,-250 -158,-78 -309,-156 -477,-227 -292,-123 -599,-239 -906,-320 -78,-21 -103,-18 -139,-45 51,-91 144,-205 208,-282l549 -667c242,-286 360,-432 654,-686 223,-194 226,-223 488,-385 51,25 119,81 173,120 403,292 808,570 1237,830 123,74 242,148 365,226 1090,690 2329,1298 3498,1841 221,103 619,254 858,335 149,51 278,117 422,168 144,51 294,110 436,155 155,49 296,91 445,146 154,56 302,85 461,129 155,43 297,91 456,135 163,45 304,79 461,130 383,126 787,228 1184,304 324,62 189,-30 471,415 148,234 303,504 436,757 178,342 637,1256 727,1645l46 0c-37,-182 -208,-574 -289,-755l-432 -886c-111,-215 -45,-28 121,-538 22,-68 32,-159 51,-214 18,-50 103,-62 72,-183 -14,-53 -125,-185 -164,-235 -27,-33 -40,-36 -59,-71 250,26 323,337 355,547 20,136 30,288 30,427 0,83 -48,382 -38,408 65,19 61,-26 88,-84 69,-147 128,-270 165,-436 144,-646 -24,-783 18,-868 81,-166 -44,-297 -217,-344 -160,-44 -560,-5 -676,-130 119,-143 659,-304 357,-585 -280,-261 -837,-488 -1208,-655 -503,-226 -825,-345 -1334,-529 -194,-69 -272,-203 -411,-338 -53,-51 -137,-133 -183,-184 195,-64 380,-100 567,-170 47,-18 93,-32 133,-49 69,-31 62,-38 155,-31 116,8 213,28 322,52 865,192 1417,438 2203,773 252,108 693,333 916,516 23,19 11,6 29,30 -30,45 -151,139 -210,178 -273,180 -382,-94 -620,61 -51,34 -176,137 -168,223 56,2 129,-66 232,-48 87,15 68,134 78,217 22,188 142,254 334,268 -56,211 -350,98 -411,268 -25,67 -12,150 36,175 54,-31 60,-141 282,-103 152,26 197,42 343,-8 39,29 83,97 113,132 46,55 76,91 120,142 35,40 219,256 234,291 -257,22 -247,-53 -471,74 -84,47 -195,87 -234,175 -33,73 0,71 4,116 3,36 -68,93 -63,201 5,115 244,463 269,484 32,27 28,18 54,7 17,-58 -45,-215 -63,-283 -38,-146 -36,-172 2,-312 262,10 240,-60 424,-132 185,-72 281,40 384,122 484,383 146,543 463,648 38,266 -220,365 -429,365 -50,0 -384,-83 -163,82 438,329 1215,-37 1032,-465 -42,-97 -40,-27 -11,-123 52,-170 -127,-268 -211,-381 -34,-46 -51,-85 -80,-124 -34,-47 -73,-75 -95,-118 377,-93 243,44 427,78 71,13 80,31 113,83 53,87 76,176 86,298 5,61 3,121 -7,180 -11,60 -41,100 -19,142 62,-5 149,-130 186,-201 117,-223 151,-607 -32,-804 -40,-43 -63,-63 -90,-114 -116,-222 -432,-86 -636,-83 -133,2 -266,22 -399,20 -98,-2 -141,-119 -201,-211l-481 -735c-76,-118 -130,-155 9,-244 429,-277 1506,-96 605,-1155 -32,-37 -66,-68 -98,-105 -395,-455 -1694,-1360 -2228,-1635 -273,-140 -541,-278 -826,-401 -89,-38 -200,-75 -289,-119 2,-39 13,-68 30,-106 24,-52 31,-42 87,-62 410,-146 585,-281 639,-779 12,-108 32,-431 73,-502 52,86 67,314 114,371 40,-15 50,-76 66,-117 52,-136 86,-283 123,-422l30 58c6,21 10,44 14,63 11,54 6,100 39,129 111,-53 109,-695 167,-812 81,169 91,422 106,454 118,-25 130,-544 143,-654 49,-419 192,-834 435,-1155 122,-162 238,-289 398,-409 146,-109 360,-224 600,-188 240,36 439,71 674,119 224,46 460,68 683,112 111,22 223,48 336,62 176,22 210,-4 343,-48 51,52 51,108 91,151 38,-16 6,8 34,-26 167,-196 -6,-551 -167,-673 -144,-110 -486,-281 -715,-299 31,-198 60,-227 -67,-373 -196,-227 -646,-425 -934,-543 -298,-121 -551,-253 -729,-486 -53,-68 -64,-74 -46,-183 23,-140 59,-267 99,-400 232,-770 661,-1249 1115,-1826 147,-187 302,-359 451,-537 148,-177 311,-340 455,-523 146,-186 292,-359 430,-558 255,-365 469,-845 681,-1284 108,-222 184,-460 284,-693 302,-700 411,-991 849,-1616 54,-77 161,-241 214,-288l0 -70 -94 114c-29,40 -51,71 -81,112 -468,640 -629,1024 -948,1779 -79,185 -145,375 -224,559 -78,180 -166,350 -250,523 -320,653 -472,867 -918,1422 -59,74 -110,137 -177,210l-544 625c-229,284 -466,578 -683,874 -106,146 -214,290 -309,464 -87,160 -177,360 -241,542 -35,100 -65,190 -92,294 -23,91 -31,191 -59,281l-11 26c-1,-1 -3,6 -5,9l-186 -362c-71,-127 -155,-203 -235,-309 -118,-154 -236,-322 -302,-517 -14,-42 -38,-172 -60,-197 -55,7 -55,50 -63,113 -22,166 -4,318 26,471 -151,-85 -236,-245 -336,-420 -173,-303 -412,-307 -679,-468 -323,-194 294,481 323,559 -37,-25 -49,-41 -89,-77 -151,-133 -335,-235 -462,-389 -27,-33 -121,-178 -149,-187 -52,89 144,436 187,512 147,263 315,469 521,660 22,21 29,24 48,43 89,91 407,375 436,471 -96,2 -149,-3 -239,-21 -68,-14 -246,-93 -204,33 20,60 58,121 90,172 53,83 105,135 153,208 -139,-18 -308,-79 -423,-153 -34,-23 -78,-68 -100,-72 -89,107 59,291 101,343 84,106 167,143 248,231 -106,52 -382,27 -514,23 -120,-3 -405,-49 -499,-35 0,48 2,43 40,64 59,32 132,72 187,119l-33 23c-7,4 -36,12 -42,14 -187,60 -455,153 -646,138 52,-67 111,-111 171,-181 60,-70 93,-144 46,-263 -39,-98 -16,-40 -17,-140 -2,-141 -117,-256 -146,-386 76,-53 204,-123 294,-169 85,-43 212,-119 278,-189 227,-240 164,-296 -68,-581 -178,-217 -463,-578 -593,-804 -195,-335 -201,-266 -125,-480 62,-175 105,-366 145,-547 48,-215 -68,-587 -114,-799 -23,-104 -32,-92 -5,-194 52,-194 73,-404 87,-604 20,-276 18,-563 151,-767 9,477 78,442 218,705 42,78 55,201 70,227 58,-3 58,-30 68,-94 20,-140 26,-276 21,-419 -6,-189 -33,-359 -45,-545 -24,-374 -4,-720 94,-1065 92,-324 199,-568 333,-849 48,-100 356,-742 398,-776 15,465 -126,885 -102,1340 24,431 92,506 248,846 24,52 66,223 121,243 91,-109 52,-678 42,-853 -17,-294 -31,-563 26,-851 104,-523 335,-903 598,-1222 171,392 -140,1164 84,1607 70,138 185,206 266,325 93,138 168,378 229,364 72,-17 31,-466 28,-540 -19,-383 -34,-755 -4,-1136 54,-670 248,-1341 513,-1865 198,-391 445,-735 677,-1094 67,-105 149,-283 220,-371 23,787 -459,1631 -343,2663 25,220 85,421 125,637 15,84 9,157 88,167 171,-285 11,-1410 352,-2132 64,-135 227,-391 354,-454 -96,196 -184,348 -240,602 -114,514 4,989 98,1494 23,122 31,259 36,387 7,157 -61,608 94,323 24,-43 42,-78 61,-131 301,-800 245,-1469 466,-2215 212,-713 439,-1096 867,-1632 85,-107 189,-181 278,-287l-62 0c-32,48 -137,133 -187,190 -446,514 -710,967 -919,1660 -206,680 -188,1261 -351,1864 -36,135 -128,466 -204,538 4,-275 -1,-521 -49,-786 -41,-232 -95,-467 -124,-704 -30,-246 -7,-524 54,-756 29,-110 66,-214 109,-311 22,-48 43,-93 68,-138 26,-48 64,-84 52,-144 -95,-13 -192,121 -240,172 -569,606 -372,1879 -531,2391 -35,-60 -153,-738 -163,-857 -24,-293 19,-651 70,-929 55,-300 380,-1520 265,-1711 -54,8 -57,67 -88,125l-232 382c-371,589 -609,869 -871,1593 -258,713 -329,1391 -298,2158 5,135 56,709 13,784 -42,-61 -84,-181 -125,-251 -171,-292 -352,-261 -390,-720 -18,-220 13,-473 36,-688 15,-137 27,-568 -78,-639 -33,15 -60,69 -105,125 -914,1137 -437,2145 -576,2764 -20,-27 -91,-201 -115,-249 -147,-293 -206,-500 -203,-865 4,-418 118,-741 104,-1159 -3,-87 5,-112 -36,-140 -35,22 -39,50 -61,91 -440,851 -848,1524 -821,2537 6,206 99,948 30,1086 -43,-70 -49,-124 -102,-201 -250,-367 -135,-606 -169,-714 -55,10 -78,69 -105,124 -181,355 -99,1144 -216,1330 -48,-134 -82,-333 -122,-480 -113,-428 -242,-707 -404,-1095 -45,-106 -66,-94 -65,-231 2,-147 5,-152 -67,-239 -49,-60 -80,-125 -46,-227 24,-72 75,-142 86,-221 34,-251 -251,0 -249,-347 2,-165 4,-119 -96,-195 -105,-80 44,-400 -41,-504 -97,-31 -139,57 -235,78 11,-285 96,-334 -126,-490 -48,-34 -57,-22 -85,-85 -132,-295 -85,-173 -299,-176 -16,-111 8,-155 -86,-200 -84,-40 -346,-177 -423,-96 -42,44 -60,135 -122,152 -26,-52 -25,-118 -53,-161 -70,-12 -136,55 -202,79 -21,-18 -15,-13 -34,-38l-90 -103c-169,-160 -307,149 -569,69 -106,-32 -271,-140 -402,-95 -59,20 -111,96 -181,66 -61,-26 -24,-80 -178,-76 -117,2 -100,-32 -151,-107 -79,-117 -348,-217 -506,31 -92,145 -211,-20 -349,-51 -78,-18 -151,30 -181,67 -40,50 -46,111 -108,144 -73,-11 -148,-94 -231,-40 -33,21 -97,119 -136,159 -82,83 -148,-24 -244,-7 -67,12 -96,107 -135,160 -77,5 -94,-18 -119,-79 -68,-167 -24,-599 -229,-1111 -164,-410 -394,-648 -664,-870 -195,-160 -678,-481 -906,-628 -240,-155 -480,-286 -710,-436 -98,-64 -179,-145 -241,-137 226,824 1717,1494 1444,2337 -211,-171 -551,-299 -866,-549 -330,-262 -625,-816 -911,-1213 -52,-72 -101,-135 -154,-198 -156,-186 -343,-366 -540,-518 -66,-50 -130,-100 -202,-149 -60,-40 -164,-96 -213,-142l-85 0c58,56 322,205 429,294 71,59 130,102 199,165 65,59 133,110 193,170 381,380 609,855 919,1274 43,59 116,153 164,200 71,72 122,113 201,173 233,177 706,412 788,485 34,31 63,75 105,89 170,-414 -95,-816 -355,-1100 -263,-289 -1005,-952 -1040,-1244 53,54 331,221 428,276 234,134 447,269 663,417 76,51 141,100 215,148 652,417 1085,833 1231,1654 39,220 40,420 96,637 -115,-23 -139,5 -180,78 -154,9 -144,-90 -351,-42 -181,42 -104,179 -165,267 -29,14 -82,-23 -157,-7 -64,70 -46,106 -44,216 -132,-10 -325,-90 -449,-63 -180,38 -125,227 -201,320 -98,22 -221,-34 -290,40 -49,52 -27,196 -59,281 -105,-7 -141,-91 -185,112 -168,-6 -254,-15 -387,67 -222,139 -104,179 -148,330 -96,30 -232,-29 -307,33 -100,84 -21,156 -32,262 -88,68 -198,88 -268,165 -73,82 -89,206 -56,340 32,131 162,166 11,274 -211,150 -176,210 -86,427 37,91 -202,215 -121,449 126,366 -13,364 -95,660 -52,187 106,196 79,327 -12,57 -115,200 -147,288 -65,177 86,455 123,698 78,506 116,1044 163,1563 46,508 115,1035 191,1534 75,488 -16,1111 -47,1611 -15,255 -75,494 -133,729 -43,174 -73,354 -123,526 -9,32 -19,53 -26,75 -11,31 -11,61 -19,96 -26,108 -85,212 -136,295 -164,267 -349,534 -502,802 -95,-39 -146,-61 -207,33 -61,93 -8,165 29,240 -27,59 -81,134 -114,187 -121,190 -268,324 -427,482 -200,198 -396,416 -608,601 86,-198 313,-438 468,-605l373 -434c25,-33 103,-119 105,-159 -46,-6 -214,116 -265,147 -90,56 -182,101 -277,155 -341,191 -707,443 -993,711 -61,57 -353,368 -397,455 118,-337 298,-583 506,-846 135,-171 275,-328 426,-483 150,-153 311,-284 470,-438 47,-47 209,-177 216,-251 -34,0 -177,102 -225,128 -246,133 -535,217 -823,257 -231,31 -455,21 -690,20 -113,0 -220,-5 -334,-1 -111,4 -233,26 -334,26 182,-244 1256,-340 1878,-730 140,-88 254,-174 376,-272 40,-32 109,-57 93,-128 -69,-8 -190,114 -332,185 -115,57 -242,109 -373,150l-834 222c-442,108 -944,47 -1572,267 -56,19 -147,62 -199,69 137,-257 663,-397 991,-639 322,-238 643,-475 1070,-566 223,-48 652,-75 891,-23 31,7 60,20 86,13 34,-8 2,9 25,-14 72,-112 -438,-201 -557,-204 -570,-15 -537,228 -1391,99 -289,-44 -479,-12 -760,-11 82,-77 391,-99 491,-120 226,-47 586,-260 858,-347 66,-21 480,-101 499,-118 -12,-44 -22,-37 -82,-46 -279,-42 -571,-46 -849,-8 -598,82 -1054,365 -1806,185 -236,-57 -467,-231 -719,-320 406,42 485,262 1062,36 153,-59 292,-148 457,-190 609,-154 1053,125 1756,-504 146,-131 288,-260 395,-423 35,-54 63,-51 71,-107 -1169,-109 -1423,454 -2167,508 -329,24 -664,25 -986,94 -101,22 -354,109 -423,111 82,-48 145,-167 374,-239 175,-55 332,-42 511,-113 141,-56 273,-191 348,-277 193,-225 421,-418 672,-577 464,-294 853,20 1308,-192 78,-36 164,-65 179,-147 -62,6 -162,138 -421,179 -186,29 -372,-19 -558,-19 -117,-1 -163,11 -283,-8 -346,-56 -468,30 -776,71 25,-24 65,-38 98,-54 35,-15 65,-31 101,-46 412,-179 941,-172 1280,-493 37,-35 133,-89 135,-157 -49,0 -71,42 -106,73 -41,37 -61,55 -103,90 -64,53 -147,100 -234,141 -349,165 -721,168 -1129,371 -398,197 -631,332 -1101,409 -422,69 -840,-54 -1187,-269 -113,-70 -390,-254 -435,-327 151,44 303,135 479,181 198,52 401,53 614,48 529,-14 562,-359 1492,-489 184,-25 381,-49 538,-119 253,-113 308,-197 661,-327l175 -64c59,-16 43,5 55,-41 -180,-40 -800,116 -996,168 -860,225 -1721,240 -2563,-60 -73,-26 -143,-52 -218,-78l-217 -83c900,-16 1817,-46 2669,-323 223,-73 439,-174 636,-240 47,-15 61,-10 76,-51 -32,-19 -1,-16 -52,-6l-386 105c-345,92 -1127,197 -1477,217 -631,36 -1263,-84 -1892,-18 -72,8 -182,31 -247,30 186,-172 512,-324 797,-436 349,-137 678,-129 1051,-198 609,-112 1122,-382 1734,-448 67,-7 259,-2 297,-19 -9,-55 -168,-87 -224,-102 -93,-25 -188,-41 -290,-53 -670,-83 -1069,-26 -1792,-228 -317,-89 -682,-251 -941,-399 -149,-86 -281,-167 -407,-263 -73,-55 -117,-96 -182,-159 -75,-72 -128,-147 -160,-177z"/>
  <path class="fil1" d="M21519 12995c34,-19 114,42 159,54 119,32 238,0 344,133 23,29 24,39 43,69 38,59 43,18 51,74 -20,10 -88,8 -134,24 -133,46 -424,85 -445,-36 24,-7 137,52 256,38 -65,-15 -222,-127 -164,-222 60,31 -2,58 74,122 32,28 86,58 142,60 -95,-48 -132,-76 -126,-212 -56,-9 -121,-31 -167,-62 -45,-29 -20,-20 -33,-42zm-2147 -2245c-47,8 -147,-121 -181,-156 -52,-57 -128,-106 -196,-156l-376 -345c48,194 246,496 374,653 143,175 171,196 326,356 55,58 118,106 174,166 55,59 116,111 168,174 37,45 144,141 148,201 -133,57 -328,-15 -467,-37 32,126 132,252 212,340 20,23 63,48 70,77 1,3 1,6 1,8 10,105 -399,-75 -460,-105 -53,-26 -83,-51 -124,-76 -15,266 394,460 414,521 -81,121 -811,26 -983,27 134,97 270,192 439,213 51,6 54,-4 72,32 -65,47 -218,-20 -280,-50 -73,-37 -53,-34 -127,-4 -43,18 -90,32 -135,47 -213,70 -372,88 -602,113 -1,132 -22,330 -49,452 -18,86 -49,132 5,198 46,57 73,61 106,154 44,125 -4,328 -49,436 -29,69 -57,101 -71,179 -14,79 -22,169 -19,252 139,45 62,138 69,268 74,46 129,32 177,99 38,54 38,149 82,191 102,94 237,29 257,300 15,216 98,174 47,458 -66,358 -158,497 -295,807 -69,158 -147,189 -246,311 -180,221 46,479 -647,455 -94,227 -184,208 -327,184 -119,-20 -166,98 -465,95 -73,-1 -123,52 -185,84 -125,66 -119,-2 -200,-32 -46,-18 -153,23 -235,7 -100,-21 -92,-83 -144,-137 -24,-11 -200,39 -257,42 -12,1 -41,2 -50,3 -11,2 -6,1 -19,5 -23,8 -11,2 -26,13l-111 1045c20,17 382,244 498,333 239,182 490,349 701,559 41,41 184,191 221,194 66,5 564,-160 644,-192 1008,-404 725,-985 964,-1559 67,-162 101,-251 251,-373 47,-37 93,-65 117,-62 27,3 10,-2 27,10 -18,28 -47,33 -76,52 -33,23 -43,31 -74,62 -44,45 -88,80 -117,147 108,-29 279,-104 354,-160 88,-67 168,-182 214,-308 61,-167 96,-811 162,-883 74,31 93,277 136,354 68,-61 120,-373 153,-474 15,-45 8,-40 40,-53l76 245c61,-156 86,-716 140,-785 72,25 138,304 154,401 55,-239 45,-411 84,-622 98,-531 323,-1066 738,-1408 132,-108 250,-202 457,-258 399,-109 602,227 1048,-315 86,-104 168,-196 303,-243 89,-31 143,6 169,-93 46,-172 -74,-278 -199,-378 -481,-388 -1037,-401 -1505,-881 -171,-177 -235,-449 -382,-640 -148,-192 -323,-371 -423,-599 -36,-81 -63,-184 -96,-258 -16,131 -32,259 -2,389 7,29 60,131 27,155 -76,23 -231,-164 -266,-211 -155,-207 -204,-414 -469,-542l-350 -157c59,137 510,536 466,685z"/>
  <path class="fil5" d="M7914 9086c15,144 44,295 65,439 23,156 35,304 49,461 65,733 83,1080 195,1829 22,146 43,297 65,444 28,180 17,318 13,500l1548 26c62,-54 192,-287 240,-378 252,-471 264,-640 645,-1082 30,-35 49,-36 75,-79 -36,-59 -148,-119 -213,-304 -63,-180 -41,-278 -51,-467l-1827 526c-265,94 -448,11 -427,-278 17,-227 229,-228 482,-303 183,-55 1752,-482 1830,-521 55,-201 82,-301 185,-451 74,-108 184,-263 333,-303 199,-55 363,-10 525,65 210,99 221,168 350,300l1209 -338c174,-50 146,-15 242,-143 90,-119 282,-281 405,-369 98,-70 139,-80 155,-243 28,-261 -23,-463 49,-722 55,-196 25,-289 -93,-427 -50,-58 -46,-47 -137,-31 -557,98 -728,127 -1285,271 -414,107 -818,205 -1222,324 -1086,318 -1204,250 -2338,762 -137,62 -956,462 -1067,492z"/>
  <path class="fil2" d="M7507 16672c12,19 3,6 17,22 7,8 10,10 18,17l449 402c139,117 490,372 663,507 318,248 1486,1004 1880,1255 108,69 209,132 322,202l994 573c228,120 457,230 684,350 152,80 1461,682 1616,736 529,183 1687,719 2080,792 122,23 279,87 400,124 66,20 131,43 196,65 72,25 136,35 206,56 124,38 263,85 399,123 323,90 474,145 824,221 136,30 270,73 406,98 -19,-49 -69,-107 -101,-153 -39,-58 -72,-99 -109,-152 -73,-102 -148,-202 -223,-301 -150,-197 -307,-398 -463,-581l-487 -558c-50,-47 -78,-92 -124,-138l-388 -395c-47,-46 -86,-82 -135,-127 -202,-187 -193,-229 -512,-272 -299,-41 -619,-73 -911,-133 -570,-118 -1126,-256 -1686,-393 -275,-67 -561,-134 -836,-209 -274,-74 -525,-171 -788,-257 -134,-43 -255,-89 -397,-126 -138,-36 -278,-71 -404,-118 -376,-138 -798,-256 -1162,-406 -124,-52 -236,-115 -359,-163 -264,-104 -501,-183 -731,-314 -68,-39 -115,-51 -177,-85 -275,-146 -576,-280 -852,-454 -85,-54 -214,-170 -309,-208z"/>
  <path class="fil1" d="M21776 20720c124,433 -467,450 -509,432 9,-36 -41,-20 95,-40 38,-5 69,-10 106,-18 68,-14 134,-34 182,-69 40,-31 93,-88 97,-168 8,-163 -50,-143 -36,-212 40,5 52,30 65,75zm-3647 -2240c-25,177 -33,281 -102,433 -50,110 -148,237 -225,320 -89,96 -266,186 -306,223 394,60 720,134 1077,253 346,115 649,217 971,358 850,375 930,375 1611,888 48,35 68,29 65,93 -82,-9 -17,-41 -149,-35 -68,3 -103,-30 -146,-51 -468,398 -449,65 -710,152 -70,23 -153,94 -176,144 172,-25 193,-41 300,70 145,150 205,43 263,75 -32,94 -182,65 -298,-44 -3,230 62,345 280,362 16,2 25,1 41,5 75,19 -3,119 -31,152 -119,142 -410,34 -361,260 195,-152 312,-34 487,-51 94,-9 106,-43 148,-47l556 668c31,37 63,76 93,112 36,43 81,57 76,113 -54,-5 -99,-78 -144,-102 -95,-50 -92,8 -163,-87 -37,-48 -119,-42 -214,-42 -100,1 -477,178 -412,303 36,70 284,99 383,49 266,-136 331,-230 659,68 277,252 204,217 272,468 22,85 29,99 109,125 48,-17 82,-72 174,-94 118,-29 149,10 219,4 39,-163 -87,-211 -193,-345 -26,-33 -47,-76 -69,-112 -84,-133 -146,-135 -192,-183 -42,-43 -28,-93 -56,-137 -37,-59 -81,-23 -98,-83 41,-21 103,25 122,47 71,79 -1,200 176,138 274,-96 323,85 417,87 189,5 298,-334 85,-437 -96,-47 -199,-18 -304,4 -127,25 -568,44 -694,23 -19,44 -42,98 -93,98 -11,-56 52,-54 59,-123 3,-40 -193,-321 -212,-335 -41,53 -44,109 -112,110 11,-104 139,-81 34,-239l-106 -166c-20,-30 -17,-30 -45,-49 -18,36 -82,152 -143,103 17,-32 90,-56 122,-147 -40,-76 -148,-241 -201,-303 -27,34 -102,138 -163,109 16,-61 79,-38 133,-140 48,-89 19,-99 109,-163 88,-64 258,-126 381,-153 283,-63 665,-122 537,-475 -100,-273 -299,-463 -454,-625 -113,-119 -416,-391 -567,-502 -372,-273 -892,-662 -1266,-891 -235,-144 -806,-433 -1068,-546 -94,-40 -291,-139 -384,-155 -25,142 -79,279 -102,445z"/>
  <path class="fil1" d="M0 18693c256,4 628,66 859,134 455,135 874,459 1169,785 44,48 75,88 114,136 40,49 74,82 112,126 47,53 73,79 127,124 43,36 112,65 119,121 -320,51 -723,-458 -1772,-584 -195,-24 -544,-26 -728,17l0 882c102,40 176,92 268,143 87,48 182,92 271,137 172,87 1030,351 1242,395 326,69 745,92 1060,-47 62,-27 93,-31 129,-75l295 -319c71,-72 131,-141 195,-215 32,-37 67,-66 100,-104 33,-38 62,-72 97,-107l588 -624c-53,17 -122,76 -259,124 -99,34 -216,48 -328,45 -216,-6 -432,-66 -596,-152 -552,-290 -588,-902 -1101,-1172 -484,-254 -1392,-207 -1961,-286l0 516z"/>
  <path class="fil2" d="M7271 16389c15,106 319,276 424,350 161,115 531,359 731,417 110,32 531,288 757,378 185,74 365,138 544,218 177,80 349,151 540,221 366,135 761,267 1146,375 396,112 764,247 1149,374 191,62 961,245 1214,308 203,51 415,91 618,143 396,103 853,202 1264,260l660 88c-7,-5 -93,-82 -102,-90 -161,-153 -601,-483 -776,-599 -49,-33 -202,-140 -242,-154 -38,-14 -11,4 -65,5 -85,2 -840,-158 -905,-173 -978,-224 -1493,-375 -2411,-735 -191,-74 -390,-137 -579,-216 -189,-80 -360,-164 -550,-234 -298,-109 -1428,-533 -1687,-676 -170,-94 -331,-190 -500,-282 -170,-93 -97,-58 -230,-170 -92,-77 -255,-358 -300,-483 -32,-87 -52,-255 -74,-308 -127,250 -297,538 -453,774 -202,305 -92,118 -173,209z"/>
  <path class="fil6" d="M11010 19218c-607,-362 -1509,-950 -2103,-1362 -164,-113 -483,-369 -580,-431l-246 -185c-94,-69 -167,-147 -233,-199l-380 -336c-112,-108 -208,-264 -274,-295 -83,-39 -147,48 -132,130 23,124 196,253 259,313 165,155 438,420 611,547 53,39 105,86 156,128 631,518 1505,1104 2207,1541 512,319 926,551 1448,848 501,284 1385,731 1922,962 143,62 237,123 384,184 275,115 553,223 837,322 149,51 270,114 414,166 138,49 283,97 420,147 238,88 640,210 888,271 147,37 296,89 448,132 147,42 297,78 446,122 145,44 280,95 440,139 129,36 825,195 941,207 143,13 422,115 395,-99 -22,-172 -234,-146 -408,-172 -188,-28 -745,-161 -946,-213 -152,-39 -292,-87 -440,-129 -150,-42 -298,-85 -449,-129 -159,-46 -302,-73 -457,-124 -280,-90 -579,-192 -853,-293 -559,-206 -1090,-459 -1651,-656l-402 -177c-134,-59 -254,-119 -387,-181 -133,-61 -269,-116 -402,-177 -256,-118 -518,-255 -764,-383 -408,-213 -716,-383 -1109,-618z"/>
  <path class="fil3" d="M11318 11242c13,-68 114,-72 177,-41 48,23 143,72 134,132 -37,-4 -98,-65 -134,-86 -117,-67 -103,11 -177,-5zm-74 -189c-4,73 -3,71 -32,84 -52,-81 59,-286 -39,-409 -108,-136 -220,-156 -224,-233 52,1 50,18 81,47 162,148 240,144 223,396 -3,38 -7,76 -9,115zm-278 -78c-64,-10 -148,-92 -155,-171 -20,-218 114,-1117 319,-1219 272,-135 907,255 850,956 -20,241 -212,455 78,824 68,86 60,20 58,81 -75,20 -114,-98 -154,-143l-111 230c-224,508 -507,26 -508,-31 64,-13 52,69 148,158 219,205 338,-169 422,-378 -179,-37 -205,-84 -287,-200 -82,-116 -134,-188 -98,-372 32,-162 121,-394 213,-525 48,-68 64,-72 117,-117 -25,-96 -155,-261 -214,-283 -110,68 -189,308 -245,466 -58,162 -171,222 -317,113 -28,-21 -71,-59 -51,-96 47,-12 89,132 213,104 116,-27 131,-237 231,-431 59,-114 109,-151 132,-193 -184,-124 -454,-286 -568,41 -27,78 -52,146 -74,222 -43,152 -78,345 -95,508 -17,170 -52,283 30,368 38,40 59,38 66,88zm226 -1799c-271,44 -483,425 -533,677 -55,280 -112,829 -17,1088 28,75 70,133 111,185 51,65 104,89 159,147 70,76 233,244 285,317 153,214 252,710 785,438 39,-20 102,-60 121,-95l89 -150c65,-112 101,-319 146,-456 47,-144 118,-304 148,-456 41,-209 -56,-317 -120,-473 -152,-376 -56,-378 -383,-821 -92,-124 -152,-219 -303,-299 -153,-81 -290,-135 -488,-102z"/>
  <path class="fil1" d="M17186 20300c17,33 172,194 211,232 65,63 144,162 206,238 107,130 328,369 409,477 67,88 126,167 190,253 50,68 57,44 152,75 104,34 372,163 446,213 44,29 88,64 130,97 31,25 91,82 98,120 -57,0 -164,-128 -287,-204 -46,-28 -352,-97 -379,-99 41,55 70,97 105,146 58,82 41,78 139,123 71,32 107,56 163,97 95,70 139,66 159,106 -75,49 -201,-115 -342,-166 22,49 122,215 183,230 176,42 603,-19 554,287 -22,136 -161,124 -295,128 41,130 73,77 208,96 106,15 153,42 159,151 5,111 61,134 178,133 110,-2 145,-42 225,-77 110,-47 90,-115 26,-193 -46,-54 -88,-124 -133,-174 -40,-45 -114,-113 -162,-145 -113,-75 -175,-65 -198,-100 2,-2 6,-3 9,-4l29 -9c12,-1 29,3 39,6 48,12 129,62 163,88 98,77 150,32 247,94 68,45 120,106 249,81 207,-41 330,-198 114,-342 -84,-56 -156,-64 -270,-69 -252,-10 -345,-45 -554,-123 -46,25 -177,134 -237,97 11,-27 118,-67 203,-125 185,-127 544,-306 482,-471 -57,-150 -579,-413 -783,-512 -285,-138 -1519,-690 -1836,-755z"/>
  <path class="fil1" d="M0 23144l0 1427 651 -156c219,-52 401,-127 615,-191 16,-173 2,-386 12,-570 16,-272 184,-593 319,-815 57,-94 196,-271 227,-332 -52,13 -135,78 -203,107l-642 278c-287,115 -638,216 -979,252z"/>
  <path class="fil7" d="M15542 12563c-2,120 81,88 244,243 71,67 149,187 217,283 104,145 315,448 434,566 27,26 38,36 66,58 145,111 310,286 497,378 214,106 604,200 741,-42 84,-148 198,-400 80,-563 -154,-212 -204,-17 -595,-109 -422,-99 -659,-258 -1001,-498l-370 -255 -313 -61z"/>
  <path class="fil3" d="M15367 13352c50,60 80,264 160,306 97,45 109,-24 181,78 268,377 121,113 487,331 107,63 211,181 367,181 275,1 378,50 423,-105l-12 -12c-54,-40 -131,-76 -211,-142 -39,-33 -61,-59 -103,-91 -398,-293 -513,-562 -795,-932 -244,-321 -361,-212 -362,-411 -133,23 -145,89 -199,192 -107,207 -298,50 -203,348 137,428 180,255 267,257z"/>
  <path class="fil8" d="M15946 12628c27,34 47,43 85,70l286 190c128,85 246,170 377,248 119,70 307,133 451,174 253,74 310,50 565,26 26,-162 99,-487 76,-643 -228,-87 -620,-117 -883,-112 -326,6 -626,46 -957,47z"/>
  <path class="fil1" d="M22465 13465c-30,-136 146,-109 178,-49 -14,14 0,5 -20,15 -48,24 -107,46 -158,34zm-776 412c409,74 529,124 970,59 175,-26 314,-55 484,-2 63,20 147,52 189,85 59,46 77,95 126,154 109,-110 22,-417 -164,-571 -124,-102 -371,-218 -557,-273 -450,-133 -530,195 -779,405 -96,81 -163,85 -269,143z"/>
  <path class="fil7" d="M15582 12517c48,40 198,51 254,55 451,32 452,-10 862,-25 385,-15 782,-10 1125,113 56,-34 196,-167 226,-234 28,-60 0,-123 -27,-175 -21,-40 -18,-34 -70,-42 -261,-41 -187,109 -461,28 -291,-87 -487,-15 -778,35 -182,31 -199,37 -354,100 -159,66 -233,38 -411,49 -306,18 -187,25 -366,96z"/>
  <path class="fil8" d="M12021 9551c41,95 206,272 233,381l1263 -358c-42,-34 -60,-22 -91,-66 4,-67 45,-81 72,-136l-77 -40c-115,-46 -64,-65 -24,-164l-1376 383z"/>
  <polygon class="fil8" points="9313,10313 9414,10747 10550,10426 10596,9954 "/>
  <path class="fil1" d="M322 16613c262,-161 688,-106 955,-319 279,-222 366,-399 541,-583 38,-41 58,-52 80,-95 -586,-14 -950,279 -1279,657l-297 340z"/>
  <path class="fil1" d="M23426 24546c72,-13 167,-47 248,-65 554,-126 515,-302 733,-824l202 -429c-114,42 -299,170 -396,235 -291,198 -398,376 -567,683l-220 400z"/>
  <path class="fil2" d="M15149 8860c179,-41 231,-81 483,-122 170,-27 371,43 516,94 170,59 556,234 726,330 37,21 62,44 97,59 57,-38 158,-150 157,-227 -198,-183 -690,-373 -956,-425 -166,-33 -460,-61 -611,6 -110,48 -364,208 -412,285z"/>
  <path class="fil1" d="M0 24612l0 626c255,-116 915,-612 1148,-815 91,-80 118,-72 120,-145 -53,-2 -465,146 -619,182l-649 152z"/>
  <path class="fil4" d="M0 1700l0 42c317,38 850,146 1119,263 459,202 485,223 897,500 140,94 275,177 417,276 142,98 271,190 420,284 140,88 277,176 435,258 102,53 309,154 424,191 48,15 38,20 66,-7 24,-42 -12,-41 -105,-102 -238,-157 -616,-475 -846,-665l-908 -831c-74,-73 -138,-136 -216,-215l-203 -229c-34,-37 -65,-86 -97,-119 -44,-47 -60,-67 -102,-113 -66,-72 -127,-153 -199,-233l-396 -468c-92,-110 -284,-374 -341,-532l-47 0c64,175 229,399 325,527 178,235 1066,1236 1181,1353l769 719c199,157 892,762 1049,838 -217,-48 -690,-363 -865,-478 -503,-329 -1129,-806 -1681,-1011 -272,-100 -786,-224 -1096,-248z"/>
  <path class="fil4" d="M15797 9482l-9 94 -156 -54c2,-1 14,-5 17,-7 14,-4 32,-8 45,-11 39,-9 63,-16 103,-22zm947 288c-62,3 -147,-1 -204,-23 -35,-90 -8,-303 40,-380 61,-5 171,-17 231,-5 3,1 7,2 10,3 17,130 -33,298 -77,405zm-254 -31c-122,-13 -252,-46 -374,-70 -63,-12 -114,-28 -171,-44 -61,-17 -122,-19 -116,-92 7,-92 171,-95 314,-116 124,-18 256,-39 385,-44 -26,158 -45,184 -38,366zm-1341 -879c48,-77 302,-237 412,-285 151,-67 445,-39 611,-6 266,52 758,242 956,425 1,77 -100,189 -157,227 -35,-15 -60,-38 -97,-59 -170,-96 -556,-271 -726,-330 -145,-51 -346,-121 -516,-94 -252,41 -304,81 -483,122zm-72 76c40,-8 145,-56 204,-73 324,-94 433,-121 730,-30 146,45 747,288 813,358 -179,7 -639,8 -824,63 -56,16 -21,-8 -41,27 17,13 -1,6 26,11 32,5 51,-4 88,-11 143,-28 557,-55 694,-47 72,4 199,2 212,77 -128,13 -273,2 -409,14 -128,11 -249,23 -377,41 -66,9 -641,96 -689,165 26,44 113,41 163,54 56,15 110,34 165,51 183,55 792,203 981,182 50,-6 61,-5 75,-37 -30,-26 -46,-11 -94,-7 37,-157 78,-239 66,-419 32,0 93,4 121,0 46,-6 43,-10 40,-55 -10,-163 326,-253 35,-422 -210,-122 -385,-207 -643,-288 -208,-66 -595,-143 -821,-75 -171,52 -365,206 -489,329 -31,31 -39,39 -26,92z"/>
  <path class="fil4" d="M0 2970c183,147 411,366 625,540 283,229 859,588 1183,748 517,257 1137,392 1626,703 124,78 356,255 408,365 -36,-14 -157,-96 -205,-126 -404,-250 -745,-311 -1173,-439 -710,-213 -1355,-150 -2037,-530 -126,-70 -292,-158 -427,-205l0 52c90,18 353,161 439,208 142,77 304,139 464,195 378,133 1038,170 1614,340 487,144 722,192 1175,461 33,19 63,41 97,62 18,11 28,15 46,34 39,43 -1,25 39,51 171,-67 -246,-386 -294,-421 -527,-381 -1135,-495 -1678,-753 -189,-89 -343,-188 -518,-289 -490,-282 -555,-350 -948,-675 -150,-124 -296,-261 -436,-378l0 57z"/>
  <path class="fil4" d="M11772 11180c-56,-22 -143,-169 -176,-227 -127,-220 161,-804 285,-844 114,476 -141,408 -109,1071zm-806 -205c-7,-50 -28,-48 -66,-88 -82,-85 -47,-198 -30,-368 17,-163 52,-356 95,-508 22,-76 47,-144 74,-222 114,-327 384,-165 568,-41 -23,42 -73,79 -132,193 -100,194 -115,404 -231,431 -124,28 -166,-116 -213,-104 -20,37 23,75 51,96 146,109 259,49 317,-113 56,-158 135,-398 245,-466 59,22 189,187 214,283 -53,45 -69,49 -117,117 -92,131 -181,363 -213,525 -36,184 16,256 98,372 82,116 108,163 287,200 -84,209 -203,583 -422,378 -96,-89 -84,-171 -148,-158 1,57 284,539 508,31l111 -230c40,45 79,163 154,143 2,-61 10,5 -58,-81 -290,-369 -98,-583 -78,-824 57,-701 -578,-1091 -850,-956 -205,102 -339,1001 -319,1219 7,79 91,161 155,171z"/>
  <path class="fil8" d="M8656 10860c13,-44 18,-30 115,-56l261 -68c50,-14 89,-36 129,-13 -7,19 1,25 -57,40 -88,22 -406,121 -448,97zm603 -68l-106 -430c-132,16 -356,101 -495,137 -191,49 -372,61 -319,325 21,101 55,150 149,169 106,22 182,-28 271,-53 89,-24 446,-116 500,-148z"/>
  <path class="fil4" d="M0 6029c65,33 400,442 1369,770 437,149 892,195 1369,233 150,12 338,17 483,40 -51,8 -127,33 -194,43 -224,35 -464,55 -688,34 -674,-61 -1006,-115 -1652,-327 -325,-106 -423,-177 -687,-286l0 47c266,103 348,180 729,298 640,198 1064,294 1747,320 185,7 790,-57 907,-123 -19,-66 -139,-49 -216,-54 -1116,-73 -1910,-152 -2862,-798 -113,-77 -215,-178 -305,-260l0 63z"/>
  <path class="fil4" d="M0 2300c167,85 1349,935 1632,1123 223,147 1026,498 1094,552 -426,-22 -1214,-409 -1511,-600 -330,-212 -599,-453 -904,-675 -53,-38 -96,-68 -153,-109 -41,-28 -116,-83 -158,-103l0 52c90,37 876,645 982,727 98,76 227,164 349,230 237,128 513,267 781,366 148,54 274,95 442,126 75,14 433,108 455,103 -10,-52 -32,-48 -79,-70l-710 -347c-497,-244 -308,-131 -781,-434 -383,-245 -894,-656 -1250,-874 -65,-39 -126,-84 -189,-115l0 48z"/>
  <path class="fil5" d="M12277 9975l87 279c30,104 81,189 105,270l390 -152c12,-192 -14,-391 34,-571l-616 174z"/>
  <path class="fil4" d="M25400 702l0 -52c-67,29 -240,178 -286,223 -497,484 -540,1062 -859,1685 -64,125 -305,524 -387,622 6,-609 30,-1306 200,-1854 82,-263 176,-499 300,-722 94,-169 195,-314 309,-464l114 -140 -55 0c-544,636 -826,1416 -879,2317 -18,296 -9,695 -51,964 -3,23 -3,3 -2,26 1,20 -1,12 6,26 58,-10 21,-18 112,-153 307,-459 420,-643 629,-1212 172,-467 244,-687 556,-1023 50,-53 216,-207 293,-243z"/>
  <path class="fil4" d="M0 4530c101,43 220,123 325,178 475,249 523,268 1089,433 260,76 536,138 801,210 225,61 615,128 784,235l-841 -56c-535,-45 -1000,-115 -1497,-295 -212,-77 -436,-182 -661,-236l0 45c469,116 669,309 1443,441 275,47 561,81 844,98 151,9 300,16 450,26 62,4 401,48 429,25 -18,-52 -293,-156 -355,-176 -144,-44 -286,-72 -435,-109 -419,-105 -1340,-341 -1666,-492 -221,-103 -574,-317 -710,-374l0 47z"/>
  <path class="fil4" d="M0 7479c56,50 76,100 240,244 87,78 187,149 276,224 174,149 369,262 615,373 222,100 462,211 709,279 257,71 541,103 760,224 -160,32 -603,-16 -777,-38 -359,-45 -976,-197 -1296,-338 -326,-142 -412,-243 -527,-301l0 51c207,122 284,200 549,308 373,152 956,286 1367,337 129,16 720,69 800,7 -5,-30 16,-23 -69,-57 -312,-123 -328,-144 -704,-217 -255,-50 -543,-181 -763,-281 -255,-115 -427,-222 -651,-395l-290 -232c-55,-49 -90,-79 -133,-128 -105,-120 -48,-59 -92,-137 -10,-18 -3,-9 -14,-20l0 97z"/>
  <path class="fil1" d="M15249 1898c136,-72 65,-76 349,-193 418,-173 384,-409 675,-699 28,-28 117,-112 147,-125 -173,1 -417,149 -550,256 -51,41 -91,93 -143,140 -84,76 -428,536 -478,621z"/>
  <path class="fil1" d="M23064 11095c249,-50 467,-174 620,-361 114,-137 173,-347 233,-516 24,-65 57,-120 76,-178 -194,84 -385,321 -502,490 -130,187 -149,262 -312,437 -42,45 -71,88 -115,128z"/>
  <path class="fil4" d="M0 18732c242,12 595,62 816,128 398,117 593,266 892,504 197,157 305,313 455,476 127,138 117,120 233,230 -390,-35 -871,-716 -2396,-565l0 47c184,-43 533,-41 728,-17 1049,126 1452,635 1772,584 -7,-56 -76,-85 -119,-121 -54,-45 -80,-71 -127,-124 -38,-44 -72,-77 -112,-126 -39,-48 -70,-88 -114,-136 -295,-326 -714,-650 -1169,-785 -231,-68 -603,-130 -859,-134l0 39z"/>
  <path class="fil2" d="M1452 24830c204,-698 233,-276 21,-767 -60,-139 -97,-260 -142,-403 -40,79 -10,1430 13,1604l108 -434z"/>
  <path class="fil1" d="M22259 24213c355,-189 286,-530 103,-564 20,147 34,227 -48,346 -36,53 -144,183 -240,155 7,-49 25,-35 75,-58 73,-34 167,-147 173,-237 -98,-96 -41,-53 -67,-184 -197,23 -64,150 -152,295 -37,62 -75,94 -139,133 -137,83 -278,71 -447,61 133,167 519,171 742,53z"/>
  <path class="fil3" d="M10680 11462l543 670c141,168 428,535 555,668 -1,-68 -8,-213 -45,-258l-690 -843c-46,-56 -249,-316 -286,-338 -24,36 -54,62 -77,101z"/>
  <path class="fil3" d="M11772 11180c-32,-663 223,-595 109,-1071 -124,40 -412,624 -285,844 33,58 120,205 176,227z"/>
  <path class="fil4" d="M3667 0l-64 0c114,127 86,79 216,248 121,156 329,372 547,385 181,10 102,-48 251,100 33,33 48,20 67,64 -266,65 -510,-15 -714,-121 -181,-94 -356,-283 -607,-284 -392,-3 -720,265 -1031,-123 -57,-70 -133,-179 -169,-269l-46 0c68,189 263,431 442,496 242,89 555,-74 825,-62 134,7 247,76 332,132 254,169 547,341 893,293 62,-9 132,-39 149,-87 -46,-37 -85,-44 -133,-92 -44,-42 -63,-90 -149,-92 -210,-4 -218,2 -358,-105 -224,-170 -225,-237 -336,-358 -46,-50 -83,-76 -115,-125z"/>
  <path class="fil4" d="M619 16273c329,-378 693,-671 1279,-657 -22,43 -42,54 -80,95 -175,184 -262,361 -541,583 -267,213 -693,158 -955,319l297 -340zm1367 -709c-68,-19 -476,27 -625,88 -330,134 -608,385 -825,651 -37,46 -347,377 -335,402 22,43 92,-17 114,-32 39,-28 72,-45 117,-65 204,-87 599,-79 850,-264 258,-189 415,-438 626,-668 29,-33 77,-60 78,-112z"/>
  <path class="fil1" d="M20087 22693c-46,-66 -40,-44 -139,-52 80,170 128,290 150,509 34,348 15,309 -2,614 155,-206 284,-912 159,-1195l-85 48c15,142 62,78 63,432 0,84 5,107 -36,122 -22,-34 1,-300 -17,-376 -18,-78 -46,-34 -93,-102z"/>
  <path class="fil8" d="M16490 9739c-7,-182 12,-208 38,-366 -129,5 -261,26 -385,44 -143,21 -307,24 -314,116 -6,73 55,75 116,92 57,16 108,32 171,44 122,24 252,57 374,70z"/>
  <path class="fil1" d="M703 25083c103,5 245,-109 311,-157l269 -185 -9 -363c-35,14 -140,111 -178,142 -132,107 -404,373 -393,563z"/>
  <path class="fil4" d="M23426 24546l220 -400c169,-307 276,-485 567,-683 97,-65 282,-193 396,-235l-202 429c-218,522 -179,698 -733,824 -81,18 -176,52 -248,65zm-60 61c25,8 205,-58 261,-71 650,-156 566,-253 840,-910 46,-111 218,-436 218,-477 -78,3 -383,203 -456,251 -346,231 -446,402 -638,759 -43,81 -82,155 -123,229 -63,113 -125,172 -102,219z"/>
  <path class="fil4" d="M15249 1898c50,-85 394,-545 478,-621 52,-47 92,-99 143,-140 133,-107 377,-255 550,-256 -30,13 -119,97 -147,125 -291,290 -257,526 -675,699 -284,117 -213,121 -349,193zm-134 140c105,-10 164,-140 396,-249 510,-239 364,-193 675,-621 198,-272 311,-229 309,-340 -127,-16 -397,103 -484,155 -319,191 -548,555 -766,846 -88,117 -125,125 -130,209z"/>
  <path class="fil4" d="M23064 11095c44,-40 73,-83 115,-128 163,-175 182,-250 312,-437 117,-169 308,-406 502,-490 -19,58 -52,113 -76,178 -60,169 -119,379 -233,516 -153,187 -371,311 -620,361zm952 -1122c-119,56 -257,176 -340,254 -99,94 -176,201 -261,340 -83,136 -155,235 -243,348 -109,140 -361,331 -196,272 64,-22 89,-45 214,-84 208,-65 419,-182 541,-356 160,-230 172,-411 268,-618 14,-31 129,-210 17,-156z"/>
  <path class="fil3" d="M10797 11323c96,140 588,724 732,901 40,50 81,99 122,151 23,29 98,128 129,146l73 -125 -178 -216c-89,-109 -197,11 -363,-307 -165,-315 -146,-250 -328,-456 -36,-41 -100,-109 -136,-139l-51 45z"/>
  <path class="fil8" d="M13395 9269c41,33 114,48 155,78 -8,69 -53,89 -79,153 137,63 124,45 238,-28 70,-44 169,-100 222,-146l-47 -168c-101,-4 -200,-9 -297,-13 -55,-2 -103,-18 -137,22 -16,18 -48,74 -55,102z"/>
  <path class="fil1" d="M22675 23093c164,260 119,286 117,597 15,-24 45,-50 65,-84 108,-183 145,-417 89,-625 -26,-98 -64,-132 -100,-196 -74,79 22,159 26,264 5,146 58,216 21,283 -45,-18 -25,-36 -34,-94 -14,-101 -51,-171 -96,-244l-100 77c11,28 -1,1 12,22z"/>
  <path class="fil7" d="M16744 9770c44,-107 94,-275 77,-405 -3,-1 -7,-2 -10,-3 -60,-12 -170,0 -231,5 -48,77 -75,290 -40,380 57,22 142,26 204,23z"/>
  <path class="fil1" d="M19580 23590c77,-115 199,-412 217,-577 -52,13 -141,40 -167,81 -63,96 -75,24 -111,130 -52,150 -33,229 61,366z"/>
  <path class="fil1" d="M22437 14012c211,35 775,179 881,52 -248,-175 -593,-114 -881,-52z"/>
  <path class="fil4" d="M2504 15740c138,-71 306,-305 717,-296 -29,32 -113,68 -163,98 -61,36 -102,67 -160,101 -52,31 -112,54 -179,71l-159 36c-39,4 -42,-1 -56,-10zm-159 103c22,6 190,-48 279,-65 322,-62 324,-141 615,-282 104,-50 92,-17 120,-58 -43,-108 -450,-7 -603,75 -47,26 -403,275 -411,330z"/>
  <path class="fil4" d="M22020 13271c-144,14 -269,-1 -258,-165 132,9 222,61 258,165zm-342 -222c-45,-12 -125,-73 -159,-54 13,22 -12,13 33,42 46,31 111,53 167,62 -6,136 31,164 126,212 -56,-2 -110,-32 -142,-60 -76,-64 -14,-91 -74,-122 -58,95 99,207 164,222 -119,14 -232,-45 -256,-38 21,121 312,82 445,36 46,-16 114,-14 134,-24 -8,-56 -13,-15 -51,-74 -19,-30 -20,-40 -43,-69 -106,-133 -225,-101 -344,-133z"/>
  <path class="fil4" d="M18055 11325c-38,-52 -94,-23 -155,-2l-311 131c-50,25 -130,53 -118,108 11,52 123,45 183,42 74,-3 97,-44 148,-84 42,-32 77,-56 125,-90 36,-26 116,-59 128,-105z"/>
  <path class="fil4" d="M17456 976c61,-115 252,-363 397,-395 -53,135 -43,157 -138,254 -76,76 -128,107 -259,141zm-164 136c53,17 83,-51 201,-102 104,-45 143,-44 220,-109 39,-32 115,-119 140,-189 70,-195 103,-158 110,-228 -116,12 -305,149 -395,261l-202 275c-25,32 -65,51 -74,92z"/>
  <path class="fil1" d="M2504 15740c14,9 17,14 56,10l159 -36c67,-17 127,-40 179,-71 58,-34 99,-65 160,-101 50,-30 134,-66 163,-98 -411,-9 -579,225 -717,296z"/>
  <path class="fil4" d="M24346 22016c54,-155 249,-348 421,-398 -34,60 -203,311 -273,343 -32,15 -118,47 -148,55zm-55 74c55,14 28,-19 196,-79 113,-41 172,-171 266,-302 24,-33 36,-48 61,-76 148,-162 -99,-47 -162,-14 -147,78 -394,350 -361,471z"/>
  <path class="fil4" d="M16119 10144c2,11 -22,42 74,29 91,-12 178,-49 255,-86 99,-47 214,-121 305,-156 -58,83 -254,160 -286,202 19,13 -2,8 28,10 44,3 171,-84 207,-109 73,-50 89,-72 140,-134 25,-30 28,-24 16,-52 -53,-20 -383,190 -519,243 -68,26 -186,38 -220,53z"/>
  <path class="fil1" d="M17456 976c131,-34 183,-65 259,-141 95,-97 85,-119 138,-254 -145,32 -336,280 -397,395z"/>
  <path class="fil1" d="M24346 22016c30,-8 116,-40 148,-55 70,-32 239,-283 273,-343 -172,50 -367,243 -421,398z"/>
  <path class="fil1" d="M20822 23618c-4,-26 -65,-261 -72,-270 -59,-87 -88,-31 -18,-258l-81 -20c-62,132 -78,165 3,306 40,70 121,198 168,242z"/>
  <path class="fil4" d="M9202 20764c0,-65 -287,-326 -346,-380 -65,-58 -336,-328 -411,-319 4,48 120,114 184,170 66,57 132,114 193,171l271 274c44,44 54,78 109,84z"/>
  <path class="fil4" d="M9199 25400l55 0c-66,-117 -218,-277 -305,-361 -55,-52 -118,-111 -184,-157 -36,-24 -60,-46 -98,-72 -34,-22 -64,-58 -112,-57 8,45 42,59 76,82 87,59 203,147 268,220 53,60 108,92 159,159 38,49 115,132 141,186z"/>
  <path class="fil4" d="M15099 12155c39,29 89,-26 206,-76 254,-109 309,-123 567,-195 127,-35 95,-22 98,-59 -58,-23 -829,232 -871,330z"/>
  <path class="fil4" d="M21267 21152c42,18 633,1 509,-432 -13,-45 -25,-70 -65,-75 -14,69 44,49 36,212 -4,80 -57,137 -97,168 -48,35 -114,55 -182,69 -37,8 -68,13 -106,18 -136,20 -86,4 -95,40z"/>
  <polygon class="fil8" points="9196,10344 9304,10782 9369,10767 9269,10328 "/>
  <path class="fil4" d="M11212 11137c29,-13 28,-11 32,-84 2,-39 6,-77 9,-115 17,-252 -61,-248 -223,-396 -31,-29 -29,-46 -81,-47 4,77 116,97 224,233 98,123 -13,328 39,409z"/>
  <path class="fil4" d="M6654 21072c22,37 229,94 323,134 61,27 273,146 317,127 -5,-29 13,-20 -59,-55 -132,-64 -259,-124 -398,-171 -74,-25 -145,-62 -183,-35z"/>
  <path class="fil3" d="M11708 12147l159 203c20,-17 0,7 25,-26l50 -94c4,-37 -54,-88 -83,-109l-151 26z"/>
  <path class="fil1" d="M22020 13271c-36,-104 -126,-156 -258,-165 -11,164 114,179 258,165z"/>
  <path class="fil4" d="M8656 10860c42,24 360,-75 448,-97 58,-15 50,-21 57,-40 -40,-23 -79,-1 -129,13l-261 68c-97,26 -102,12 -115,56z"/>
  <path class="fil4" d="M4147 21844c38,30 18,16 113,-22 41,-17 75,-27 121,-37l207 -33c50,-9 41,-1 55,-33 -51,-44 -457,50 -496,125z"/>
  <path class="fil4" d="M6974 20311c19,34 94,34 186,65 49,16 136,67 179,49 -6,-32 -1,-28 -72,-54l-237 -73c-48,-4 -27,-9 -56,13z"/>
  <path class="fil4" d="M11318 11242c74,16 60,-62 177,5 36,21 97,82 134,86 9,-60 -86,-109 -134,-132 -63,-31 -164,-27 -177,41z"/>
  <path class="fil4" d="M22465 13465c51,12 110,-10 158,-34 20,-10 6,-1 20,-15 -32,-60 -208,-87 -178,49z"/>
  <path class="fil3" d="M15797 9482c-40,6 -64,13 -103,22 -13,3 -31,7 -45,11 -3,2 -15,6 -17,7l156 54 9 -94z"/>
  <polygon class="fil3" points="11912,12105 11973,12176 12044,12053 "/>
 </g>
</svg>
