<?xml version="1.0" encoding="UTF-8"?>
<!DOCTYPE svg PUBLIC "-//W3C//DTD SVG 1.1//EN" "http://www.w3.org/Graphics/SVG/1.1/DTD/svg11.dtd">
<!-- Creator: CorelDRAW Home & Student X7 -->
<svg xmlns="http://www.w3.org/2000/svg" xml:space="preserve" width="254mm" height="254mm" version="1.1" style="shape-rendering:geometricPrecision; text-rendering:geometricPrecision; image-rendering:optimizeQuality; fill-rule:evenodd; clip-rule:evenodd"
viewBox="0 0 25400 25400"
 xmlns:xlink="http://www.w3.org/1999/xlink">
 <defs>
  <style type="text/css">
   <![CDATA[
    .fil6 {fill:none}
    .fil2 {fill:#00BDB8}
    .fil7 {fill:#019A96}
    .fil5 {fill:#020402}
    .fil9 {fill:#3A7CD1}
    .fil4 {fill:#3D3D3D}
    .fil8 {fill:#489AFE}
    .fil1 {fill:#A9A819}
    .fil10 {fill:#BABABA}
    .fil11 {fill:#D9BD2C}
    .fil3 {fill:#E0E0E3}
    .fil0 {fill:#F1F106}
    .fil12 {fill:#F9E063}
    .fil13 {fill:#FDFDFD}
   ]]>
  </style>
 </defs>
 <g id="Layer_x0020_1">
  <metadata id="CorelCorpID_0Corel-Layer"/>
  <rect class="fil0" width="25400" height="25400"/>
  <path class="fil1" d="M16954 23615c4,0 1742,1711 1796,1785l572 0c-24,-45 -1678,-1679 -1800,-1801 -102,-103 -197,-198 -301,-300l-223 -221c-49,-49 -34,-63 -58,-98l-4 171c11,10 5,6 20,15l47 22c180,96 170,360 -64,398 2,51 0,15 15,29zm8446 -18689l0 -600 -1481 -1619c-162,-186 -330,-356 -491,-542 -41,-46 -84,-92 -125,-136 -196,-214 -438,-494 -617,-678l-1110 -1219c-37,-43 -90,-89 -114,-132l-546 0 1672 1846c204,215 382,416 563,619 354,395 788,846 1122,1230l985 1082c46,49 87,107 142,149zm0 1041l0 -121 -1295 -1461c-113,-120 -217,-256 -324,-369l-1290 -1459c-104,-112 -211,-235 -319,-362 -408,-478 -884,-983 -1289,-1461 -109,-128 -207,-229 -325,-367 -54,-63 -292,-319 -317,-367l-112 0c20,41 120,140 158,183 54,64 108,122 165,187 106,122 221,255 330,375 224,246 435,503 660,748l655 743c191,229 458,511 661,746 317,369 673,750 984,1118 309,364 689,763 992,1121 35,41 632,727 666,746zm0 4389l0 -601c-49,-36 -102,-105 -143,-150l-1526 -1676c-178,-198 -365,-410 -552,-607 -189,-199 -372,-424 -557,-614 -93,-95 -173,-192 -276,-303l-832 -917c-358,-406 -757,-816 -1110,-1219 -431,-493 -939,-1021 -1384,-1524l-418 -457c-226,-256 -2051,-2244 -2072,-2288l-547 0 1170 1295c367,387 811,913 1180,1296 47,50 100,108 145,162 48,55 98,107 147,160 53,59 94,102 146,160l1915 2107c192,203 395,446 585,642l2947 3243c62,66 1127,1253 1182,1291zm-13382 -5710c66,-5 303,-15 338,-39 -44,-9 -97,9 -144,11 -35,-11 -2120,-2212 -2210,-2306l-830 -863c-151,-163 -1328,-1381 -1375,-1449l-86 0c30,53 708,750 818,865 92,97 189,192 277,291 87,96 183,191 272,285l1106 1154c89,92 182,186 278,290 175,190 366,385 548,577l827 866c68,70 249,244 275,298 -68,0 -18,-9 -60,4 -55,17 -11,1 -34,16zm-1059 209c31,-9 54,-17 86,-25 13,-3 35,-7 45,-10 42,-14 16,2 41,-20 -69,-4 -113,-76 -169,-131 -311,-309 -710,-733 -1016,-1051l-1166 -1208c-404,-430 -769,-784 -1168,-1207l-1016 -1052c-43,-44 -108,-105 -140,-151l-166 0c36,62 1784,1851 2042,2119 102,105 177,190 296,306 102,97 187,202 289,302 116,114 189,197 290,300l1609 1663c33,35 132,128 143,165zm-10959 -3124c53,38 700,710 765,776l2684 2746c117,122 267,269 382,390 120,126 256,261 383,390l1150 1178c58,59 747,740 762,802l208 -67c-69,-13 -66,-32 -109,-74 -360,-355 -715,-741 -1086,-1106 -138,-136 -260,-273 -396,-410 -270,-272 -512,-517 -788,-803 -372,-386 -825,-831 -1184,-1213 -357,-380 -803,-820 -1186,-1210l-1185 -1212c-67,-71 -127,-135 -196,-203 -76,-74 -150,-161 -204,-200l0 216zm0 5010c76,59 187,183 261,256l1312 1302c151,151 341,347 529,527 201,194 355,357 522,523l1448 1437c93,92 115,95 103,162 36,-35 59,-188 74,-247 23,-90 51,-185 67,-273 -36,20 -85,-52 -141,-108 -49,-48 -89,-88 -137,-136 -426,-431 -915,-925 -1343,-1337 -369,-356 -698,-706 -1076,-1071 -367,-355 -715,-714 -1076,-1071l-543 -533 0 569zm0 2293c45,29 407,402 478,473l3248 3239c80,79 79,40 75,171 16,-21 17,-23 21,-78l71 -514c-49,-15 -11,4 -48,-28l-455 -454c-305,-303 -666,-682 -965,-966 -186,-177 -328,-331 -483,-483l-1700 -1696c-55,-56 -189,-202 -242,-235l0 571zm0 5008c44,31 113,120 154,163 60,64 99,109 157,172l2003 2211c52,60 120,97 134,187 26,-31 54,-207 68,-265 22,-85 52,-172 71,-254 -44,8 -21,9 -51,-25l-281 -311c-110,-117 -214,-241 -323,-358l-1610 -1776c-58,-65 -102,-114 -163,-178 -45,-47 -107,-132 -159,-167l0 601zm0 2205l911 995c96,117 206,222 309,338l1196 1315c23,18 1,7 35,20l-93 -351 13 87c-38,-20 -15,-6 -43,-32l-557 -613c-211,-232 -390,-431 -589,-649l-1029 -1129c-43,-46 -111,-131 -153,-160l0 179zm0 6020l2802 3133 160 0c-29,-50 -680,-769 -735,-830 -367,-405 -741,-841 -1109,-1243l-1118 -1241 0 181zm3191 -2504c38,13 88,77 114,106 36,43 66,75 107,120l1537 1689c142,166 296,324 439,481 190,210 688,775 877,963 75,75 141,161 221,245l221 250 -6 49c19,-29 42,-164 49,-203 -29,-14 -605,-643 -693,-746 -206,-239 -473,-517 -687,-756 -75,-83 -148,-158 -227,-249 -201,-231 -512,-545 -689,-755 -244,-291 -639,-696 -909,-999l-227 -250c-40,-46 -68,-77 -113,-125 -38,-40 -73,-91 -121,-125 26,82 107,238 107,305zm186 -1963l19 -11c45,28 200,212 252,271l747 819c1,1 4,3 5,3 2,1 5,2 6,2 1,1 4,2 6,2 -57,-101 -122,-188 -182,-295 -93,-165 -220,-439 -289,-620l-112 -334c-1,-5 -3,-6 -5,-8l-3 19c-51,-65 -117,-126 -172,-190 -49,-57 -119,-140 -177,-189l10 -88c-38,42 -97,528 -105,619zm2474 2692l92 100c165,191 414,444 573,632l492 542c46,47 135,128 143,189 24,-24 185,-475 187,-485 -3,3 -7,7 -9,9l-27 15 -483 -539c-161,-181 -323,-350 -480,-534l23 -5c-32,-24 -67,-25 -112,-39 -43,-13 -69,-25 -107,-41 -63,-26 -151,-80 -204,-96l177 157c132,95 182,75 185,139 -80,39 -340,-31 -450,-44zm12273 -9573c55,26 2585,2689 2728,2841 296,317 625,639 912,952l905 946c146,149 306,330 453,479 176,178 304,314 456,475l1822 1900 0 -96c-45,-26 -1735,-1806 -1815,-1890l-4069 -4258c-160,-160 -301,-320 -455,-476l-790 -824c-39,-39 -92,-81 -110,-140l-37 91zm637 1993c128,112 270,283 402,413l415 426c323,337 721,732 1038,1075 313,338 713,735 1038,1074 140,145 281,290 418,435l1659 1715c292,298 553,566 833,859 131,136 278,287 412,429l424 430 0 -174c-43,-28 -157,-152 -217,-214 -73,-74 -139,-144 -210,-221 -252,-275 -594,-610 -861,-889l-2143 -2219c-146,-153 -266,-280 -426,-436l-1289 -1336c-419,-417 -866,-903 -1289,-1335 -76,-78 -142,-146 -213,-219l-219 -213c38,73 78,135 115,204 26,51 74,166 113,196zm4381 12488l214 0c-34,-61 -3566,-3647 -3855,-3950 -625,-656 -1302,-1316 -1932,-1975 -572,-599 -1205,-1224 -1807,-1851 -29,-30 -96,-89 -121,-124l48 -3c-24,-15 -15,-14 -80,-13l-262 -4c-54,-2 -252,-7 -306,5 -7,1 -18,9 -20,6 -2,-3 -6,2 -9,3 73,5 175,-5 255,-4 105,1 149,-5 202,52 219,235 502,512 741,758 321,329 650,673 988,1011 336,335 638,664 989,1011 172,169 311,331 494,506 180,171 310,329 499,512 309,298 674,694 989,1010 328,327 670,702 994,1016 277,270 718,731 988,1012 88,92 957,963 991,1022z"/>
  <path class="fil2" d="M13371 25400l-5993 0c0,0 2106,-3297 2285,-3327 179,-30 432,35 537,87 106,53 549,212 985,494 436,282 979,777 1264,1095 284,317 655,806 845,1099 189,294 289,552 289,552l-212 0z"/>
  <path class="fil3" d="M17335 12566c-36,-22 -29,-27 -29,-81 0,-289 -5,-390 -40,-697 -21,-9 -234,-76 -133,-119 14,-6 122,-4 146,-3 64,4 68,7 76,70 11,99 14,194 16,294 2,55 0,87 9,136 8,42 -4,71 -4,125 0,102 29,238 -41,275zm124 -2460c8,65 183,384 226,471 130,255 153,252 -59,415 -292,225 -359,234 -628,394 -65,39 -171,77 -190,161 93,56 108,58 106,108 -75,34 -218,-50 -279,-62 -53,-11 -59,29 -84,-19 -12,-8 -241,-87 -282,-103 -103,-43 -173,-85 -260,-137 -302,-182 -228,-150 -435,-356 -69,4 -244,59 -288,23 -1,-56 69,-49 134,-59l513 -85c209,-35 480,-63 675,-112 49,-185 -341,-90 -423,-97 -64,-4 -127,30 -190,47 -89,-1 -308,98 -354,76 -47,-47 90,-114 144,-166 276,-259 264,-375 162,-660l-644 -226c-93,0 -1231,222 -1264,189 -25,-58 12,-50 64,-65l300 -120c135,-50 278,-95 414,-143 150,-52 296,-76 446,-123 74,-23 26,2 203,46 72,18 141,36 217,56 292,80 597,154 892,231 209,55 721,178 887,231l-3 85zm-7105 3677c10,-12 21,-5 7,-69 -65,-296 76,-406 71,-480 -74,-23 -170,-79 -228,-117 -42,-26 -65,-41 -100,-70 -23,-18 -68,-65 -87,-74 -52,-36 -174,-107 -227,-121 -134,-41 -257,-176 -326,-267 -41,-55 -78,-111 -107,-189 -26,-69 -32,-150 -55,-219 -19,-21 -8,0 -15,-33 -6,-31 -2,-7 0,-34l14 -194c31,-339 67,-178 233,-225 58,-16 93,-50 135,-74 112,-71 145,-111 316,-157 15,-11 0,-24 93,-19 -24,-78 -43,-147 -80,-207 -60,-97 -81,-165 -139,-147 -24,155 -58,164 -135,250 -38,41 -167,171 -217,171 -4,-113 283,-222 279,-380l-5 -52c-145,32 -250,101 -314,185 -141,183 -82,168 -111,243l-20 48c-18,26 5,14 -33,20 -23,-22 -24,-19 -31,-64 -3,-15 -4,-31 0,-47 1,-4 2,-7 3,-11 1,-5 4,-8 5,-11 1,-4 5,-5 6,-12 1,-7 4,-7 7,-11 16,-272 72,-256 190,-411 52,-68 213,-276 354,-264 208,18 416,633 516,876 14,33 15,83 25,123 26,109 20,165 -41,233 -39,43 -118,105 -92,193 35,120 192,268 260,355 44,57 86,111 131,176 75,110 133,292 185,425 30,25 49,55 73,77 97,91 93,50 192,183l28 34c1,-2 5,5 7,7 46,82 147,589 225,791 196,506 355,936 696,1314 80,88 470,418 536,464 505,349 1177,677 1758,922 605,254 1523,570 2194,469 155,-23 424,-67 526,-145 124,-95 173,-396 161,-508 -15,-59 9,-127 7,-191 -3,-59 -10,-119 -18,-176 -21,-157 -87,-467 -150,-602 -89,-188 -129,-141 -149,-235 -22,-19 -166,-74 -205,-92 -76,-34 -138,-84 -196,-106l-363 -357c-28,-28 -31,-38 -68,-60 -41,-24 -25,-10 -58,-49 -59,-4 -91,24 -148,-4 -39,-78 85,-128 160,-108 200,34 834,-75 1045,-120 163,-34 303,-93 455,-123 290,-57 350,46 455,101 17,-105 -10,-264 -27,-372 -10,-61 -21,-118 -22,-184 -1,-66 16,-135 9,-196 -18,-48 -41,-14 -159,-73 -45,-23 -99,-58 -142,-85 -92,-59 -158,-95 -216,-171 -21,-29 -21,-8 -21,-54 83,-46 1274,-163 1444,-167l1 -33c-3,-57 -84,-187 -112,-250 -39,-87 -76,-150 -119,-234 -81,-153 -161,-296 -245,-459l-248 -467c-75,-125 -132,-202 -198,-337l-61 -110 210 -540c105,-263 149,-269 139,-607 -13,-479 -16,-932 -105,-1389 -124,-633 -192,-886 -443,-1433 -198,-434 -116,-214 -279,-471 -71,-112 -98,-105 -181,-181 -54,79 12,125 -236,-26 -82,-49 -161,-88 -253,-133 -130,-64 -387,-208 -541,-229l129 130c12,17 9,10 11,30 7,88 -211,-75 -356,-140 -381,-172 -882,-272 -1309,-233 66,40 240,59 192,145 -34,20 -241,-26 -306,-29 -123,-5 -239,-10 -363,-9 -504,7 -1294,253 -1690,488l199 18c15,83 -54,81 -116,117 -97,56 -361,233 -405,301 120,-20 317,-100 423,-72 -4,81 -101,102 -164,136 -226,126 -389,311 -479,374 209,-20 575,-227 645,-132 -17,37 -19,29 -57,50 -173,90 -733,510 -779,599 52,-6 89,-17 136,-28l277 -39c356,-72 -96,170 -112,191 64,26 572,65 656,204 -20,59 -54,62 -79,68 -181,37 -479,263 -588,386 60,-9 166,-66 222,-45 9,53 -6,55 -36,87 -18,20 -35,43 -56,69l-217 283c-32,42 -75,89 -100,141 50,-18 104,-66 154,-49 9,18 9,8 7,36 -3,31 -98,175 -115,204 -32,56 -111,173 -129,222 31,-31 141,-111 191,-88 11,75 -191,306 -224,402 137,-39 273,-176 43,208 -145,240 -176,314 -219,575l-110 673c-28,179 -17,179 -113,287 -82,92 -181,229 -273,318 -81,78 -31,87 -97,96 -23,-51 2,-109 -6,-186 -14,21 -36,40 -53,70 -27,50 -7,55 -53,75 -46,-27 -42,-105 -64,-210 -16,-72 -33,-146 -49,-216 -33,-148 -67,-286 -102,-431 -62,-250 -141,-409 -197,-608 -32,-111 -249,-383 -339,-458 -142,-118 -232,-48 -355,41 -220,160 -384,313 -547,510 -92,109 -99,253 -105,425 -7,175 -17,340 -27,512 -25,444 -69,587 179,856l814 787c23,22 15,12 34,35 42,50 52,51 104,89l148 111z"/>
  <path class="fil4" d="M8388 9917c29,-34 47,-16 103,-6 266,49 688,22 942,-47 301,-82 575,-200 836,-322 262,-122 503,-276 745,-414 111,-63 714,-365 807,-342 15,66 -82,80 -149,104 -289,105 -609,261 -855,439 -312,227 -613,429 -993,551 -130,42 -275,70 -426,84 -94,9 -965,81 -1010,-47zm1959 -1727c10,-38 -1,-24 40,-40l392 -143c71,-26 153,-55 228,-79 38,-12 167,-62 203,-57 29,5 9,-2 28,13 -10,39 12,19 -40,42 -8,4 -48,16 -59,20 -37,12 -76,24 -112,35l-454 160c-57,21 -172,89 -226,49zm50 -1614c5,-54 43,-45 104,-62l365 -112c91,-33 151,-63 245,-86 42,-11 75,-27 115,-43 47,-17 80,-15 131,-28l504 -141c102,-16 214,-9 317,-1 178,12 253,-15 246,63 -62,23 -451,56 -553,69 -250,31 -765,146 -1002,226 -77,26 -418,143 -472,115zm-677 -328c11,-42 -1,-26 51,-44 326,-114 648,-234 987,-320 396,-101 758,-163 1186,-202 407,-37 933,-52 1343,-8 247,26 666,68 900,144 71,22 208,49 216,123 -46,26 -76,-11 -128,-30 -138,-53 -260,-80 -410,-104 -727,-116 -1181,-119 -1926,-64 -631,46 -1359,224 -1957,446 -74,27 -218,90 -262,59zm2875 -1199c-66,-5 -88,4 -86,-51 32,-14 470,16 543,20 178,8 350,31 516,66 506,106 1276,388 1736,604 135,64 268,120 387,193 62,38 117,74 184,111 32,17 61,32 99,48 56,22 73,11 66,71 -70,29 -329,-149 -385,-183 -477,-284 -1611,-690 -2128,-791 -305,-60 -498,-60 -796,-78 -47,-3 -93,-6 -136,-10zm-4269 2629c-114,104 -604,530 -586,714 7,74 5,161 15,230 177,101 665,-67 751,-34 7,74 -82,64 -149,75 -64,10 -123,20 -186,29 -169,22 -256,14 -416,-5 2,93 2,194 -2,286 -4,98 -21,165 39,229 129,141 396,43 446,67 -1,63 -46,64 -104,70 -239,24 -368,-91 -393,-81 -60,543 66,812 459,1093 212,151 321,127 333,191 -103,64 -446,-203 -496,-245 -162,-137 -217,-195 -319,-426 -8,155 5,701 56,814 43,95 129,181 194,238 77,70 247,123 257,175 -103,63 -429,-249 -436,-288 -13,100 106,731 133,876 52,278 113,559 202,808 37,101 100,276 150,361 120,208 669,376 1039,172l71 -54c-91,-107 -181,-168 -273,-294 -96,15 -411,45 -416,-77 38,-17 272,95 379,18 -25,-78 -67,-108 -75,-227 -11,-145 38,-657 40,-851 2,-170 4,-404 71,-534 61,-118 250,-275 277,-332 -55,1 -215,24 -251,2 3,-44 -10,-31 44,-41 218,-40 214,45 411,-113 2,-2 5,-4 7,-6l108 -96c95,-69 207,-173 341,-112 239,110 184,297 380,232 155,-52 304,-144 426,-223 67,-44 135,-91 193,-136l355 -304c64,-65 98,-107 164,-165 216,-188 154,-143 311,-348 51,-66 242,-292 282,-374 -89,17 -209,95 -273,81 -8,-58 28,-69 60,-104 80,-87 170,-154 263,-226 55,-42 127,-94 197,-132 52,-28 176,-76 212,-103 -145,-78 -339,-123 -511,-142 -51,-6 -174,1 -189,-5 1,-47 5,-39 39,-63 22,-15 40,-27 61,-41 43,-29 79,-50 115,-75 -85,1 -483,78 -563,104 -161,53 -307,131 -467,192l-739 248c-56,17 -208,88 -247,44 12,-26 5,-18 31,-32 60,-32 532,-170 610,-196 270,-92 502,-207 766,-301 59,-21 113,-20 156,-61l164 -165c166,-153 359,-271 538,-412 -81,15 -191,48 -277,71 -80,21 -205,81 -274,68 -15,-61 80,-125 112,-151 49,-42 96,-85 145,-128 102,-90 189,-148 302,-225 -50,0 -120,18 -168,31 -31,8 -51,14 -83,20 -229,43 113,-212 148,-240 83,-66 199,-131 287,-196 -345,-63 -707,39 -1002,129 -311,96 -571,181 -855,304 -341,147 -877,403 -1223,514 -74,24 -146,48 -223,73 -54,17 -176,74 -202,11 28,-30 115,-38 160,-53 54,-18 105,-35 161,-55 312,-111 610,-240 909,-375 524,-236 1379,-586 1948,-619 172,-10 203,-36 329,-103 396,-210 841,-336 1297,-406 80,-12 326,-19 376,-45 -372,-29 -796,-70 -1175,-39 -67,6 -322,49 -354,40 -8,-68 117,-68 171,-77 69,-11 150,-20 219,-24 172,-10 340,-2 511,-1 161,0 320,9 478,26 114,12 344,57 437,55 -102,-68 96,-69 130,-71 301,-11 395,-8 699,48 141,26 268,61 398,103 151,49 239,106 352,145 -26,-37 -51,-47 -41,-97 129,-44 654,232 805,312 73,39 174,112 246,138 -24,-143 -45,-181 -119,-277 -39,-51 -183,-147 -164,-209 52,-6 105,74 147,113 213,204 111,231 227,318l149 112c-43,-90 -135,-218 -193,-294l-344 -395c-73,-74 -177,-179 -260,-240l-133 -106c-236,-191 -957,-645 -1253,-703 172,53 593,331 729,432 164,121 345,237 494,381 32,31 47,37 78,69 89,94 39,119 -107,-17 -236,-221 -811,-618 -1083,-747 -117,-55 -234,-107 -358,-164l-282 -115c-150,-73 -757,-200 -934,-224 -934,-132 -1902,-47 -2795,206 -128,36 -269,83 -391,130 -67,25 -129,48 -189,73 -64,26 -118,57 -180,74 28,13 79,2 115,-4 39,-7 76,-15 115,-22l704 -65c5,60 -43,55 -101,63 -383,52 -566,73 -960,191 -376,113 -634,239 -884,435 -180,143 -464,384 -602,557 -23,28 -49,56 -73,85 -170,201 -422,558 -503,816 36,-18 128,-98 176,-132 97,-69 504,-321 583,-318 20,76 -114,113 -162,138 -193,97 -401,217 -552,357 -140,130 -138,182 -201,399 -43,144 -77,351 -80,519l209 -264c33,-39 83,-86 118,-120 519,-510 994,-744 1726,-898 64,-13 359,-86 383,-11 -34,39 -157,32 -215,41 -78,12 -145,26 -220,42 -525,112 -1027,316 -1413,666z"/>
  <path class="fil5" d="M16574 23543l245 28c72,367 -256,488 -273,217 -3,-43 1,-83 6,-126l22 -119zm-1462 -330c50,8 173,67 227,93 6,34 -6,134 115,169l237 56c113,33 371,123 469,125 26,-57 26,-69 39,-143l244 17c0,47 -57,395 -233,387 -60,-3 -922,-257 -989,-278 -186,-59 -176,-126 -133,-291 14,-55 11,-84 24,-135zm784 63c-1,-60 49,-97 84,-116 58,-32 477,13 551,24 121,17 249,22 373,34 101,10 224,144 146,228 -55,113 -155,77 -286,59 -109,-14 -794,-64 -837,-94 -33,-23 -51,-75 -43,-110 7,-26 1,-10 12,-25zm977 -121l-260 -17c-2,-57 -37,-254 154,-254 134,0 133,161 106,271zm-1339 -237c131,9 354,92 495,110 51,6 120,12 147,55 -2,1 -6,0 -8,4 -14,33 -292,-70 -340,181 -16,84 17,156 71,194 69,48 151,24 236,39l-7 81c-54,8 -456,-115 -557,-144 -53,-16 -140,-26 -169,-71 3,-2 7,-6 8,-4l34 -4c41,3 72,25 149,-7 169,-71 150,-289 21,-378l-72 -48c-2,-2 -5,-5 -8,-8zm-989 -119c2,-55 55,-98 111,-113 80,-22 272,69 349,102 61,27 110,35 168,61l314 137c72,19 107,33 143,86 28,42 49,135 -2,173 -75,141 -258,14 -437,-64l-596 -242c-66,-27 -80,-102 -50,-140zm677 11c1,-73 52,-124 97,-153 121,-77 489,41 621,73 125,31 281,62 398,99 163,50 251,80 211,297l-259 -20c-26,-50 -21,-63 -83,-88l-439 -109c-101,-24 -193,-71 -290,-23 -64,31 -191,-47 -256,-76zm-1498 -338c38,12 83,47 117,72 163,117 62,146 172,215 25,15 34,12 61,29l403 278c57,39 56,61 131,80 56,-34 43,-48 80,-99 52,1 168,55 224,81 -3,28 -166,369 -347,283 -36,-18 -54,-42 -94,-66l-686 -473c-64,-46 -146,-78 -161,-168 -14,-91 63,-171 100,-232zm523 -218c51,0 258,146 314,183 104,66 256,117 282,222 -78,-5 -96,-54 -199,-31 -54,12 -111,57 -139,101 -33,51 -48,121 -15,188 42,85 87,62 138,109l-27 48c-42,-14 -585,-388 -602,-420 127,15 219,37 287,-75 65,-107 11,-248 -39,-325zm908 521c-71,-2 -173,-59 -247,-83 -16,-83 61,-73 -166,-209 -129,-77 -407,-290 -507,-284 -91,5 -136,-53 -251,-136 22,-59 73,-112 148,-129 153,-33 451,196 571,270 87,54 450,258 482,347 39,108 4,141 -30,224zm-1870 -974c78,-132 227,-18 298,35l538 394c79,52 188,179 118,310 -76,144 -244,33 -324,-24 -94,-68 -195,-135 -289,-200 -98,-69 -193,-131 -287,-201 -49,-37 -88,-58 -111,-129 -28,-84 8,-151 57,-185zm51 498c27,-16 52,-42 72,-63l189 129c-19,58 -100,137 -150,170 -111,73 -154,44 -232,-24 -34,-29 -55,-38 -89,-70 -29,-26 -56,-49 -93,-78l-531 -446c-52,-45 -137,-95 -102,-213 19,-64 108,-139 136,-193 46,12 71,42 100,68 37,31 51,37 86,72 0,36 -44,158 78,219 44,23 369,300 436,359 35,32 45,53 100,70zm-280 -926c49,4 384,283 447,332 -88,-7 -142,-33 -221,18 -123,79 -156,233 -69,359 38,56 116,85 143,126 -46,36 -85,-29 -160,-87l-309 -259c-39,-34 -130,-87 -122,-146 57,-3 178,127 311,-18 104,-114 29,-239 -20,-325zm869 639l-217 -153c-92,-87 119,21 -313,-312 -62,-49 -227,-191 -284,-216 -59,-27 -60,-2 -107,-2 -39,0 -150,-107 -215,-151 24,-61 95,-114 169,-132 90,-23 160,33 214,65 74,45 107,75 172,124 57,43 109,83 166,129l332 258c123,114 220,188 83,390zm-625 -893c100,18 1674,574 1819,624 152,53 305,106 455,158 546,190 465,88 707,520 48,87 184,316 209,399 -35,-10 -24,-15 -57,-28 -67,-28 -751,-179 -862,-208 -49,-14 -118,-20 -178,-12 -60,7 -92,38 -131,51 -29,-165 -94,-192 -225,-276l-691 -434c-25,-9 -73,-27 -93,-32 -89,-23 -148,5 -210,29 -26,-274 -81,-272 -312,-449 -67,-51 -407,-306 -431,-342zm-1163 -228c113,-114 305,69 410,163l372 299c61,52 200,123 136,264 -25,57 -63,96 -149,87 -81,-7 -151,-108 -273,-201l-268 -221c-29,-24 -45,-34 -69,-56 -32,-28 -35,-36 -66,-59 -20,-14 -131,-96 -136,-102 -49,-62 -11,-148 43,-174zm669 47c60,29 90,26 123,58 -36,17 -63,30 -99,58 -13,9 -140,129 -112,38 4,-12 28,-34 36,-46 22,-30 39,-78 52,-108zm-674 403c45,-38 53,-51 77,-100 39,13 163,115 193,149 -25,58 -212,329 -377,187 -117,-100 -232,-188 -352,-295 -116,-103 -237,-197 -353,-295 -54,-45 -143,-96 -135,-199 5,-66 93,-174 129,-201 65,30 144,98 198,117 -29,105 1,167 83,212l349 287c75,64 129,129 188,138zm-291 -922c45,-1 104,59 135,82l256 198c25,16 47,26 70,44 37,27 50,26 56,68 -74,2 -102,-34 -195,-3 -56,18 -102,60 -125,102 -90,168 67,224 127,287l-40 72c-56,-22 -246,-198 -307,-247l-224 -185c-33,-25 -48,-31 -36,-89 14,7 203,188 352,22 43,-47 60,-122 38,-207 -20,-75 -70,-109 -107,-144zm829 644c-46,-20 -69,-49 -109,-80 -37,-29 -67,-46 -105,-81 -4,-100 8,-98 -55,-144 -111,-81 -220,-183 -324,-256 -46,-32 -70,-49 -111,-82 -36,-28 -71,-65 -140,-55 -132,20 -61,-1 -268,-107 33,-96 187,-252 386,-111 36,26 53,30 92,56l608 470c56,48 116,94 120,186 3,75 -66,166 -94,204zm-1719 -1034c80,-53 170,29 278,95l506 311c27,20 207,77 158,240 -22,63 -58,108 -147,103 -82,-3 -121,-58 -162,-90 -107,-83 -393,-239 -525,-337 -68,-51 -201,-80 -214,-165 -14,-90 45,-137 106,-157zm23 486c15,-27 16,-22 30,-49 14,-27 5,-25 26,-52 36,10 170,95 200,124 -14,56 -82,162 -117,197 -76,76 -132,68 -225,13 -70,-42 -136,-70 -209,-109l-626 -340c-74,-38 -141,-83 -121,-190l99 -226c53,7 179,76 214,110 -4,33 -46,151 93,205 95,37 317,160 417,217 94,53 148,98 219,100zm-1375 -783c14,-16 29,-29 45,-46 62,16 135,72 207,100l-25 69c-23,-6 -205,-103 -227,-123zm1812 78c57,15 93,83 86,160 -7,77 -46,132 -70,193 -45,-7 -186,-99 -225,-124 -1,-90 14,-53 -31,-124 -55,-23 -370,-172 -396,-209 69,-3 127,-5 194,-13 42,-6 142,-29 173,-26 34,3 222,98 269,143zm-797 -97c48,6 212,98 274,126 54,25 89,36 143,61 48,23 86,56 107,97 -63,-25 -93,-60 -192,-33 -70,20 -117,67 -143,119 -33,67 -20,140 18,188 50,63 110,55 152,108l-34 60c-56,-11 -276,-140 -347,-179 -59,-32 -113,-61 -169,-91 -74,-39 -133,-42 -132,-134 65,8 45,29 186,58 56,12 133,57 176,36 3,-64 -11,-30 -54,-68 38,-38 88,-82 88,-170 0,-64 -41,-149 -73,-178zm-3294 -102l374 20c117,159 87,373 34,569 -41,154 -99,294 -178,424 -23,37 -14,32 -42,53 24,-152 66,-194 93,-467 12,-127 12,-261 -12,-390 -10,-59 -5,-84 -58,-90 -26,43 17,187 19,251 3,98 0,196 -14,291 -15,107 -205,284 -285,321 91,-346 117,-369 98,-737 -3,-58 -33,-211 -29,-245zm2215 -150c48,-6 239,77 306,97 107,33 220,68 334,86 104,18 259,38 344,77 85,39 160,172 74,266 -78,85 -206,9 -293,-36 -91,-48 -193,-100 -276,-144l-416 -209c-66,-28 -83,-52 -73,-137zm-881 -63c106,62 284,298 756,477 75,29 283,73 325,95 -140,123 -496,-123 -599,-184 -95,-56 -179,-106 -272,-161 -98,-57 -204,-90 -210,-227zm551 -4l73 -67 198 96c1,55 -7,113 17,155 41,70 65,40 87,100 -70,18 -125,-56 -206,-120 -45,-36 -140,-126 -169,-164zm209 1583l515 139c47,13 39,2 60,43 46,92 23,223 1,328 -13,60 -48,292 -61,323l-331 32c-46,5 -298,42 -314,50 -11,57 -5,43 23,64l151 18c-28,35 -265,131 -420,241 -260,185 -477,402 -694,612 -250,242 -684,787 -887,1079l-377 612c-36,66 -73,155 -115,212 7,-82 142,-533 175,-641 33,-104 73,-200 112,-297l137 -278c3,-58 153,-327 186,-377 29,-44 68,-70 57,-131 -87,5 -243,348 -276,413 -41,80 -78,141 -116,225 -34,76 -69,181 -102,241 -25,86 -71,160 -104,257l-263 806c13,-221 128,-579 191,-812l34 -104c2,-2 4,-5 6,-8 -3,-55 122,-442 150,-515 175,-460 277,-730 529,-1151 48,-80 136,-179 112,-205 -37,-41 -77,40 -119,96 -213,288 -595,1095 -595,1095l-180 480c-53,161 -97,337 -148,495 -3,-188 70,-546 103,-743 41,-251 86,-486 142,-722 57,-236 116,-455 187,-677 142,-446 257,-840 452,-1263 95,-205 199,-127 477,-386 404,-377 446,-762 393,-1291 33,19 56,48 74,72 42,56 15,51 23,125 17,143 198,222 291,276l451 265c108,52 224,99 356,74 48,-9 64,-25 97,-51 51,-40 57,-15 117,-30 19,-50 -4,-70 -29,-86l68 16c-27,111 -234,344 146,492 -9,124 -134,320 -144,665 -39,6 -363,-85 -437,-107 -60,-19 -121,-55 -104,29zm-426 -1822l233 143c-15,37 -14,33 -54,48 -71,-36 -149,-166 -179,-191zm-2952 -24c42,21 108,72 154,102 274,174 648,307 975,355 104,15 103,37 117,145 12,89 14,170 14,262 -419,40 -966,-446 -1210,-783 -14,-18 -42,-72 -50,-81zm9377 1698c-52,2 -725,-216 -869,-261 -62,-19 -251,-99 -297,-64 8,56 114,69 216,100 77,24 171,52 234,75 107,25 210,62 313,95 328,104 827,267 1146,352 50,14 41,0 64,38 23,39 85,245 100,297 36,130 -20,205 -71,297 -43,78 -107,196 -155,253 -83,-3 -706,-236 -837,-282l-624 -215c-40,-14 -64,-23 -101,-36 -44,-15 -78,-21 -107,-47 -35,3 -780,-250 -820,-279l-782 -265c-5,-62 -7,-79 -23,-133 -27,-13 -50,-64 -76,-92 -52,-53 -647,-487 -740,-576 -102,-19 -155,-95 -301,-31 -32,14 -83,56 -105,77 -32,31 -47,77 -92,84 -20,-39 33,-94 49,-164 15,-62 33,-149 -4,-208 -20,-34 -98,-105 -128,-122 -49,-28 -136,-43 -157,-93 53,-27 95,-38 131,-71l-8 -61c-154,-21 -172,-16 -291,-86 -167,-97 -520,-439 -571,-567 15,2 563,151 605,187 27,-1 1316,377 1372,406l55 -1 -3 -45c-213,-61 -447,-133 -668,-202 -213,-66 -468,-125 -666,-202 -153,-35 -424,-128 -601,-179 -30,-9 -60,-18 -96,-29 -53,-15 -60,-8 -89,-46 -65,-81 -370,-558 -393,-667 72,10 141,40 202,62 64,24 127,35 195,55 135,39 261,76 396,116l3943 1157c264,78 525,155 790,232 260,76 539,172 791,230 1,210 -18,400 -46,603 -24,166 -94,456 -100,549 -57,1 -318,-89 -392,-112 -65,-20 -124,-38 -191,-59 -32,-11 -67,-22 -96,-30l-78 -24c-17,-9 -13,-7 -24,-16zm-2430 -4259l1276 694c216,135 369,168 446,218l-146 1853 -1075 -313 -377 -1834c-40,-192 -98,-424 -124,-618zm-2360 -2105c32,4 248,116 306,143 655,298 359,38 647,726 117,279 191,343 385,536 64,65 176,131 261,194 216,160 350,233 550,369 176,119 130,35 178,277 53,270 466,2202 462,2289l-2486 -730c-138,-25 -319,-93 -460,-133 -145,-42 -313,-85 -456,-134 -49,-16 -45,-31 -67,-80 -16,-37 -28,-63 -46,-102l-165 -425c-37,-115 -32,-137 -29,-265 15,-558 137,-1357 -45,-1911 -22,-67 -67,-151 -78,-209 369,70 708,-218 921,-465 28,-32 55,-92 97,-106 27,17 16,16 25,26zm481 -749l262 1016c-136,-38 -605,-265 -745,-338 54,-181 139,-57 328,-253 108,-112 144,-221 155,-425zm-7472 1889c-6,132 15,588 -4,676 -72,324 -149,566 -222,948 -50,265 -92,549 -112,821 -10,141 -10,326 -2,466 10,150 37,287 51,432 147,537 169,378 341,670 -203,-53 -423,-418 -515,-635 -160,-374 -283,-1066 -149,-1469 48,-147 72,-310 119,-459 36,-113 267,-836 249,-887l-39 3c-31,115 -79,251 -117,374 -40,130 -71,260 -110,388 -209,680 -388,1381 -217,2098 28,119 93,295 109,398 -152,-75 -309,-344 -396,-554 -98,-235 -164,-497 -195,-757 -95,-782 145,-1693 417,-2407 182,-478 346,-889 564,-1344 95,-198 184,-356 268,-563l29 -64c20,-29 -4,-3 20,-23 -3,299 -43,629 -64,925 -11,155 -9,313 -12,468 -4,163 -20,334 -13,495zm7412 -1863c10,317 -262,534 -549,507 -10,-1 -22,-2 -32,-5 -39,-10 -11,3 -34,-15 -149,10 -453,-244 -352,-586 32,17 81,61 115,88 35,26 87,56 104,102 41,111 81,178 212,199 176,5 227,-69 283,-199 22,-318 -223,-263 -262,-359 -27,-65 -7,-136 31,-165 72,-41 446,52 484,433zm-2574 -502c154,0 201,68 538,-7 220,-49 269,-97 420,-208 66,25 328,323 417,395 31,25 38,31 73,63 46,43 45,24 74,69 -17,50 -167,222 -215,269 -151,149 -247,125 -225,232 98,6 390,-234 441,-282 29,199 60,293 174,394 100,90 237,146 423,144 -102,245 -482,568 -774,640 -68,17 -132,27 -203,8 -86,-23 -80,-47 -113,-117 189,-22 233,-20 391,-98 95,-46 264,-140 259,-231 -64,-20 -47,16 -125,80 -103,85 -328,189 -472,191 -114,3 -105,-42 -209,-225 -203,-357 -460,-647 -710,-1051l-164 -266zm-317 -521c-4,34 202,440 240,505 91,160 188,317 291,471 363,544 598,759 869,1414 95,227 101,366 142,618 30,187 -37,1206 -54,1462 -24,-35 -90,-189 -101,-238 -35,-168 -29,-817 16,-988 31,68 -6,127 66,136 28,-52 -4,-261 -13,-354 -6,-57 -1,-75 -56,-82 -41,40 -79,473 -84,533 -15,209 5,403 5,608 -32,-29 -42,-68 -66,-119 -123,-267 -77,-108 -84,-486 -4,-210 -18,-498 -53,-695 -45,-255 -153,-624 -263,-861 -20,-45 -42,-84 -66,-128 -29,-55 -31,-100 -92,-99 -5,63 108,219 159,385 42,138 99,282 124,421 58,322 75,695 62,1039 -42,-32 -120,-217 -144,-265 -297,-589 -463,-1161 -601,-1806 -22,-104 -62,-243 -69,-348 73,48 72,168 160,164 -1,-69 -116,-215 -153,-265 -64,-87 -75,-197 -100,-321 -24,-123 -144,-621 -135,-701zm-1653 242c-4,-163 29,-359 47,-521 44,-373 98,-620 158,-976 107,-634 220,-1191 496,-1775l176 -378c70,237 30,259 -27,471 -133,496 -206,845 -368,1358 -126,403 -289,942 -382,1356 -25,114 -64,382 -100,465zm3861 -2349c282,-58 684,-339 846,-485 55,-50 117,-103 175,-153 61,-53 112,-111 167,-163 52,-50 114,-112 173,-156 44,-32 162,-109 204,-122 -46,82 -92,163 -141,241 -30,48 -149,194 -119,245 61,24 127,-62 183,-90 -37,88 -256,345 -225,437 55,1 29,-14 92,-59 27,-20 65,-36 101,-50 -20,51 -68,117 -97,168 -17,29 -35,66 -50,87 -96,144 -95,201 -242,404 -120,166 -99,146 -244,280 -149,137 -279,158 -289,220 89,42 317,-161 363,-203 168,-154 197,-257 263,-320 -7,123 -43,284 -63,407 -18,110 -59,509 -121,582l-150 191c-24,35 -28,28 -56,58 -35,37 -58,89 -109,114 1,-261 -57,-135 -145,-27 -39,-125 -68,-297 -95,-428 -86,-424 -159,-514 -244,-824 -54,-197 -95,-192 -177,-354zm-6184 5135c-55,-153 -43,-1066 -42,-1298 2,-1090 218,-2415 554,-3431 229,-692 671,-1632 1171,-2170 219,-236 445,-436 734,-596 143,-78 299,-154 472,-183 28,43 77,209 87,267 -76,37 -151,62 -228,100 -164,84 -457,277 -575,402 -84,90 -254,251 -315,332l-281 367c-132,178 -382,631 -470,824 -135,295 -277,608 -378,917 -497,1521 -679,2845 -729,4469zm3127 -6859c20,123 59,146 -16,240 -40,50 -97,149 -138,175 -9,49 -168,262 -202,315 -96,146 -304,506 -381,663 -161,326 -337,768 -481,1110 -392,935 -746,2272 -922,3293 -25,147 -48,301 -65,458 -6,56 -54,446 -44,467 56,-3 38,-18 58,-69 82,-736 99,-806 245,-1514 49,-239 101,-486 160,-715l164 -597c9,-35 13,-60 36,-84 -5,-74 408,-1223 448,-1270 24,-91 91,-232 127,-319 109,-263 270,-630 396,-865 99,-185 540,-941 661,-1032 -4,48 -126,240 -159,296 -126,224 -194,374 -307,603 -167,340 -384,909 -533,1283l-94 316c1,3 3,7 3,9l10 18c44,-13 27,-9 41,-65 11,-47 49,-180 79,-205 3,-63 87,-243 116,-316 23,-56 103,-270 129,-303 18,-79 94,-241 127,-314 47,-104 85,-206 129,-303 40,-87 249,-522 287,-573 -10,44 -60,141 -82,187 -147,316 -248,688 -325,1026 -17,74 -35,146 -50,222 -8,42 -15,78 -21,116 -9,57 -3,75 -26,102 10,94 -76,483 -97,603 -79,434 -115,823 -147,1263 -16,211 -45,450 -50,658 -90,982 -118,2507 127,3481l200 719c20,61 40,197 97,217l20 -35c-34,-127 -178,-509 -174,-610 -2,-2 -4,-9 -5,-8 -1,2 -4,-5 -5,-7 -39,-76 -123,-503 -153,-679 -44,-261 -65,-506 -88,-778 -27,-325 -26,-1358 0,-1685l110 976c28,181 121,580 179,775 14,46 17,68 69,64 12,-89 -92,-576 -113,-700 -69,-397 -103,-1163 -68,-1561 14,-156 27,-652 81,-750 13,245 -12,495 3,747 50,805 91,1152 283,1967 94,400 213,787 318,1184 53,201 99,393 159,589l127 431c25,102 25,116 75,114 13,-29 -56,-346 -68,-407 -86,-441 -105,-922 -154,-1368 -34,-309 -58,-614 -92,-916 -34,-295 -98,-612 -118,-907 -32,-289 -43,-576 -46,-875 -3,-295 -13,-645 1,-930 -82,-2 -49,46 -54,249 -9,312 1,582 0,889 3,231 14,465 44,688 15,105 88,590 75,657 45,63 123,1057 130,1127 13,125 111,1103 103,1127 -302,-1110 -630,-2194 -716,-3354 -21,-289 -19,-852 -5,-1169l19 -157c-17,-131 46,-600 69,-750 60,-382 89,-525 199,-874 27,-84 59,-208 89,-272 -2,200 -51,406 -56,622 -4,171 -19,516 15,667l43 1 5 -82c-40,-55 -8,-610 1,-718l57 -496c8,-53 12,-138 33,-166 -5,-42 22,-247 37,-286 14,-121 67,-318 98,-440 35,-141 76,-285 113,-422 157,274 192,914 263,1278l93 675c3,134 22,221 21,364 -4,1153 -5,2303 -24,3457 1,194 14,384 45,570 9,59 72,412 96,463 17,37 5,30 48,36 36,-60 -47,-181 -40,-292 -20,-22 -6,4 -18,-41 -2,-9 -7,-37 -8,-48 -6,-37 -12,-71 -18,-110 -94,-553 -22,-1048 27,-1593 26,-294 69,-569 93,-873 23,-304 6,-636 36,-941l223 1087c29,62 74,341 94,430 94,421 193,859 342,1259 107,288 354,810 510,1091 206,371 268,548 420,920 29,70 62,119 87,186 145,398 360,794 594,1134 22,33 30,55 51,84l123 151c149,188 336,388 548,523 -92,-32 -324,-176 -392,-225 -371,-272 -632,-628 -867,-1043 -154,-271 -254,-567 -384,-887 -141,-345 -255,-538 -424,-848l-39 -3c-6,56 148,307 198,412 65,139 134,274 195,418 260,621 390,1065 856,1597 160,183 365,377 583,496 39,22 72,35 97,67 -289,-28 -920,-352 -1126,-480 -312,-193 -689,-472 -870,-752 -27,-47 -84,-120 -90,-179l-52 -3c-11,162 332,498 419,573 177,151 360,288 580,420 380,227 789,412 1233,506 48,10 176,23 209,36 -143,66 -550,8 -710,-26 -487,-106 -1080,-396 -1437,-743 -33,-31 -69,-92 -113,-71 -17,39 20,62 49,90 402,394 1011,689 1575,798l65 18c2,1 5,2 8,3 -402,-1 -829,-149 -1148,-286 -219,-95 -489,-262 -656,-423 -173,-167 -578,-883 -693,-1114 -76,-154 -159,-325 -226,-489 -44,-107 -183,-437 -201,-535 -87,-149 -344,-1204 -312,-1425 -1,-2 -3,-9 -3,-7l-14 -230c1,-42 3,-84 5,-125 3,-57 20,-94 -27,-113 -37,21 -32,112 -34,192 -9,466 103,997 230,1429 73,245 158,471 245,697 85,220 192,456 295,649 154,286 294,551 473,811 25,37 20,44 41,84 65,128 565,679 658,762l180 160c35,30 22,31 66,58 48,30 258,167 293,171 -183,18 -575,-179 -698,-253 -310,-185 -586,-430 -679,-777 -58,-218 -284,-602 -416,-797 -28,-41 -60,-127 -124,-112 -8,67 97,149 119,220 58,27 302,525 343,644 25,71 30,124 57,192 168,419 95,1016 -215,1361 -120,134 -443,389 -598,398 -23,26 -49,35 -94,36 199,-199 395,-725 342,-1049 -10,-60 -39,-103 -49,-147l372 -48 102 -31c-5,-43 -15,-45 -46,-61 -21,-12 -38,-19 -68,-26 -71,-24 -410,-163 -482,-220l-21 -20c-54,-7 -305,-186 -322,-219 -128,-60 -416,-383 -514,-505 -303,-378 -542,-885 -641,-1381 -28,-143 -52,-297 -63,-448 -6,-85 3,-443 -12,-474l-37 -2c-33,73 -11,364 -8,466 48,899 495,1766 1144,2320 31,26 268,204 275,214 46,18 109,63 158,91 51,30 104,59 161,89 55,27 115,55 172,78 52,21 132,45 173,71 -97,44 -426,52 -551,51 -688,-8 -1759,-356 -1905,-1109 -58,-295 -154,-748 -153,-1059l17 35c3,10 6,23 10,36l62 209c152,443 420,808 776,1088 60,47 359,287 478,270l6 -33c-35,-25 -121,-57 -169,-86 -61,-36 -101,-64 -157,-105 -583,-421 -879,-919 -1001,-1656 -88,-533 -75,-443 -77,-984 -4,-189 13,-378 21,-565 4,-92 57,-490 25,-534 -71,9 -27,38 -50,123 -8,30 -2,12 -11,25l-37 693c-27,1228 84,3015 765,4059 27,42 45,66 76,105 26,34 69,70 83,104 57,27 76,91 284,202 -377,8 -782,-266 -937,-463 -85,-107 -187,-302 -239,-465 -62,-195 -80,-418 -81,-634 -31,-22 -1,-8 -46,-11 -28,127 15,398 42,538 79,402 354,786 665,1037 38,30 59,40 80,86 -70,-5 -133,-24 -182,-33 -307,-22 -598,-232 -785,-415 -42,-42 -81,-75 -123,-116 -48,-47 -66,-68 -108,-131 -31,-45 -67,-94 -96,-141 -199,-321 -178,-308 -267,-688 -67,-288 -74,-335 -91,-626 -5,-71 10,-175 -61,-165 -28,129 53,562 42,622 0,1 -1,4 -2,6 -160,-217 -265,-482 -386,-747 -228,-496 -315,-1359 -340,-1931 -16,-380 0,-763 11,-1141 29,63 18,184 24,266 7,94 13,181 20,273 12,185 33,355 55,539 27,225 82,525 127,756 14,68 19,192 80,211 33,-36 -21,-213 -35,-280 -22,-105 -37,-211 -56,-319 -131,-758 -150,-1323 -151,-2100 0,-238 7,-493 27,-726 8,-103 42,-244 40,-330 -2,-113 17,-233 31,-345 55,-440 128,-861 208,-1296 73,-392 203,-790 299,-1185 188,-768 461,-1301 948,-1862 139,-160 328,-293 547,-396 136,-65 415,-172 578,-178l-51 25c-17,6 -39,13 -60,20 -40,15 -74,27 -114,45 -220,96 -394,207 -568,362l-160 148c-481,465 -821,1149 -995,1798 -24,89 -127,458 -77,521 55,-17 50,-135 74,-250 136,-656 340,-1124 722,-1664 188,-266 421,-490 686,-677 124,-88 289,-175 452,-229 117,-39 476,-122 596,-63 -64,37 -193,74 -273,113 -248,122 -396,23 -755,438 -279,322 -266,336 -481,700l-148 249c-872,1426 -1200,3434 -1222,5123 -6,503 30,1008 81,1504 34,322 36,775 59,1137l17 279c6,59 0,52 42,60 35,-49 1,-297 -3,-356 -23,-374 -34,-737 -34,-1113 -1,-2098 369,-4755 1505,-6507 52,-80 105,-149 160,-226 191,-269 484,-577 758,-764 108,-74 364,-239 518,-269l49 224c-201,64 -485,373 -611,512l-170 204c-871,1124 -1382,2365 -1752,3747 -58,216 -90,412 -141,609 -16,60 -75,166 17,170 17,-22 158,-679 186,-786 192,-720 462,-1524 785,-2168 50,-101 112,-217 161,-327 48,-107 121,-217 179,-309 259,-409 278,-475 595,-882 205,-264 329,-413 607,-620 48,-36 104,-77 164,-100 11,69 45,154 60,215zm205 -650l1 -2c-5,76 49,264 64,355 41,251 64,491 71,747 3,119 42,318 -115,277 -56,-35 -64,-140 -76,-211 -14,-83 -35,-175 -37,-258 -18,-33 -51,-242 -69,-306l-165 -609c-19,-62 -95,-228 -80,-286 132,-71 134,57 172,161 63,174 216,732 205,873 50,52 -7,145 74,149 41,-67 -121,-668 -140,-784l-115 -348 245 -9 -4 50c3,2 5,6 7,7 2,2 5,5 7,7 2,2 5,4 7,6 2,2 5,4 6,5 14,10 0,4 21,10 40,-51 -27,-172 124,-167 -5,80 -27,176 -32,264 -15,234 25,503 10,817 -24,-65 -42,-291 -58,-385 -20,-122 -51,-243 -77,-359l-46 -4zm11342 5035c105,76 -297,301 -359,334 -83,43 -165,78 -252,111 -145,54 -163,89 -269,96l-27 42c7,61 -10,130 -9,196 1,66 12,123 22,184 17,108 44,267 27,372 -27,125 -180,329 -285,328 -187,-3 -241,-62 -557,-62 -195,0 -419,19 -606,2 -93,-8 -190,-13 -278,-31 -44,-9 -87,-23 -122,-37 -18,-7 -45,-18 -56,-23l-51 -35c-75,-20 -199,30 -160,108 57,28 89,0 148,4 52,-36 118,10 175,26 295,84 790,30 1086,41 130,5 263,50 409,58 -9,39 -26,42 -37,95 -9,40 -8,86 -8,129 7,290 21,218 -168,355 -72,52 -63,53 -211,12 -212,-57 -497,-153 -682,-274 -44,-28 -69,-38 -75,24 58,22 120,72 196,106 39,18 183,73 205,92 153,38 283,102 457,134 13,93 -91,646 -114,797 -10,72 4,220 -33,273 12,112 -37,413 -161,508 -102,78 -371,122 -526,145 -671,101 -1589,-215 -2194,-469 -581,-245 -1253,-573 -1758,-922 -66,-46 -456,-376 -536,-464 -341,-378 -500,-808 -696,-1314 -78,-202 -179,-709 -225,-791l-47 2c-12,43 -19,58 -45,83 -110,-215 -447,-332 -530,-238 -46,51 -49,165 -23,234 40,109 93,59 173,111 155,99 138,459 -295,168l-148 -111c-52,-38 -62,-39 -104,-89 -19,-23 -11,-13 -34,-35l-814 -787c-248,-269 -204,-412 -179,-856 10,-172 20,-337 27,-512 6,-172 13,-316 105,-425 163,-197 327,-350 547,-510 123,-89 213,-159 355,-41 90,75 307,347 339,458 56,199 135,358 197,608 35,145 69,283 102,431 16,70 33,144 49,216 22,105 18,183 64,210 46,-20 26,-25 53,-75 17,-30 39,-49 53,-70 8,77 -17,135 6,186 66,-9 16,-18 97,-96 92,-89 191,-226 273,-318 96,-108 85,-108 113,-287l110 -673c43,-261 74,-335 219,-575 230,-384 94,-247 -43,-208 33,-96 235,-327 224,-402 -50,-23 -160,57 -191,88 18,-49 97,-166 129,-222 17,-29 112,-173 115,-204 2,-28 2,-18 -7,-36 -50,-17 -104,31 -154,49 25,-52 68,-99 100,-141l217 -283c21,-26 38,-49 56,-69 30,-32 45,-34 36,-87 -56,-21 -162,36 -222,45 109,-123 407,-349 588,-386 25,-6 59,-9 79,-68 -84,-139 -592,-178 -656,-204 16,-21 468,-263 112,-191l-277 39c-47,11 -84,22 -136,28 46,-89 606,-509 779,-599 38,-21 40,-13 57,-50 -70,-95 -436,112 -645,132 90,-63 253,-248 479,-374 63,-34 160,-55 164,-136 -106,-28 -303,52 -423,72 44,-68 308,-245 405,-301 62,-36 131,-34 116,-117l-199 -18c396,-235 1186,-481 1690,-488 124,-1 240,4 363,9 65,3 272,49 306,29 48,-86 -126,-105 -192,-145 427,-39 928,61 1309,233 145,65 363,228 356,140 -2,-20 1,-13 -11,-30l-129 -130c154,21 411,165 541,229 92,45 171,84 253,133 248,151 182,105 236,26 83,76 110,69 181,181 163,257 81,37 279,471 251,547 319,800 443,1433 89,457 92,910 105,1389 10,338 -34,344 -139,607l-210 540 61 110c66,135 123,212 198,337l248 467c84,163 164,306 245,459 43,84 80,147 119,234 28,63 109,193 112,250zm-8688 -8070c62,-17 116,-48 180,-74 60,-25 122,-48 189,-73 122,-47 263,-94 391,-130 893,-253 1861,-338 2795,-206 177,24 784,151 934,224l282 115c124,57 241,109 358,164 272,129 847,526 1083,747 146,136 196,111 107,17 -31,-32 -46,-38 -78,-69 -149,-144 -330,-260 -494,-381 -136,-101 -557,-379 -729,-432 296,58 1017,512 1253,703l133 106c83,61 187,166 260,240l344 395c58,76 150,204 193,294l-149 -112c-116,-87 -14,-114 -227,-318 -42,-39 -95,-119 -147,-113 -19,62 125,158 164,209 74,96 95,134 119,277 -72,-26 -173,-99 -246,-138 -151,-80 -676,-356 -805,-312 -10,50 15,60 41,97 -113,-39 -201,-96 -352,-145 -130,-42 -257,-77 -398,-103 -304,-56 -398,-59 -699,-48 -34,2 -232,3 -130,71 -93,2 -323,-43 -437,-55 -158,-17 -317,-26 -478,-26 -171,-1 -339,-9 -511,1 -69,4 -150,13 -219,24 -54,9 -179,9 -171,77 32,9 287,-34 354,-40 379,-31 803,10 1175,39 -50,26 -296,33 -376,45 -456,70 -901,196 -1297,406 -126,67 -157,93 -329,103 -569,33 -1424,383 -1948,619 -299,135 -597,264 -909,375 -56,20 -107,37 -161,55 -45,15 -132,23 -160,53 26,63 148,6 202,-11 77,-25 149,-49 223,-73 346,-111 882,-367 1223,-514 284,-123 544,-208 855,-304 295,-90 657,-192 1002,-129 -88,65 -204,130 -287,196 -35,28 -377,283 -148,240 32,-6 52,-12 83,-20 48,-13 118,-31 168,-31 -113,77 -200,135 -302,225 -49,43 -96,86 -145,128 -32,26 -127,90 -112,151 69,13 194,-47 274,-68 86,-23 196,-56 277,-71 -179,141 -372,259 -538,412l-164 165c-43,41 -97,40 -156,61 -264,94 -496,209 -766,301 -78,26 -550,164 -610,196 -26,14 -19,6 -31,32 39,44 191,-27 247,-44l739 -248c160,-61 306,-139 467,-192 80,-26 478,-103 563,-104 -36,25 -72,46 -115,75 -21,14 -39,26 -61,41 -34,24 -38,16 -39,63 15,6 138,-1 189,5 172,19 366,64 511,142 -36,27 -160,75 -212,103 -70,38 -142,90 -197,132 -93,72 -183,139 -263,226 -32,35 -68,46 -60,104 64,14 184,-64 273,-81 -40,82 -231,308 -282,374 -157,205 -95,160 -311,348 -66,58 -100,100 -164,165l-355 304c-58,45 -126,92 -193,136 -122,79 -271,171 -426,223 -196,65 -141,-122 -380,-232 -134,-61 -246,43 -341,112l-108 96c-2,2 -5,4 -7,6 -197,158 -193,73 -411,113 -54,10 -41,-3 -44,41 36,22 196,-1 251,-2 -27,57 -216,214 -277,332 -67,130 -69,364 -71,534 -2,194 -51,706 -40,851 8,119 50,149 75,227 -107,77 -341,-35 -379,-18 5,122 320,92 416,77 92,126 182,187 273,294l-71 54c-370,204 -919,36 -1039,-172 -50,-85 -113,-260 -150,-361 -89,-249 -150,-530 -202,-808 -27,-145 -146,-776 -133,-876 7,39 333,351 436,288 -10,-52 -180,-105 -257,-175 -65,-57 -151,-143 -194,-238 -51,-113 -64,-659 -56,-814 102,231 157,289 319,426 50,42 393,309 496,245 -12,-64 -121,-40 -333,-191 -393,-281 -519,-550 -459,-1093 25,-10 154,105 393,81 58,-6 103,-7 104,-70 -50,-24 -317,74 -446,-67 -60,-64 -43,-131 -39,-229 4,-92 4,-193 2,-286 160,19 247,27 416,5 63,-9 122,-19 186,-29 67,-11 156,-1 149,-75 -86,-33 -574,135 -751,34 -10,-69 -8,-156 -15,-230 -18,-184 472,-610 586,-714 386,-350 888,-554 1413,-666 75,-16 142,-30 220,-42 58,-9 181,-2 215,-41 -24,-75 -319,-2 -383,11 -732,154 -1207,388 -1726,898 -35,34 -85,81 -118,120l-209 264c3,-168 37,-375 80,-519 63,-217 61,-269 201,-399 151,-140 359,-260 552,-357 48,-25 182,-62 162,-138 -79,-3 -486,249 -583,318 -48,34 -140,114 -176,132 81,-258 333,-615 503,-816 24,-29 50,-57 73,-85 138,-173 422,-414 602,-557 250,-196 508,-322 884,-435 394,-118 577,-139 960,-191 58,-8 106,-3 101,-63l-704 65c-39,7 -76,15 -115,22 -36,6 -87,17 -115,4zm2193 -596c-35,24 -272,34 -338,39 -139,7 -318,42 -454,67 -100,18 -363,89 -433,87 -25,22 1,6 -41,20 -10,3 -32,7 -45,10 -32,8 -55,16 -86,25 -336,79 -974,345 -1245,508 -45,27 -79,48 -121,73 -390,227 -773,536 -1073,869 -359,398 -689,961 -792,1536 -104,19 -132,15 -171,89 -165,6 -228,35 -298,-24 -73,-61 -153,-49 -211,28 -14,18 -2,6 -16,21 -390,-80 -535,0 -698,-9l-208 67c-208,40 -582,263 -696,371 -90,87 -176,170 -258,275 -79,101 -148,186 -228,294 -147,198 -261,442 -366,692 -54,128 -105,251 -149,384 -43,126 -70,275 -113,399 -16,88 -44,183 -67,273 -15,59 -38,212 -74,247 1,70 -59,241 -80,326 -29,114 -54,226 -77,344 -32,168 -126,553 -125,707l-71 514c-4,55 -5,57 -21,78 12,65 -36,431 -51,509 -47,239 -413,927 -525,1192 -128,301 -215,485 -336,801 -53,139 -106,275 -155,412 -47,130 -94,307 -147,425 -19,82 -49,169 -71,254 -14,58 -42,234 -68,265 3,79 -54,315 -69,416 -39,267 -70,645 -56,912 6,117 43,370 35,461l93 351c118,282 268,521 492,703 58,47 166,135 238,171l10 -26c0,-67 -81,-223 -107,-305 -60,-189 -113,-363 -151,-570 -26,-141 -78,-578 -25,-694 1,3 3,4 3,9 27,291 139,690 268,939 96,186 389,625 645,563 13,-54 -20,-65 -50,-89 -33,-26 -45,-46 -72,-76 -161,-183 -248,-351 -300,-610 -66,-329 -77,-791 -25,-1130 8,-91 67,-577 105,-619 -8,-140 123,-562 156,-720 36,78 65,466 85,594l101 574c2,2 4,3 5,8l112 334c69,181 196,455 289,620 60,107 125,194 182,295 63,126 45,-7 104,260 62,289 227,540 403,756 49,60 130,131 189,186 121,113 298,246 459,313 96,40 193,57 284,91 110,13 370,83 450,44 -3,-64 -53,-44 -185,-139l-177 -157c53,16 141,70 204,96 38,16 64,28 107,41 45,14 80,15 112,39 117,-5 388,75 425,12 93,-156 -390,127 -837,-989 -52,-129 -174,-441 -190,-583 165,128 235,431 608,755 176,153 569,472 930,444 -3,128 -24,227 -53,346 -14,61 -90,250 -77,284 96,17 265,-182 332,-221 -14,96 -70,262 -118,345 -29,49 -54,41 -50,98 70,26 203,-48 272,-62l-204 471c-18,43 -41,121 -62,154 -2,10 -163,461 -187,485 0,66 -84,283 -109,366 -38,121 -73,243 -107,371 -64,248 -117,522 -185,771 -7,39 -30,174 -49,203 1,73 -65,331 -84,422 -31,145 -63,290 -92,430 -55,260 -141,616 -162,882l388 0c83,-323 373,-838 535,-1120 247,-427 914,-1270 1291,-1606 212,-188 456,-406 708,-542 260,-140 260,-129 462,-84l128 31c45,16 17,0 40,21 94,-2 483,163 575,205 342,157 694,368 987,592 300,229 573,463 835,744 128,135 250,272 373,423 201,246 330,429 502,690 37,57 135,185 143,250 48,34 209,356 221,396l231 0 -32 -137c-38,-95 -75,-270 -107,-385 -36,-135 -70,-268 -109,-403 -73,-259 -149,-544 -214,-788l-48 -1c-20,75 59,416 62,532 -53,-71 -244,-602 -313,-544 -34,28 33,108 70,176l251 579c81,224 215,614 232,868 -52,-66 -101,-183 -147,-260 -53,-86 -99,-169 -154,-255 -110,-172 -214,-325 -332,-486 -615,-832 -1500,-1627 -2446,-2053 -92,-41 -200,-79 -291,-122 530,-60 1173,402 1292,189l-25 -51c-78,-12 -248,-98 -335,-134 -371,-153 -727,-256 -1142,-301 5,-294 118,-334 58,-672 152,13 959,278 1120,346 66,28 60,33 91,91l213 333c52,78 285,385 297,437 59,39 10,72 97,64 5,-63 -76,-148 -124,-216 -93,-133 -385,-531 -423,-642 -45,-40 -17,-68 -107,-111 -55,-27 -108,-43 -163,-63 -59,-22 -307,-90 -341,-115 -109,-23 -229,-70 -338,-104 -114,-36 -232,-62 -353,-91 -15,-67 -17,-207 26,-255 -3,-51 27,-168 49,-209l56 -182c64,5 401,204 469,240 79,41 156,86 228,123 38,19 76,44 125,48 86,7 89,-17 147,-35 31,62 3,86 113,182l502 418c240,204 360,372 574,180 84,-75 107,-138 155,-157l35 34c-23,73 -307,261 -73,467l782 650c138,106 265,21 361,-87 19,-22 23,-31 39,-52 23,-28 17,-31 52,-29 14,103 -254,274 40,471 148,99 283,191 431,296 392,276 554,502 837,-23l80 21c13,133 -153,390 98,498l530 152c105,30 452,144 545,143 109,-2 161,-79 197,-150 41,-80 51,-177 84,-253 4,179 -59,396 151,418 102,10 152,-47 184,-109 31,-57 33,-178 42,-253 22,25 258,515 274,568 68,65 465,1041 519,1204l62 0c-37,-141 -124,-327 -177,-462 -115,-290 -264,-598 -403,-880 -36,-74 -194,-392 -201,-443 -15,-14 -13,22 -15,-29 234,-38 244,-302 64,-398l-47 -22c-15,-9 -9,-5 -20,-15l4 -171c-23,-78 -43,-123 -120,-142 -182,-14 -122,25 -226,56l-220 -426c-38,-60 -76,-133 -113,-198 -43,-77 -83,-127 -125,-198 16,-48 96,-169 126,-221 40,-70 89,-148 116,-224 56,-156 -101,-412 -122,-534 -12,-63 82,-467 97,-583 12,-97 58,-563 49,-630 -116,-47 -313,-95 -446,-133 -206,-59 -1295,-368 -1339,-402l147 -1847 248 -4c3,-1 7,-6 9,-3 2,3 13,-5 20,-6 54,-12 252,-7 306,-5l262 4c65,-1 56,-2 80,13 70,-15 274,-8 362,-12 272,-13 738,-54 967,-160 284,-131 242,-520 287,-842 14,-108 38,-216 55,-328 11,-76 37,-434 77,-479 26,-30 65,-59 108,-85 83,-50 153,-87 160,-221 5,-111 -32,-256 32,-337 98,-123 276,-208 309,-442 29,-206 -95,-467 -47,-687 14,-34 127,-76 164,-92 154,-69 811,-315 758,-539 -25,-105 -149,-257 -160,-361 -39,-30 -87,-145 -113,-196 -37,-69 -77,-131 -115,-204 -10,-31 -76,-150 -95,-188 -34,-65 -69,-126 -105,-191 -74,-132 -132,-260 -213,-389 -38,-61 -74,-115 -112,-183 -46,-83 -86,-118 -50,-214 55,-149 110,-289 166,-428l37 -91c31,-94 82,-159 103,-266 27,-142 -5,-960 -17,-1111 -34,-437 -130,-897 -240,-1297 -111,-407 -296,-724 -447,-1087 -34,-82 -246,-413 -288,-473 -747,-1068 -2082,-1711 -3452,-1918 -229,-35 -466,-56 -700,-70 -166,-9 -739,5 -764,1z"/>
  <path class="fil4" d="M4927 19353c-55,-2 -50,-50 -68,-107l-122 -401c-175,-650 -229,-1153 -275,-1832 -30,-457 -8,-1548 33,-2043 18,-209 45,-361 69,-556 6,-54 -11,-36 25,-56 51,25 25,101 16,156 -101,634 -105,1891 -84,2491 23,646 111,1205 270,1820 26,99 163,472 136,528zm983 1087c-19,-37 -40,-53 -80,-86 -32,-25 -52,-40 -79,-68 -139,-144 -282,-331 -380,-519 -220,-428 -369,-886 -421,-1375 -19,-174 -48,-362 -60,-536 -24,-386 -17,-791 -16,-1180 0,-374 41,-739 42,-1159 3,-698 95,-1441 275,-2111l252 -948c-51,24 -179,232 -210,283 -29,47 -26,72 -85,72 -9,-147 304,-954 380,-1128 169,-387 516,-1138 744,-1505 167,-269 419,-647 617,-883 144,-171 236,-245 362,-383 19,-32 11,-28 53,-26 -15,-61 -49,-146 -60,-215 -60,23 -116,64 -164,100 -278,207 -402,356 -607,620 -317,407 -336,473 -595,882 -58,92 -131,202 -179,309 -49,110 -111,226 -161,327 -323,644 -593,1448 -785,2168 -28,107 -169,764 -186,786 -92,-4 -33,-110 -17,-170 51,-197 83,-393 141,-609 370,-1382 881,-2623 1752,-3747l170 -204c126,-139 410,-448 611,-512l-49 -224c-154,30 -410,195 -518,269 -274,187 -567,495 -758,764 -55,77 -108,146 -160,226 -1136,1752 -1506,4409 -1505,6507 0,376 11,739 34,1113 4,59 38,307 3,356 -42,-8 -36,-1 -42,-60l-17 -279c-23,-362 -25,-815 -59,-1137 -51,-496 -87,-1001 -81,-1504 22,-1689 350,-3697 1222,-5123l148 -249c215,-364 202,-378 481,-700 359,-415 507,-316 755,-438 80,-39 209,-76 273,-113 -120,-59 -479,24 -596,63 -163,54 -328,141 -452,229 -265,187 -498,411 -686,677 -382,540 -586,1008 -722,1664 -24,115 -19,233 -74,250 -50,-63 53,-432 77,-521 174,-649 514,-1333 995,-1798l160 -148c174,-155 348,-266 568,-362 40,-18 74,-30 114,-45 21,-7 43,-14 60,-20l51 -25c-163,6 -442,113 -578,178 -219,103 -408,236 -547,396 -487,561 -760,1094 -948,1862 -96,395 -226,793 -299,1185 -80,435 -153,856 -208,1296 -14,112 -33,232 -31,345 2,86 -32,227 -40,330 -20,233 -27,488 -27,726 1,777 20,1342 151,2100 19,108 34,214 56,319 14,67 68,244 35,280 -61,-19 -66,-143 -80,-211 -45,-231 -100,-531 -127,-756 -22,-184 -43,-354 -55,-539 -7,-92 -13,-179 -20,-273 -6,-82 5,-203 -24,-266 -11,378 -27,761 -11,1141 25,572 112,1435 340,1931 121,265 226,530 386,747 1,-2 2,-5 2,-6 11,-60 -70,-493 -42,-622 71,-10 56,94 61,165 17,291 24,338 91,626 89,380 68,367 267,688 29,47 65,96 96,141 42,63 60,84 108,131 42,41 81,74 123,116 187,183 478,393 785,415z"/>
  <path class="fil6" d="M6900 25400l5541 0c2,-182 -3,-345 -8,-523 -6,-204 -42,-346 211,-227 177,83 583,335 685,375l1 -21c-8,-65 -106,-193 -143,-250 -172,-261 -301,-444 -502,-690 -123,-151 -245,-288 -373,-423 -262,-281 -535,-515 -835,-744 -293,-224 -645,-435 -987,-592 -92,-42 -481,-207 -575,-205 -63,3 -59,0 -85,65 -16,39 -25,81 -25,133 -4,282 118,431 387,532 150,56 298,114 451,163 79,26 145,53 225,81 57,20 213,46 171,106 -37,44 -244,8 -293,4 -409,-28 -907,96 -1217,362 -46,40 -308,244 -315,306 261,0 549,4 801,31 82,8 685,71 717,99 11,15 18,-24 7,27 -12,55 -349,72 -433,85 -174,27 -311,63 -469,99 -548,126 -1132,382 -1583,679 -104,68 -226,167 -323,247 -51,42 -98,81 -152,131l-134 138c-16,6 -39,9 -66,12m-402 0c-113,-3 -217,-6 -277,0"/>
  <path class="fil3" d="M10926 18269l2486 730c4,-87 -409,-2019 -462,-2289 -48,-242 -2,-158 -178,-277 -200,-136 -334,-209 -550,-369 -85,-63 -197,-129 -261,-194 -194,-193 -268,-257 -385,-536 -288,-688 8,-428 -647,-726 -58,-27 -274,-139 -306,-143 -59,94 -127,807 -132,961 -26,701 12,1331 163,2011 37,167 197,714 272,832z"/>
  <path class="fil2" d="M10047 20826l-7 78c104,56 228,127 336,187 63,35 112,58 175,86 50,22 132,41 161,99 34,25 282,93 341,115 55,20 108,36 163,63 90,43 62,71 107,111l1010 783c105,77 43,54 95,168 54,117 99,236 155,354 56,121 271,562 370,653 26,24 210,89 270,115 20,9 31,11 49,18l48 31c65,244 141,529 214,788 39,135 73,268 109,403 32,115 69,290 107,385 70,26 23,28 120,46 61,11 72,25 77,91l3726 0c-54,-163 -451,-1139 -519,-1204l-28 -19c-37,-15 -201,-7 -246,-7 -493,-3 -789,-78 -1255,-208 -153,-43 -305,-101 -451,-141 16,68 568,850 690,1039 18,28 24,53 44,80 23,31 44,28 35,79 -64,20 -82,-35 -173,-133 -227,-244 -963,-833 -1203,-1046l-662 -622c-210,-200 -109,-108 -357,-280 -236,-163 -513,-388 -714,-569 -68,-61 -105,-84 -172,-146 -36,-33 -53,-40 -86,-73 -192,-185 -568,-456 -822,-632 -309,-216 -502,-314 -785,-498 -373,-243 -434,-227 -744,-370 -42,-20 -81,-46 -129,-33 -22,41 -52,158 -49,209z"/>
  <path class="fil2" d="M11202 18987c198,77 453,136 666,202 221,69 455,141 668,202 59,9 130,41 194,61 66,22 123,40 192,59l945 292c140,44 151,27 146,88 -39,17 -314,-80 -373,-100 -296,-99 -651,-197 -956,-295l-200 -59c-56,-29 -1345,-407 -1372,-406l-89 -11c12,59 15,45 65,86 450,359 1235,662 1777,893l852 284c60,25 62,23 70,51 -92,82 -838,-240 -1021,-296 -175,-54 -339,-104 -518,-162 -86,-28 -165,-55 -257,-84 -75,-23 -178,-64 -242,-79 4,82 100,223 157,290 12,15 25,28 38,40 38,36 21,53 33,34 1,-2 5,6 7,9 93,89 688,523 740,576 26,28 49,79 76,92 79,42 86,66 199,110l403 189c60,26 161,48 203,99 40,29 785,282 820,279 157,-32 266,-112 357,-197 54,-52 206,-221 217,-332 -40,-37 -133,-83 -186,-105 -65,34 -474,364 -565,307 7,-52 84,-77 122,-101 52,-30 80,-56 124,-90 57,-44 184,-163 203,-234 -63,-23 -157,-51 -234,-75 -102,-31 -208,-44 -216,-100 46,-35 235,45 297,64 144,45 817,263 869,261 103,15 79,43 164,-15 40,-28 80,-55 117,-87 198,-168 421,-537 417,-784l-646 -171c-217,-56 -432,-118 -648,-169 -221,-53 -450,-98 -668,-150 -178,-42 -166,-37 -309,-102 -57,-26 -860,-226 -968,-256l-1300 -339c-150,-36 -540,-153 -648,-164 32,151 258,357 278,395z"/>
  <path class="fil7" d="M6751 25400l149 0c60,-6 164,-3 277,0l402 0c27,-3 50,-6 66,-12l134 -138c54,-50 101,-89 152,-131 97,-80 219,-179 323,-247 451,-297 1035,-553 1583,-679 158,-36 295,-72 469,-99 84,-13 421,-30 433,-85 11,-51 4,-12 -7,-27 -32,-28 -635,-91 -717,-99 -252,-27 -540,-31 -801,-31 7,-62 269,-266 315,-306 310,-266 808,-390 1217,-362 49,4 256,40 293,-4 42,-60 -114,-86 -171,-106 -80,-28 -146,-55 -225,-81 -153,-49 -301,-107 -451,-163 -269,-101 -391,-250 -387,-532 0,-52 9,-94 25,-133 26,-65 22,-62 85,-65 -23,-21 5,-5 -40,-21l-128 -31c-202,-45 -202,-56 -462,84 -252,136 -496,354 -708,542 -377,336 -1044,1179 -1291,1606 -162,282 -452,797 -535,1120z"/>
  <path class="fil8" d="M8238 14384c47,1 46,18 58,72 107,463 104,148 37,525 -24,137 -4,183 -63,191 -48,-43 -47,-541 -49,-643l17 -145zm-1042 -3580c7,37 -9,373 -7,453 4,238 38,580 70,819 10,72 20,124 32,192 11,62 43,150 -32,155 -19,-35 -10,-64 -18,-103 -10,-45 -17,-32 -26,-86 -10,-57 -84,-556 -107,-588 -1,122 20,438 -3,538l-5 82c-2,3 -9,16 -11,20 -16,41 -5,60 1,117 11,111 23,349 55,412 -14,285 -4,635 -1,930 3,299 14,586 46,875l37 86c28,-279 94,-984 94,-1268 0,-68 -11,-391 6,-429l34 -1c67,99 3,1485 -2,1771 -3,169 30,30 24,295 -2,86 12,218 -6,294 -32,221 225,1276 312,1425 27,21 129,230 162,290 46,86 117,211 170,284 95,132 299,434 411,492 -15,-62 -59,-142 -85,-215 -44,-127 -232,-626 -179,-687 54,14 16,5 77,129 131,265 192,417 349,709 173,320 137,180 193,244 6,59 63,132 90,179 12,-6 -37,-42 37,5 0,0 25,27 28,30l173 156c79,58 160,135 250,194 127,83 463,289 567,313l-708 -753c-22,-21 -36,-27 -62,-51 -22,-20 -36,-35 -57,-56 -40,-40 -68,-75 -102,-125 -341,-497 -516,-1086 -622,-1685 -22,-123 -92,-749 -60,-848 57,-5 23,0 52,31 16,13 21,-7 30,81 20,207 366,730 495,925 20,31 18,36 46,25l39 3c169,310 283,503 424,848 130,320 230,616 384,887 235,415 496,771 867,1043 68,49 300,193 392,225 -212,-135 -399,-335 -548,-523l-123 -151c-21,-29 -29,-51 -51,-84 -234,-340 -449,-736 -594,-1134 -25,-67 -58,-116 -87,-186 -152,-372 -214,-549 -420,-920 -156,-281 -403,-803 -510,-1091 -149,-400 -248,-838 -342,-1259 -20,-89 -65,-368 -94,-430 -29,2 -24,9 -40,50 -50,130 -126,357 -154,485 -96,436 -181,818 -179,1294 1,124 6,236 9,353 2,76 40,286 29,337 -7,111 76,232 40,292 -43,-6 -31,1 -48,-36 -24,-51 -87,-404 -96,-463 -31,-186 -44,-376 -45,-570l-9 -18c-28,-77 14,62 -6,-20l-21 -284c-8,-101 -29,-200 -41,-305 -66,-609 -23,-1271 -91,-1948 -22,-215 -26,-426 -58,-639 -52,-344 -118,-844 -192,-1170l-89 -420c-33,-140 -11,-135 -57,-108 -15,39 -42,244 -37,286z"/>
  <path class="fil8" d="M5910 20440c49,9 112,28 182,33 -21,-46 -42,-56 -80,-86 -311,-251 -586,-635 -665,-1037 -27,-140 -70,-411 -42,-538 34,-64 14,-85 -9,-196 -43,-208 -64,-412 -91,-624 -14,-113 -79,-833 -36,-894 64,4 49,83 52,214 12,485 97,1180 252,1613 70,199 77,173 126,286 153,354 431,741 724,994l1 -22c-14,-34 -57,-70 -83,-104 -31,-39 -49,-63 -76,-105 -681,-1044 -792,-2831 -765,-4059l37 -693c-16,-73 18,-61 5,-131 -44,13 -151,155 -182,201 -31,47 -47,79 -72,120 -16,27 -23,35 -35,65 -16,37 -11,39 -40,63 -20,51 -2,66 -58,69 -10,-21 38,-411 44,-467 17,-157 40,-311 65,-458 176,-1021 530,-2358 922,-3293 144,-342 320,-784 481,-1110 77,-157 285,-517 381,-663 34,-53 193,-266 202,-315 4,-28 54,-152 67,-188 24,-65 50,-115 69,-186 -17,-20 25,-20 -35,-15 -126,138 -218,212 -362,383 -198,236 -450,614 -617,883 -228,367 -575,1118 -744,1505 -76,174 -389,981 -380,1128 59,0 56,-25 85,-72 31,-51 159,-259 210,-283l-252 948c-180,670 -272,1413 -275,2111 -1,420 -42,785 -42,1159 -1,389 -8,794 16,1180 12,174 41,362 60,536 52,489 201,947 421,1375 98,188 241,375 380,519 27,28 47,43 79,68 40,33 61,49 80,86z"/>
  <path class="fil2" d="M7079 23344c0,0 382,-807 595,-1095 42,-56 82,-137 119,-96 24,26 -64,125 -112,205 -252,421 -354,691 -529,1151 -28,73 -153,460 -150,515 -3,53 5,29 8,38l128 -177c33,-60 68,-165 102,-241 38,-84 75,-145 116,-225 33,-65 189,-408 276,-413 11,61 -28,87 -57,131 -33,50 -183,319 -186,377 5,25 -4,16 14,20l405 -470c135,-145 303,-304 458,-428 364,-292 438,-320 799,-530 34,-19 267,-121 304,-125 -48,-1 -43,-7 -62,-25 -28,-21 -34,-7 -23,-64 16,-8 268,-45 314,-50l331 -32c13,-31 48,-263 61,-323 22,-105 45,-236 -1,-328 -21,-41 -13,-30 -60,-43l-515 -139c-35,-11 -32,-16 -68,-23 -31,-6 -55,-10 -79,-16 -123,-32 -304,-46 -228,-93 23,-14 124,-11 159,-15 358,-37 520,23 673,15 29,-46 103,-353 86,-403 -106,-142 -560,-158 -784,-136 -191,19 -623,89 -753,175 22,75 99,85 102,182 -31,54 -91,78 -143,121 -338,277 -585,645 -780,1038l-311 735c-21,58 -262,786 -209,787z"/>
  <path class="fil9" d="M7190 14620c20,295 84,612 118,907 34,302 58,607 92,916 49,446 68,927 154,1368 12,61 81,378 68,407 -50,2 -50,-12 -75,-114l-127 -431c-60,-196 -106,-388 -159,-589 -105,-397 -224,-784 -318,-1184 -192,-815 -233,-1162 -283,-1967 -15,-252 10,-502 -3,-747 -54,98 -67,594 -81,750 -35,398 -1,1164 68,1561 21,124 125,611 113,700 -52,4 -55,-18 -69,-64 -58,-195 -151,-594 -179,-775l-110 -976c-26,327 -27,1360 0,1685 23,272 44,517 88,778 30,176 114,603 153,679 1,2 4,9 5,7 1,-1 3,6 5,8 6,-36 -149,-785 -114,-1053 179,642 338,884 574,1429 33,78 54,165 104,236 75,107 48,199 124,221 9,-11 19,-14 11,-56l-154 -360c-137,-296 -311,-976 -345,-1327 -6,-59 5,-59 17,-73 6,16 15,68 21,81 29,61 20,-39 128,191 168,357 272,501 388,907 99,343 276,1096 254,1474 -15,12 5,6 -28,7l21 20c72,57 411,196 482,220 21,-42 21,-120 22,-167 3,-181 7,-351 -24,-531l-113 -443c-13,-36 -56,-107 -31,-128 -22,-71 -127,-153 -119,-220 64,-15 96,71 124,112 132,195 358,579 416,797 93,347 369,592 679,777 123,74 515,271 698,253 -35,-4 -245,-141 -293,-171 -44,-27 -31,-28 -66,-58l-180 -160c-93,-83 -593,-634 -658,-762 -21,-40 -16,-47 -41,-84 -179,-260 -319,-525 -473,-811 -103,-193 -210,-429 -295,-649 -87,-226 -172,-452 -245,-697 -127,-432 -239,-963 -230,-1429 2,-80 -3,-171 34,-192 47,19 30,56 27,113 -2,41 -4,83 -5,125l14 230c0,-2 2,5 3,7 18,-76 4,-208 6,-294 6,-265 -27,-126 -24,-295 5,-286 69,-1672 2,-1771l-34 1c-17,38 -6,361 -6,429 0,284 -66,989 -94,1268l-37 -86z"/>
  <path class="fil10" d="M14705 17482c-77,-50 -230,-83 -446,-218l-1276 -694c26,194 84,426 124,618l377 1834 1075 313 146 -1853z"/>
  <path class="fil10" d="M10926 18269c-75,-118 -235,-665 -272,-832 -151,-680 -189,-1310 -163,-2011 5,-154 73,-867 132,-961 -9,-10 2,-9 -25,-26 -42,14 -69,74 -97,106 -213,247 -552,535 -921,465 11,58 56,142 78,209 182,554 60,1353 45,1911 -3,128 -8,150 29,265l165 425c18,39 30,65 46,102 22,49 18,64 67,80 143,49 311,92 456,134 141,40 322,108 460,133z"/>
  <path class="fil4" d="M3388 16168c2,-72 70,-216 97,-279 19,-44 34,-82 54,-127 18,-39 43,-76 55,-118 17,-27 10,-33 38,-39 -7,-161 9,-332 13,-495 3,-155 1,-313 12,-468 21,-296 61,-626 64,-925 -24,20 0,-6 -20,23l-29 64c-84,207 -173,365 -268,563 -218,455 -382,866 -564,1344 -272,714 -512,1625 -417,2407 31,260 97,522 195,757 87,210 244,479 396,554 -16,-103 -81,-279 -109,-398 -171,-717 8,-1418 217,-2098 39,-128 70,-258 110,-388 38,-123 86,-259 117,-374l39 -3z"/>
  <path class="fil9" d="M5618 16550c46,48 43,-29 67,167 40,334 215,804 354,1122 18,41 15,52 67,48 12,-50 -74,-285 -93,-363 -31,-123 -63,-271 -76,-404 -16,-154 -14,-509 19,-667 12,-56 51,-144 53,-174 0,60 0,121 0,181 0,30 -1,61 0,91 0,42 1,67 24,102 -3,-102 -25,-393 8,-466l37 2c15,31 6,389 12,474 11,151 35,305 63,448 99,496 338,1003 641,1381 98,122 386,445 514,505 -20,-44 -98,-129 -143,-194 -92,-130 -173,-265 -243,-415l-94 -230c-1,-3 -2,-7 -4,-9l-20 35c-57,-20 -77,-156 -97,-217l-200 -719c-245,-974 -217,-2499 -127,-3481 -21,17 -4,-6 -24,28 -2,5 -11,29 -13,35 -9,25 -15,46 -22,69l-221 1039c-47,-86 -90,-604 -101,-740 -31,-365 -29,-454 -32,-809l-13 26c-60,162 -70,599 -81,761 -24,372 -9,405 -68,808 -18,127 -44,243 -55,375l-77 795c-6,72 -4,143 -3,215 4,184 19,186 -52,181z"/>
  <path class="fil7" d="M12228 22826c58,-17 70,29 94,66 25,37 43,63 70,101 48,70 90,133 138,203 46,68 89,134 138,203 28,41 43,64 69,101 27,40 59,68 49,111 0,0 -11,33 -55,-13l-105 -158c-73,-111 -404,-556 -398,-614zm-455 -467l7 38c-88,-48 -198,-100 -309,-138l25 51c-119,213 -762,-249 -1292,-189 91,43 199,81 291,122 946,426 1831,1221 2446,2053 118,161 222,314 332,486 55,86 101,169 154,255 46,77 95,194 147,260 -17,-254 -151,-644 -232,-868l-251 -579c-37,-68 -104,-148 -70,-176 69,-58 260,473 313,544 -3,-116 -82,-457 -62,-532l48 1 -48 -31c-18,-7 -29,-9 -49,-18 -60,-26 -244,-91 -270,-115 -99,-91 -314,-532 -370,-653 -56,-118 -101,-237 -155,-354 -52,-114 10,-91 -95,-168l-1010 -783c38,111 330,509 423,642 48,68 129,153 124,216 -87,8 -38,-25 -97,-64z"/>
  <path class="fil4" d="M4177 15747c50,-1624 232,-2948 729,-4469 101,-309 243,-622 378,-917 88,-193 338,-646 470,-824l281 -367c61,-81 231,-242 315,-332 118,-125 411,-318 575,-402 77,-38 152,-63 228,-100 -10,-58 -59,-224 -87,-267 -173,29 -329,105 -472,183 -289,160 -515,360 -734,596 -500,538 -942,1478 -1171,2170 -336,1016 -552,2341 -554,3431 -1,232 -13,1145 42,1298z"/>
  <path class="fil7" d="M7079 23344c-53,-1 188,-729 209,-787l311 -735c195,-393 442,-761 780,-1038 52,-43 112,-67 143,-121 -3,-97 -80,-107 -102,-182 130,-86 562,-156 753,-175 224,-22 678,-6 784,136 17,50 -57,357 -86,403 -153,8 -315,-52 -673,-15 -35,4 -136,1 -159,15 -76,47 105,61 228,93 24,6 48,10 79,16 36,7 33,12 68,23 -17,-84 44,-48 104,-29 74,22 398,113 437,107 10,-345 135,-541 144,-665 -380,-148 -173,-381 -146,-492l-68 -16c25,16 48,36 29,86 -60,15 -66,-10 -117,30 -33,26 -49,42 -97,51 -132,25 -248,-22 -356,-74l-451 -265c-93,-54 -274,-133 -291,-276 -8,-74 19,-69 -23,-125 -18,-24 -41,-53 -74,-72 53,529 11,914 -393,1291 -278,259 -382,181 -477,386 -195,423 -310,817 -452,1263 -71,222 -130,441 -187,677 -56,236 -101,471 -142,722 -33,197 -106,555 -103,743 51,-158 95,-334 148,-495l180 -480z"/>
  <path class="fil9" d="M8393 13224c-38,-65 -244,-471 -240,-505 -9,80 111,578 135,701 25,124 36,234 100,321 37,50 152,196 153,265 -88,4 -87,-116 -160,-164 7,105 47,244 69,348 138,645 304,1217 601,1806 24,48 102,233 144,265 13,-344 -4,-717 -62,-1039 -25,-139 -82,-283 -124,-421 -51,-166 -164,-322 -159,-385 61,-1 63,44 92,99 24,44 46,83 66,128 110,237 218,606 263,861 35,197 49,485 53,695 7,378 -39,219 84,486 24,51 34,90 66,119 0,-205 -20,-399 -5,-608 5,-60 43,-493 84,-533 55,7 50,25 56,82 9,93 41,302 13,354 -72,-9 -35,-68 -66,-136 -45,171 -51,820 -16,988 11,49 77,203 101,238 17,-256 84,-1275 54,-1462 -41,-252 -47,-391 -142,-618 -271,-655 -506,-870 -869,-1414 -103,-154 -200,-311 -291,-471z"/>
  <path class="fil4" d="M8634 13506c250,404 507,694 710,1051 104,183 95,228 209,225 144,-2 369,-106 472,-191 78,-64 61,-100 125,-80 5,91 -164,185 -259,231 -158,78 -202,76 -391,98 33,70 27,94 113,117 71,19 135,9 203,-8 292,-72 672,-395 774,-640 -186,2 -323,-54 -423,-144 -114,-101 -145,-195 -174,-394 -51,48 -343,288 -441,282 -22,-107 74,-83 225,-232 48,-47 198,-219 215,-269 -29,-45 -28,-26 -74,-69 -35,-32 -42,-38 -73,-63 -89,-72 -351,-370 -417,-395 -151,111 -200,159 -420,208 -337,75 -384,7 -538,7l164 266z"/>
  <path class="fil7" d="M11202 18987c-20,-38 -246,-244 -278,-395 108,11 498,128 648,164l1300 339c108,30 911,230 968,256 143,65 131,60 309,102 218,52 447,97 668,150 216,51 431,113 648,169l646 171c4,247 -219,616 -417,784 -37,32 -77,59 -117,87 -85,58 -61,30 -164,15 11,9 7,7 24,16l78 24c29,8 64,19 96,30 67,21 126,39 191,59 74,23 335,113 392,112 6,-93 76,-383 100,-549 28,-203 47,-393 46,-603 -252,-58 -531,-154 -791,-230 -265,-77 -526,-154 -790,-232l-3943 -1157c-135,-40 -261,-77 -396,-116 -68,-20 -131,-31 -195,-55 -61,-22 -130,-52 -202,-62 23,109 328,586 393,667 29,38 36,31 89,46 36,11 66,20 96,29 177,51 448,144 601,179z"/>
  <path class="fil7" d="M10096 20617c48,-13 87,13 129,33 310,143 371,127 744,370 283,184 476,282 785,498 254,176 630,447 822,632 33,33 50,40 86,73 67,62 104,85 172,146 201,181 478,406 714,569 248,172 147,80 357,280l662 622c240,213 976,802 1203,1046 91,98 109,153 173,133 9,-51 -12,-48 -35,-79 -20,-27 -26,-52 -44,-80 -122,-189 -674,-971 -690,-1039 146,40 298,98 451,141 466,130 762,205 1255,208 45,0 209,-8 246,7l28 19c-16,-53 -252,-543 -274,-568 -9,75 -11,196 -42,253 -32,62 -82,119 -184,109 -210,-22 -147,-239 -151,-418 -33,76 -43,173 -84,253 -36,71 -88,148 -197,150 -93,1 -440,-113 -545,-143l-530 -152c-251,-108 -85,-365 -98,-498l-80 -21c-283,525 -445,299 -837,23 -148,-105 -283,-197 -431,-296 -294,-197 -26,-368 -40,-471 -35,-2 -29,1 -52,29 -16,21 -20,30 -39,52 -96,108 -223,193 -361,87l-782 -650c-234,-206 50,-394 73,-467l-35 -34c-48,19 -71,82 -155,157 -214,192 -334,24 -574,-180l-502 -418c-110,-96 -82,-120 -113,-182 -58,18 -61,42 -147,35 -49,-4 -87,-29 -125,-48 -72,-37 -149,-82 -228,-123 -68,-36 -405,-235 -469,-240l-56 182z"/>
  <path class="fil4" d="M10361 10612c82,162 123,157 177,354 85,310 158,400 244,824 27,131 56,303 95,428 88,-108 146,-234 145,27 51,-25 74,-77 109,-114 28,-30 32,-23 56,-58l150 -191c62,-73 103,-472 121,-582 20,-123 56,-284 63,-407 -66,63 -95,166 -263,320 -46,42 -274,245 -363,203 10,-62 140,-83 289,-220 145,-134 124,-114 244,-280 147,-203 146,-260 242,-404 15,-21 33,-58 50,-87 29,-51 77,-117 97,-168 -36,14 -74,30 -101,50 -63,45 -37,60 -92,59 -31,-92 188,-349 225,-437 -56,28 -122,114 -183,90 -30,-51 89,-197 119,-245 49,-78 95,-159 141,-241 -42,13 -160,90 -204,122 -59,44 -121,106 -173,156 -55,52 -106,110 -167,163 -58,50 -120,103 -175,153 -162,146 -564,427 -846,485z"/>
  <path class="fil9" d="M9224 18163l708 753c-104,-24 -440,-230 -567,-313 -90,-59 -171,-136 -250,-194l-173 -156c-3,-3 -28,-30 -28,-30 -74,-47 -25,-11 -37,-5 181,280 558,559 870,752 206,128 837,452 1126,480 -25,-32 -58,-45 -97,-67 -218,-119 -423,-313 -583,-496 -466,-532 -596,-976 -856,-1597 -61,-144 -130,-279 -195,-418 -50,-105 -204,-356 -198,-412 -28,11 -26,6 -46,-25 -129,-195 -475,-718 -495,-925 -9,-88 -14,-68 -30,-81 27,574 28,741 172,1313 85,337 229,686 399,985 8,14 10,18 18,29 16,21 9,12 25,25 -10,-70 -45,-108 -46,-176 56,-1 56,14 75,51l121 220c99,193 200,221 153,287l-66 0z"/>
  <path class="fil2" d="M13300 21119c24,36 364,291 431,342 231,177 286,175 312,449 62,-24 121,-52 210,-29 20,5 68,23 93,32l691 434c131,84 196,111 225,276 39,-13 71,-44 131,-51 60,-8 129,-2 178,12 111,29 795,180 862,208 33,13 22,18 57,28 -25,-83 -161,-312 -209,-399 -242,-432 -161,-330 -707,-520 -150,-52 -303,-105 -455,-158 -145,-50 -1719,-606 -1819,-624z"/>
  <path class="fil7" d="M14425 21431c29,26 63,32 107,47 37,13 61,22 101,36l624 215c131,46 754,279 837,282 48,-57 112,-175 155,-253 51,-92 107,-167 71,-297 -15,-52 -77,-258 -100,-297 -23,-38 -14,-24 -64,-38 -319,-85 -818,-248 -1146,-352 -103,-33 -206,-70 -313,-95 -19,71 -146,190 -203,234 -44,34 -72,60 -124,90 -38,24 -115,49 -122,101 91,57 500,-273 565,-307 53,22 146,68 186,105 -11,111 -163,280 -217,332 -91,85 -200,165 -357,197z"/>
  <path class="fil9" d="M8787 18039c-56,-64 -20,76 -193,-244 -157,-292 -218,-444 -349,-709 -61,-124 -23,-115 -77,-129 -53,61 135,560 179,687 26,73 70,153 85,215 -112,-58 -316,-360 -411,-492 -53,-73 -124,-198 -170,-284 -33,-60 -135,-269 -162,-290 18,98 157,428 201,535 67,164 150,335 226,489 115,231 520,947 693,1114 167,161 437,328 656,423 319,137 746,285 1148,286 -3,-1 -6,-2 -8,-3l-65 -18c-564,-109 -1173,-404 -1575,-798 -29,-28 -66,-51 -49,-90 44,-21 80,40 113,71 357,347 950,637 1437,743 160,34 567,92 710,26 -33,-13 -161,-26 -209,-36 -444,-94 -853,-279 -1233,-506 -220,-132 -403,-269 -580,-420 -87,-75 -430,-411 -419,-573l52 3z"/>
  <path class="fil10" d="M15995 10695c-13,-57 4,-58 64,-77 213,-68 841,-167 947,-101 34,21 38,76 21,112 -62,-5 -30,-24 -67,-64 -50,-25 -623,22 -742,66l-33 17c82,7 472,-88 423,97 54,-7 102,-16 157,-25 78,-14 157,45 253,93 54,28 94,24 100,83l-284 18c-4,205 -110,409 -194,580 -15,29 -21,55 -32,78l-57 2c25,48 31,8 84,19 61,12 204,96 279,62 2,-50 -13,-52 -106,-108 19,-84 125,-122 190,-161 269,-160 336,-169 628,-394 212,-163 189,-160 59,-415 -43,-87 -218,-406 -226,-471l-16 21c-5,7 -9,13 -15,20l-207 254c-29,-3 -267,-97 -313,-114 -267,-95 -740,-277 -961,-342 102,285 114,401 -162,660 -54,52 -191,119 -144,166 46,22 265,-77 354,-76z"/>
  <path class="fil8" d="M5452 16173c2,541 -11,451 77,984 122,737 418,1235 1001,1656 56,41 96,69 157,105 48,29 134,61 169,86 3,1 7,1 8,5l53 31c27,12 47,19 72,30 51,22 96,38 150,55 89,27 226,75 313,83 10,-14 6,4 0,-21 -7,-10 -244,-188 -275,-214 -649,-554 -1096,-1421 -1144,-2320 -23,-35 -24,-60 -24,-102 -1,-30 0,-61 0,-91 0,-60 0,-121 0,-181 -2,30 -41,118 -53,174 -33,158 -35,513 -19,667 13,133 45,281 76,404 19,78 105,313 93,363 -52,4 -49,-7 -67,-48 -139,-318 -314,-788 -354,-1122 -24,-196 -21,-119 -67,-167l0 -62c-39,-22 -22,-6 -40,-64 -29,-95 -127,-344 -104,-434 -7,39 -8,57 -8,95l-4 57c-1,4 -2,7 -3,10 0,3 -2,12 -3,11 0,-2 -2,6 -4,10z"/>
  <path class="fil8" d="M6650 17539c-4,101 140,483 174,610 2,2 3,6 4,9l94 230c70,150 151,285 243,415 45,65 123,150 143,194 17,33 268,212 322,219 33,-1 13,5 28,-7 22,-378 -155,-1131 -254,-1474 -116,-406 -220,-550 -388,-907 -108,-230 -99,-130 -128,-191 -6,-13 -15,-65 -21,-81 -12,14 -23,14 -17,73 34,351 208,1031 345,1327l154 360c8,42 -2,45 -11,56 -76,-22 -49,-114 -124,-221 -50,-71 -71,-158 -104,-236 -236,-545 -395,-787 -574,-1429 -35,268 120,1017 114,1053z"/>
  <path class="fil9" d="M7233 10518c46,-27 24,-32 57,108l89 420c74,326 140,826 192,1170 32,213 36,424 58,639 68,677 25,1339 91,1948 12,105 33,204 41,305l21 284c20,82 -22,-57 6,20l9 18c19,-1154 20,-2304 24,-3457 1,-143 -18,-230 -21,-364l-93 -675c-71,-364 -106,-1004 -263,-1278 -37,137 -78,281 -113,422 -31,122 -84,319 -98,440z"/>
  <path class="fil8" d="M6390 11399c5,73 -72,393 -92,487 -17,86 -29,163 -48,239 -43,170 -18,86 -24,178 -1,19 0,16 -6,34 -11,35 9,11 -18,34 -49,156 -98,322 -139,485 -20,77 -108,475 -96,533 3,355 1,444 32,809 11,136 54,654 101,740l221 -1039c7,-23 13,-44 22,-69 2,-6 11,-30 13,-35 20,-34 3,-11 24,-28 5,-208 34,-447 50,-658 32,-440 68,-829 147,-1263 21,-120 107,-509 97,-603 -8,-37 6,-187 5,-247 -2,-83 -11,-138 -21,-216 -13,-9 18,-24 -23,0 -26,33 -106,247 -129,303 -29,73 -113,253 -116,316z"/>
  <path class="fil9" d="M7452 19187c6,25 10,7 0,21 -87,-8 -224,-56 -313,-83 -54,-17 -99,-33 -150,-55 -25,-11 -45,-18 -72,-30l-53 -31c-1,-4 -5,-4 -8,-5l-6 33c-119,17 -418,-223 -478,-270 -356,-280 -624,-645 -776,-1088l-62 -209c-4,-13 -7,-26 -10,-36l-17 -35c-1,311 95,764 153,1059 146,753 1217,1101 1905,1109 125,1 454,-7 551,-51 -41,-26 -121,-50 -173,-71 -57,-23 -117,-51 -172,-78 -57,-30 -110,-59 -161,-89 -49,-28 -112,-73 -158,-91z"/>
  <path class="fil5" d="M15947 9945c221,65 694,247 961,342 46,17 284,111 313,114l207 -254c6,-7 10,-13 15,-20l16 -21 3 -85c-166,-53 -678,-176 -887,-231 -295,-77 -600,-151 -892,-231 -76,-20 -145,-38 -217,-56 -177,-44 -129,-69 -203,-46 -150,47 -296,71 -446,123 -136,48 -279,93 -414,143l-300 120c-52,15 -89,7 -64,65 33,33 1171,-189 1264,-189l644 226z"/>
  <path class="fil9" d="M5113 15540c29,-24 24,-26 40,-63 12,-30 19,-38 35,-65 25,-41 41,-73 72,-120 31,-46 138,-188 182,-201 13,70 -21,58 -5,131 9,-13 3,5 11,-25 23,-85 -21,-114 50,-123 32,44 -21,442 -25,534 -8,187 -25,376 -21,565 2,-4 4,-12 4,-10 1,1 3,-8 3,-11 1,-3 2,-6 3,-10l4 -57c0,-38 1,-56 8,-95 -23,90 75,339 104,434 18,58 1,42 40,64 7,-208 -5,-430 -4,-641 1,-205 11,-405 28,-604 33,-390 73,-775 110,-1159l-23 10c-2,-109 -31,-234 -38,-349 -31,-503 -19,-628 27,-1115 -23,24 -27,49 -36,84l-164 597c-59,229 -111,476 -160,715 -146,708 -163,778 -245,1514z"/>
  <path class="fil2" d="M11471 22259c111,38 221,90 309,138l-7 -38c-12,-52 -245,-359 -297,-437l-213 -333c-31,-58 -25,-63 -91,-91 -161,-68 -968,-333 -1120,-346 60,338 -53,378 -58,672 415,45 771,148 1142,301 87,36 257,122 335,134z"/>
  <path class="fil9" d="M7210 15298l4 84c-62,-71 -169,-411 -212,-540 -62,-184 -103,-394 -139,-606 -42,-245 -110,-742 -124,-1002 -8,-150 15,-308 2,-362l-19 157c-14,317 -16,880 5,1169 86,1160 414,2244 716,3354 8,-24 -90,-1002 -103,-1127 -7,-70 -85,-1064 -130,-1127z"/>
  <path class="fil8" d="M3388 16168c18,51 -213,774 -249,887 -47,149 -71,312 -119,459 -134,403 -11,1095 149,1469 92,217 312,582 515,635 -172,-292 -194,-133 -341,-670l-14 -19c-29,-55 -72,-306 -83,-377 -24,-155 -38,-267 -40,-433 -10,-823 131,-1267 399,-2006 21,-56 7,-385 7,-474l-18 5c-12,42 -37,79 -55,118 -20,45 -35,83 -54,127 -27,63 -95,207 -97,279z"/>
  <path class="fil8" d="M6741 12872c13,54 -10,212 -2,362 14,260 82,757 124,1002 36,212 77,422 139,606 43,129 150,469 212,540l-4 -84c13,-67 -60,-552 -75,-657 -30,-223 -41,-457 -44,-688l-14 -60c-2,-23 -1,-44 -3,-68 -6,-52 -9,-83 -8,-137 3,-760 -56,-814 -206,-1490 -3,-13 -7,-41 -13,-51 -19,-31 14,-31 -37,-25 -23,150 -86,619 -69,750z"/>
  <path class="fil7" d="M11984 20086c-2,-3 -6,-11 -7,-9 -12,19 5,2 -33,-34 -13,-12 -26,-25 -38,-40 -57,-67 -153,-208 -157,-290 64,15 167,56 242,79 92,29 171,56 257,84 179,58 343,108 518,162 183,56 929,378 1021,296 -8,-28 -10,-26 -70,-51l-852 -284c-542,-231 -1327,-534 -1777,-893 -50,-41 -53,-27 -65,-86l89 11c-42,-36 -590,-185 -605,-187 51,128 404,470 571,567 119,70 137,65 291,86l8 61c-36,33 -78,44 -131,71 21,50 108,65 157,93 30,17 108,88 128,122 37,59 19,146 4,208 -16,70 -69,125 -49,164 45,-7 60,-53 92,-84 22,-21 73,-63 105,-77 146,-64 199,12 301,31z"/>
  <path class="fil10" d="M17085 15094c133,-59 403,103 255,167 -128,55 -416,-96 -255,-167zm-579 234c6,-62 31,-52 75,-24 185,121 470,217 682,274 148,41 139,40 211,-12 189,-137 175,-65 168,-355 0,-43 -1,-89 8,-129 11,-53 28,-56 37,-95 -146,-8 -279,-53 -409,-58 -296,-11 -791,43 -1086,-41 -57,-16 -123,-62 -175,-26 33,39 17,25 58,49 37,22 40,32 68,60l363 357z"/>
  <path class="fil7" d="M7389 23514l-137 278c-39,97 -79,193 -112,297 -33,108 -168,559 -175,641 42,-57 79,-146 115,-212l377 -612c203,-292 637,-837 887,-1079 217,-210 434,-427 694,-612 155,-110 392,-206 420,-241l-151 -18c19,18 14,24 62,25 -37,4 -270,106 -304,125 -361,210 -435,238 -799,530 -155,124 -323,283 -458,428l-405 470c-18,-4 -9,5 -14,-20z"/>
  <path class="fil8" d="M8133 19456c30,7 47,14 68,26 31,16 41,18 46,61l-102 31c-24,47 -23,24 -30,89 -24,220 -100,404 -187,602 -45,102 -91,214 -158,296 -59,72 -147,179 -227,220l31 1c155,-9 478,-264 598,-398 310,-345 383,-942 215,-1361 -27,-68 -32,-121 -57,-192 -41,-119 -285,-617 -343,-644 -25,21 18,92 31,128l113 443c31,180 27,350 24,531 -1,47 -1,125 -22,167z"/>
  <path class="fil7" d="M12441 25400l1110 0c-12,-40 -173,-362 -221,-396l-1 21c-102,-40 -508,-292 -685,-375 -253,-119 -217,23 -211,227 5,178 10,341 8,523z"/>
  <path class="fil9" d="M6500 12961c36,-83 75,-351 100,-465 93,-414 256,-953 382,-1356 162,-513 235,-862 368,-1358 57,-212 97,-234 27,-471l-176 378c-276,584 -389,1141 -496,1775 -60,356 -114,603 -158,976 -18,162 -51,358 -47,521z"/>
  <path class="fil9" d="M5305 18812c45,3 15,-11 46,11 1,216 19,439 81,634 52,163 154,358 239,465 155,197 560,471 937,463 -208,-111 -227,-175 -284,-202l-1 22c-293,-253 -571,-640 -724,-994 -49,-113 -56,-87 -126,-286 -155,-433 -240,-1128 -252,-1613 -3,-131 12,-210 -52,-214 -43,61 22,781 36,894 27,212 48,416 91,624 23,111 43,132 9,196z"/>
  <path class="fil8" d="M5718 12630c-46,487 -58,612 -27,1115 7,115 36,240 38,349l23 -10c40,-331 90,-629 168,-939 40,-158 80,-283 120,-438 23,-91 116,-367 112,-437 23,-76 134,-518 126,-578 -45,59 -105,251 -143,340 -16,38 -19,86 -69,90 -41,-67 29,-313 43,-400 11,-65 20,-138 35,-196 9,-37 52,-142 22,-166 -40,47 -453,1196 -448,1270z"/>
  <path class="fil3" d="M9883 11555c-45,97 -33,215 -53,319 -21,102 -78,169 -130,223 -188,195 -192,266 -129,511 14,40 61,71 97,103 35,32 65,66 116,73 19,3 168,54 288,79 95,20 225,47 322,47 12,-21 0,14 12,-26 4,-15 4,-15 5,-28 2,-17 2,-47 2,-65 1,-63 1,-79 -16,-136 -59,-49 -354,-95 -441,-244 -64,-108 -18,-327 -1,-471 7,-54 4,-113 41,-135 33,-36 57,-61 76,-120 46,-149 6,-138 2,-159 -2,-6 -5,-6 -8,-9 -54,-11 -150,8 -183,38z"/>
  <path class="fil10" d="M16029 14750l51 35c11,5 38,16 56,23 35,14 78,28 122,37 88,18 185,23 278,31 187,17 411,-2 606,-2 316,0 370,59 557,62 105,1 258,-203 285,-328 -105,-55 -165,-158 -455,-101 -152,30 -292,89 -455,123 -211,45 -845,154 -1045,120z"/>
  <path class="fil5" d="M9293 11416l1 77c59,5 48,-19 53,-79 10,-144 10,-188 99,-276 70,-69 167,-224 244,-265 55,24 173,169 96,255 4,158 -283,267 -279,380 50,0 179,-130 217,-171 77,-86 111,-95 135,-250 14,-183 -81,-193 -113,-261 97,-66 150,1 194,56 99,123 287,503 304,644 -86,-40 -139,-73 -259,-66 -171,46 -204,86 -316,157l9 40c50,-1 63,-26 100,-50 35,-24 62,-39 105,-52 33,-30 129,-49 183,-38 68,15 122,43 172,78 60,41 60,64 81,147 49,194 -48,186 -115,302 -110,193 235,439 287,573 -108,-14 -425,-153 -472,-212 -95,-122 1,-430 3,-595l-26 -5c-37,22 -34,81 -41,135 -17,144 -63,363 1,471 87,149 382,195 441,244 51,9 123,26 149,64 34,50 77,226 53,312 -16,59 -45,71 -85,107 -48,43 -61,49 -130,16 -145,-71 -327,-222 -353,-228 -24,27 -13,-3 -14,47 19,9 64,56 87,74 35,29 58,44 100,70 58,38 154,94 228,117 78,-2 130,-60 173,-96 59,-50 65,-74 102,-162 13,40 21,61 36,102 21,58 16,79 71,73l7 -29c-52,-133 -110,-315 -185,-425 -45,-65 -87,-119 -131,-176 -68,-87 -225,-235 -260,-355 -26,-88 53,-150 92,-193 61,-68 67,-124 41,-233 -10,-40 -11,-90 -25,-123 -100,-243 -308,-858 -516,-876 -141,-12 -302,196 -354,264 -118,155 -174,139 -190,411z"/>
  <path class="fil5" d="M6152 12270c4,70 -89,346 -112,437 -40,155 -80,280 -120,438 -78,310 -128,608 -168,939 -37,384 -77,769 -110,1159 -17,199 -27,399 -28,604 -1,211 11,433 4,641l0 62c71,5 56,3 52,-181 -1,-72 -3,-143 3,-215l77 -795c11,-132 37,-248 55,-375 59,-403 44,-436 68,-808 11,-162 21,-599 81,-761l13 -26c-12,-58 76,-456 96,-533 41,-163 90,-329 139,-485 5,-51 13,-61 -7,-110l-43 9z"/>
  <path class="fil9" d="M6166 11360c30,24 -13,129 -22,166 -15,58 -24,131 -35,196 -14,87 -84,333 -43,400 50,-4 53,-52 69,-90 38,-89 98,-281 143,-340 8,60 -103,502 -126,578l43 -9c20,49 12,59 7,110 27,-23 7,1 18,-34 6,-18 5,-15 6,-34 6,-92 -19,-8 24,-178 19,-76 31,-153 48,-239 20,-94 97,-414 92,-487 -30,25 -68,158 -79,205 -14,56 3,52 -41,65l-10 -18c0,-2 -2,-6 -3,-9l94 -316c149,-374 366,-943 533,-1283 113,-229 181,-379 307,-603 33,-56 155,-248 159,-296 -121,91 -562,847 -661,1032 -126,235 -287,602 -396,865 -36,87 -103,228 -127,319z"/>
  <path class="fil5" d="M16562 11506c-71,-2 -85,-27 -109,-83 -63,-148 -58,-356 12,-490l314 -18c5,150 -147,507 -217,591zm-166 -60c-184,-43 -523,-331 -551,-483l554 -27c-73,232 -44,286 -3,510zm212 -701c-195,49 -466,77 -675,112l-513 85c-65,10 -135,3 -134,59 44,36 219,-19 288,-23 207,206 133,174 435,356 87,52 157,94 260,137 41,16 270,95 282,103l57 -2c11,-23 17,-49 32,-78 84,-171 190,-375 194,-580l284 -18c-6,-59 -46,-55 -100,-83 -96,-48 -175,-107 -253,-93 -55,9 -103,18 -157,25z"/>
  <path class="fil11" d="M15112 23213c-13,51 -10,80 -24,135 -43,165 -53,232 133,291 67,21 929,275 989,278 176,8 233,-340 233,-387l-244 -17c-13,74 -13,86 -39,143 -98,-2 -356,-92 -469,-125l-237 -56c-121,-35 -109,-135 -115,-169 -54,-26 -177,-85 -227,-93z"/>
  <path class="fil9" d="M7946 16207c11,-51 -27,-261 -29,-337 -3,-117 -8,-229 -9,-353 -2,-476 83,-858 179,-1294 28,-128 104,-355 154,-485 16,-41 11,-48 40,-50l-223 -1087c-30,305 -13,637 -36,941 -24,304 -67,579 -93,873 -49,545 -121,1040 -27,1593 6,39 12,73 18,110 1,11 6,39 8,48 12,45 -2,19 18,41z"/>
  <path class="fil11" d="M10974 20515c-71,-2 -125,-47 -219,-100 -100,-57 -322,-180 -417,-217 -139,-54 -97,-172 -93,-205 -35,-34 -161,-103 -214,-110l-99 226c-20,107 47,152 121,190l626 340c73,39 139,67 209,109 93,55 149,63 225,-13 35,-35 103,-141 117,-197 -30,-29 -164,-114 -200,-124 -21,27 -12,25 -26,52 -14,27 -15,22 -30,49z"/>
  <path class="fil11" d="M13624 22704c15,90 97,122 161,168l686 473c40,24 58,48 94,66 181,86 344,-255 347,-283 -56,-26 -172,-80 -224,-81 -37,51 -24,65 -80,99 -75,-19 -74,-41 -131,-80l-403 -278c-27,-17 -36,-14 -61,-29 -110,-69 -9,-98 -172,-215 -34,-25 -79,-60 -117,-72 -37,61 -114,141 -100,232z"/>
  <path class="fil11" d="M12132 21341c-59,-9 -113,-74 -188,-138l-349 -287c-82,-45 -112,-107 -83,-212 -54,-19 -133,-87 -198,-117 -36,27 -124,135 -129,201 -8,103 81,154 135,199 116,98 237,192 353,295 120,107 235,195 352,295 165,142 352,-129 377,-187 -30,-34 -154,-136 -193,-149 -24,49 -32,62 -77,100z"/>
  <path class="fil11" d="M13336 22299c-55,-17 -65,-38 -100,-70 -67,-59 -392,-336 -436,-359 -122,-61 -78,-183 -78,-219 -35,-35 -49,-41 -86,-72 -29,-26 -54,-56 -100,-68 -28,54 -117,129 -136,193 -35,118 50,168 102,213l531 446c37,29 64,52 93,78 34,32 55,41 89,70 78,68 121,97 232,24 50,-33 131,-112 150,-170l-189 -129c-20,21 -45,47 -72,63z"/>
  <path class="fil10" d="M17925 13716c-43,-11 -115,-43 -150,-59 -104,-52 -117,-44 -111,-106 63,-14 409,-42 479,-37 92,8 64,59 -46,107 -132,58 -76,34 -172,95zm19 140l27 -42c106,-7 124,-42 269,-96 87,-33 169,-68 252,-111 62,-33 464,-258 359,-334l-1 33c-170,4 -1361,121 -1444,167 0,46 0,25 21,54 58,76 124,112 216,171 43,27 97,62 142,85 118,59 141,25 159,73z"/>
  <path class="fil9" d="M6036 19131c8,9 36,63 50,81 244,337 791,823 1210,783 0,-92 -2,-173 -14,-262 -14,-108 -13,-130 -117,-145 -327,-48 -701,-181 -975,-355 -46,-30 -112,-81 -154,-102z"/>
  <path class="fil12" d="M12644 20673l-608 -470c-39,-26 -56,-30 -92,-56 -199,-141 -353,15 -386,111 207,106 136,127 268,107 69,-10 104,27 140,55 41,33 65,50 111,82 104,73 213,175 324,256 63,46 51,44 55,144 38,35 68,52 105,81 40,31 63,60 109,80 28,-38 97,-129 94,-204 -4,-92 -64,-138 -120,-186z"/>
  <path class="fil12" d="M13510 21364c-57,-46 -109,-86 -166,-129 -65,-49 -98,-79 -172,-124 -54,-32 -124,-88 -214,-65 -74,18 -145,71 -169,132 65,44 176,151 215,151 47,0 48,-25 107,2 57,25 222,167 284,216 432,333 221,225 313,312l217 153c137,-202 40,-276 -83,-390l-332 -258z"/>
  <path class="fil5" d="M8388 9917c45,128 916,56 1010,47 151,-14 296,-42 426,-84 380,-122 681,-324 993,-551 246,-178 566,-334 855,-439 67,-24 164,-38 149,-104 -93,-23 -696,279 -807,342 -242,138 -483,292 -745,414 -261,122 -535,240 -836,322 -254,69 -676,96 -942,47 -56,-10 -74,-28 -103,6z"/>
  <path class="fil12" d="M15185 22551c-32,-89 -395,-293 -482,-347 -120,-74 -418,-303 -571,-270 -75,17 -126,70 -148,129 115,83 160,141 251,136 100,-6 378,207 507,284 227,136 150,126 166,209 74,24 176,81 247,83 34,-83 69,-116 30,-224z"/>
  <path class="fil9" d="M7728 20200c53,-196 83,-410 -34,-569l-374 -20c-4,34 26,187 29,245 19,368 -7,391 -98,737 80,-37 270,-214 285,-321 14,-95 17,-193 14,-291 -2,-64 -45,-208 -19,-251 53,6 48,31 58,90 24,129 24,263 12,390 -27,273 -69,315 -93,467 28,-21 19,-16 42,-53 79,-130 137,-270 178,-424z"/>
  <path class="fil12" d="M15222 22810c65,29 192,107 256,76 97,-48 189,-1 290,23l439 109c62,25 57,38 83,88l259 20c40,-217 -48,-247 -211,-297 -117,-37 -273,-68 -398,-99 -132,-32 -500,-150 -621,-73 -45,29 -96,80 -97,153z"/>
  <path class="fil10" d="M9669 11617c-42,24 -77,58 -135,74 -166,47 -202,-114 -233,225l-14 194c-2,27 -6,3 0,34 7,33 -4,12 15,33l1 -68c68,-4 53,50 66,115 23,120 92,320 202,384 -63,-245 -59,-316 129,-511 52,-54 109,-121 130,-223 20,-104 8,-222 53,-319 -43,13 -70,28 -105,52 -37,24 -50,49 -100,50l-9 -40z"/>
  <path class="fil9" d="M6810 12122c51,-6 18,-6 37,25 6,10 10,38 13,51 150,676 209,730 206,1490 -1,54 2,85 8,137 2,24 1,45 3,68l14 60c1,-307 -9,-577 0,-889 5,-203 -28,-251 54,-249 -32,-63 -44,-301 -55,-412 -6,-57 -17,-76 -1,-117 2,-4 9,-17 11,-20l-43 -1c-34,-151 -19,-496 -15,-667 5,-216 54,-422 56,-622 -30,64 -62,188 -89,272 -110,349 -139,492 -199,874z"/>
  <path class="fil5" d="M4927 19353c27,-56 -110,-429 -136,-528 -159,-615 -247,-1174 -270,-1820 -21,-600 -17,-1857 84,-2491 9,-55 35,-131 -16,-156 -36,20 -19,2 -25,56 -24,195 -51,347 -69,556 -41,495 -63,1586 -33,2043 46,679 100,1182 275,1832l122 401c18,57 13,105 68,107z"/>
  <path class="fil12" d="M13285 21801c44,169 123,238 279,361 165,129 146,134 362,262 240,143 235,69 313,116 70,-131 -39,-258 -118,-310l-538 -394c-71,-53 -220,-167 -298,-35z"/>
  <path class="fil5" d="M9720 6248c44,31 188,-32 262,-59 598,-222 1326,-400 1957,-446 745,-55 1199,-52 1926,64 150,24 272,51 410,104 52,19 82,56 128,30 -8,-74 -145,-101 -216,-123 -234,-76 -653,-118 -900,-144 -410,-44 -936,-29 -1343,8 -428,39 -790,101 -1186,202 -339,86 -661,206 -987,320 -52,18 -40,2 -51,44z"/>
  <path class="fil10" d="M11104 13716c-11,204 -47,313 -155,425 -189,196 -274,72 -328,253 140,73 609,300 745,338l-262 -1016z"/>
  <path class="fil9" d="M3594 15644l18 -5c0,89 14,418 -7,474 -268,739 -409,1183 -399,2006 2,166 16,278 40,433 11,71 54,322 83,377l14 19c-14,-145 -41,-282 -51,-432 -8,-140 -8,-325 2,-466 20,-272 62,-556 112,-821 73,-382 150,-624 222,-948 19,-88 -2,-544 4,-676 -28,6 -21,12 -38,39z"/>
  <path class="fil10" d="M9996 11805l26 5c-2,165 -98,473 -3,595 47,59 364,198 472,212 -52,-134 -397,-380 -287,-573 67,-116 164,-108 115,-302 -21,-83 -21,-106 -81,-147 -50,-35 -104,-63 -172,-78 3,3 6,3 8,9 4,21 44,10 -2,159 -19,59 -43,84 -76,120z"/>
  <path class="fil11" d="M10175 19644c-114,-18 -227,-53 -334,-86 -67,-20 -258,-103 -306,-97 -10,85 7,109 73,137l416 209c83,44 185,96 276,144 87,45 215,121 293,36 86,-94 11,-227 -74,-266 -85,-39 -240,-59 -344,-77z"/>
  <path class="fil12" d="M12137 20891l53 7c0,102 -9,99 44,163 70,85 567,492 647,534 73,38 113,0 174,22 64,-141 -75,-212 -136,-264l-372 -299c-105,-94 -297,-277 -410,-163z"/>
  <path class="fil5" d="M12509 4998c-2,55 20,46 86,51 43,4 89,7 136,10 298,18 491,18 796,78 517,101 1651,507 2128,791 56,34 315,212 385,183 7,-60 -10,-49 -66,-71 -38,-16 -67,-31 -99,-48 -67,-37 -122,-73 -184,-111 -119,-73 -252,-129 -387,-193 -460,-216 -1230,-498 -1736,-604 -166,-35 -338,-58 -516,-66 -73,-4 -511,-34 -543,-20z"/>
  <path class="fil10" d="M10432 13234c5,74 -136,184 -71,480 14,64 3,57 -7,69 433,291 450,-69 295,-168 -80,-52 -133,-2 -173,-111 -26,-69 -23,-183 23,-234 83,-94 420,23 530,238 26,-25 33,-40 45,-83l47 -2c-2,-2 -6,-9 -7,-7l-28 -34c-99,-133 -95,-92 -192,-183 -24,-22 -43,-52 -73,-77l-7 29c-55,6 -50,-15 -71,-73 -15,-41 -23,-62 -36,-102 -37,88 -43,112 -102,162 -43,36 -95,94 -173,96z"/>
  <path class="fil9" d="M7574 20782l-31 -1c80,-41 168,-148 227,-220 67,-82 113,-194 158,-296 87,-198 163,-382 187,-602 7,-65 6,-42 30,-89l-372 48c10,44 39,87 49,147 53,324 -143,850 -342,1049 45,-1 71,-10 94,-36z"/>
  <path class="fil12" d="M15896 23276l-3 59c176,-27 674,35 878,71l197 44c50,13 42,14 82,-4 78,-84 -45,-218 -146,-228 -124,-12 -252,-17 -373,-34 -74,-11 -493,-56 -551,-24 -35,19 -85,56 -84,116z"/>
  <path class="fil5" d="M9224 18163l66 0c47,-66 -54,-94 -153,-287l-121 -220c-19,-37 -19,-52 -75,-51 1,68 36,106 46,176 -16,-13 -9,-4 -25,-25 -8,-11 -10,-15 -18,-29 -170,-299 -314,-648 -399,-985 -144,-572 -145,-739 -172,-1313 -29,-31 5,-36 -52,-31 -32,99 38,725 60,848 106,599 281,1188 622,1685 34,50 62,85 102,125 21,21 35,36 57,56 26,24 40,30 62,51z"/>
  <path class="fil7" d="M14247 22254c50,77 104,218 39,325 -68,112 -160,90 -287,75 17,32 560,406 602,420l27 -48c-51,-47 -96,-24 -138,-109 -33,-67 -18,-137 15,-188 28,-44 85,-89 139,-101 103,-23 121,26 199,31 -26,-105 -178,-156 -282,-222 -56,-37 -263,-183 -314,-183z"/>
  <path class="fil12" d="M14545 22799c14,36 41,4 149,41l868 380c39,19 40,26 66,25 51,-38 30,-131 2,-173 -36,-53 -71,-67 -143,-86l-314 -137c-58,-26 -107,-34 -168,-61 -77,-33 -269,-124 -349,-102 -56,15 -109,58 -111,113z"/>
  <path class="fil12" d="M10951 20029c-37,102 22,153 138,234l507 311c53,33 142,81 208,98 49,13 57,15 89,3 49,-163 -131,-220 -158,-240l-506 -311c-108,-66 -198,-148 -278,-95z"/>
  <path class="fil7" d="M11841 20419c37,35 87,69 107,144 22,85 5,160 -38,207 -149,166 -338,-15 -352,-22 -12,58 3,64 36,89l224 185c61,49 251,225 307,247l40 -72c-60,-63 -217,-119 -127,-287 23,-42 69,-84 125,-102 93,-31 121,5 195,3 -6,-42 -19,-41 -56,-68 -23,-18 -45,-28 -70,-44l-256 -198c-31,-23 -90,-83 -135,-82z"/>
  <path class="fil0" d="M3482 17181l-10 88c58,49 128,132 177,189 55,64 121,125 172,190l3 -19 -101 -574c-20,-128 -49,-516 -85,-594 -33,158 -164,580 -156,720z"/>
  <path class="fil5" d="M10397 6576c54,28 395,-89 472,-115 237,-80 752,-195 1002,-226 102,-13 491,-46 553,-69 7,-78 -68,-51 -246,-63 -103,-8 -215,-15 -317,1l-504 141c-51,13 -84,11 -131,28 -40,16 -73,32 -115,43 -94,23 -154,53 -245,86l-365 112c-61,17 -99,8 -104,62z"/>
  <path class="fil10" d="M17217 16730c37,-53 23,-201 33,-273 23,-151 127,-704 114,-797 -174,-32 -304,-96 -457,-134 20,94 60,47 149,235 63,135 129,445 150,602 8,57 15,117 18,176 2,64 -22,132 -7,191z"/>
  <path class="fil7" d="M10614 19713c32,29 73,114 73,178 0,88 -50,132 -88,170 43,38 57,4 54,68 -43,21 -120,-24 -176,-36 -141,-29 -121,-50 -186,-58 -1,92 58,95 132,134 56,30 110,59 169,91 71,39 291,168 347,179l34 -60c-42,-53 -102,-45 -152,-108 -38,-48 -51,-121 -18,-188 26,-52 73,-99 143,-119 99,-27 129,8 192,33 -21,-41 -59,-74 -107,-97 -54,-25 -89,-36 -143,-61 -62,-28 -226,-120 -274,-126z"/>
  <path class="fil7" d="M7414 8344c19,116 181,717 140,784 -81,-4 -24,-97 -74,-149 -17,83 48,111 -28,197 -24,-16 5,5 -19,-14l-16 -16c2,83 23,175 37,258 12,71 20,176 76,211 157,41 118,-158 115,-277 -7,-256 -30,-496 -71,-747 -15,-91 -69,-279 -64,-355 -32,36 -18,64 -40,109l-56 -1z"/>
  <path class="fil13" d="M16396 11446c-41,-224 -70,-278 3,-510l-554 27c28,152 367,440 551,483z"/>
  <path class="fil10" d="M9784 12784c14,31 16,39 6,68 53,14 175,85 227,121 1,-50 -10,-20 14,-47 26,6 208,157 353,228 69,33 82,27 130,-16 40,-36 69,-48 85,-107 24,-86 -19,-262 -53,-312 -26,-38 -98,-55 -149,-64 17,57 17,73 16,136 0,18 0,48 -2,65 -1,13 -1,13 -5,28 -12,40 0,5 -12,26 -97,0 -227,-27 -322,-47 -120,-25 -269,-76 -288,-79z"/>
  <path class="fil7" d="M15534 22918c3,3 6,6 8,8l72 48c129,89 148,307 -21,378 -77,32 -108,10 -149,7l-34 4c-1,-2 -5,2 -8,4 29,45 116,55 169,71 101,29 503,152 557,144l7 -81c-85,-15 -167,9 -236,-39 -54,-38 -87,-110 -71,-194 48,-251 326,-148 340,-181 2,-4 6,-3 8,-4 -27,-43 -96,-49 -147,-55 -141,-18 -364,-101 -495,-110z"/>
  <path class="fil7" d="M13056 21373c49,86 124,211 20,325 -133,145 -254,15 -311,18 -8,59 83,112 122,146l309 259c75,58 114,123 160,87 -27,-41 -105,-70 -143,-126 -87,-126 -54,-280 69,-359 79,-51 133,-25 221,-18 -63,-49 -398,-328 -447,-332z"/>
  <path class="fil2" d="M7417 9146l16 16c24,19 -5,-2 19,14 76,-86 11,-114 28,-197 11,-141 -142,-699 -205,-873 -38,-104 -40,-232 -172,-161 -15,58 61,224 80,286l165 609c18,64 51,273 69,306z"/>
  <path class="fil11" d="M10791 13833c-56,130 -107,204 -283,199 25,33 4,20 11,18 -22,30 -34,52 -47,91 -16,47 -5,72 -43,88 23,18 -5,5 34,15 10,3 22,4 32,5 287,27 559,-190 549,-507 -57,6 -93,14 -146,30 -18,5 -50,14 -68,23 -51,25 -27,-3 -39,38z"/>
  <path class="fil12" d="M10791 13833c12,-41 -12,-13 39,-38 18,-9 50,-18 68,-23 53,-16 89,-24 146,-30 -38,-381 -412,-474 -484,-433 -38,29 -58,100 -31,165 39,96 284,41 262,359z"/>
  <path class="fil8" d="M16608 11021c54,57 29,159 -44,146 -56,-9 -74,-150 44,-146zm-46 485c70,-84 222,-441 217,-591l-314 18c-70,134 -75,342 -12,490 24,56 38,81 109,83z"/>
  <path class="fil11" d="M15628 23245c-26,1 -27,-6 -66,-25l-868 -380c-108,-37 -135,-5 -149,-41 -30,38 -16,113 50,140l596 242c179,78 362,205 437,64z"/>
  <path class="fil12" d="M10429 14229c38,-16 27,-41 43,-88 13,-39 25,-61 47,-91 -7,2 14,15 -11,-18 -131,-21 -171,-88 -212,-199 -17,-46 -69,-76 -104,-102 -34,-27 -83,-71 -115,-88 -101,342 203,596 352,586z"/>
  <path class="fil11" d="M11893 20675c-32,12 -40,10 -89,-3 -66,-17 -155,-65 -208,-98l-507 -311c-116,-81 -175,-132 -138,-234 -61,20 -120,67 -106,157 13,85 146,114 214,165 132,98 418,254 525,337 41,32 80,87 162,90 89,5 125,-40 147,-103z"/>
  <path class="fil9" d="M7105 12184c23,-100 2,-416 3,-538 23,32 97,531 107,588 9,54 16,41 26,86 8,39 -1,68 18,103 75,-5 43,-93 32,-155 -12,-68 -22,-120 -32,-192 -32,-239 -66,-581 -70,-819 -2,-80 14,-416 7,-453 -21,28 -25,113 -33,166l-57 496c-9,108 -41,663 -1,718z"/>
  <path class="fil11" d="M14239 22540c-78,-47 -73,27 -313,-116 -216,-128 -197,-133 -362,-262 -156,-123 -235,-192 -279,-361 -49,34 -85,101 -57,185 23,71 62,92 111,129 94,70 189,132 287,201 94,65 195,132 289,200 80,57 248,168 324,24z"/>
  <path class="fil11" d="M17050 23446c-40,18 -32,17 -82,4l-197 -44c-204,-36 -702,-98 -878,-71l3 -59c-11,15 -5,-1 -12,25 -8,35 10,87 43,110 43,30 728,80 837,94 131,18 231,54 286,-59z"/>
  <path class="fil10" d="M9859 11087c58,-18 79,50 139,147 37,60 56,129 80,207 -93,-5 -78,8 -93,19 120,-7 173,26 259,66 -17,-141 -205,-521 -304,-644 -44,-55 -97,-122 -194,-56 32,68 127,78 113,261z"/>
  <path class="fil11" d="M13055 21617c-61,-22 -101,16 -174,-22 -80,-42 -577,-449 -647,-534 -53,-64 -44,-61 -44,-163l-53 -7c-54,26 -92,112 -43,174 5,6 116,88 136,102 31,23 34,31 66,59 24,22 40,32 69,56l268 221c122,93 192,194 273,201 86,9 124,-30 149,-87z"/>
  <path class="fil9" d="M6635 10780c41,-24 10,-9 23,0 10,78 19,133 21,216 1,60 -13,210 -5,247 23,-27 17,-45 26,-102 6,-38 13,-74 21,-116 15,-76 33,-148 50,-222 77,-338 178,-710 325,-1026 22,-46 72,-143 82,-187 -38,51 -247,486 -287,573 -44,97 -82,199 -129,303 -33,73 -109,235 -127,314z"/>
  <path class="fil11" d="M16552 23662c-5,43 -9,83 -6,126 17,271 345,150 273,-217l-245 -28 -22 119z"/>
  <path class="fil7" d="M12484 19437l200 59c305,98 660,196 956,295 59,20 334,117 373,100 5,-61 -6,-44 -146,-88l-945 -292c-69,-19 -126,-37 -192,-59 -64,-20 -135,-52 -194,-61l3 45 -55 1z"/>
  <path class="fil10" d="M9293 11416c-3,4 -6,4 -7,11 -1,7 -5,8 -6,12 -1,3 -4,6 -5,11 -1,4 -2,7 -3,11 -4,16 -3,32 0,47 7,45 8,42 31,64 38,-6 15,6 33,-20l20 -48c29,-75 -30,-60 111,-243 64,-84 169,-153 314,-185l5 52c77,-86 -41,-231 -96,-255 -77,41 -174,196 -244,265 -89,88 -89,132 -99,276 -5,60 6,84 -53,79l-1 -77z"/>
  <path class="fil7" d="M7540 8037c2,67 1,147 -31,201l46 4c26,116 57,237 77,359 16,94 34,320 58,385 15,-314 -25,-583 -10,-817 5,-88 27,-184 32,-264 -151,-5 -84,116 -124,167 -21,-6 -7,0 -21,-10 -1,-1 -4,-3 -6,-5 -2,-2 -5,-4 -7,-6 -2,-2 -5,-5 -7,-7 -2,-1 -4,-5 -7,-7z"/>
  <path class="fil10" d="M17266 11788c35,307 40,408 40,697 0,54 -7,59 29,81 70,-37 41,-173 41,-275 0,-54 12,-83 4,-125 -9,-49 -7,-81 -9,-136 -2,-100 -5,-195 -16,-294 -8,-63 -12,-66 -76,-70 -24,-1 -132,-3 -146,3 -101,43 112,110 133,119z"/>
  <path class="fil9" d="M8221 14529c2,102 1,600 49,643 59,-8 39,-54 63,-191 67,-377 70,-62 -37,-525 -12,-54 -11,-71 -58,-72l-17 145z"/>
  <path class="fil11" d="M11171 19915c1,-35 -15,-19 37,-41 17,-7 51,-14 71,-19 54,-15 84,-31 132,-45 -47,-45 -235,-140 -269,-143 -31,-3 -131,20 -173,26 -67,8 -125,10 -194,13 26,37 341,186 396,209z"/>
  <path class="fil12" d="M11171 19915c45,71 30,34 31,124 39,25 180,117 225,124 24,-61 63,-116 70,-193 7,-77 -29,-145 -86,-160 -48,14 -78,30 -132,45 -20,5 -54,12 -71,19 -52,22 -36,6 -37,41z"/>
  <path class="fil7" d="M10712 21276c-29,-58 -111,-77 -161,-99 -63,-28 -112,-51 -175,-86 -108,-60 -232,-131 -336,-187l7 -78c-43,48 -41,188 -26,255 121,29 239,55 353,91 109,34 229,81 338,104z"/>
  <path class="fil5" d="M17925 13716c96,-61 40,-37 172,-95 110,-48 138,-99 46,-107 -70,-5 -416,23 -479,37 -6,62 7,54 111,106 35,16 107,48 150,59z"/>
  <path class="fil12" d="M16873 23155c27,-110 28,-271 -106,-271 -191,0 -156,197 -154,254l260 17z"/>
  <path class="fil5" d="M15995 10695c63,-17 126,-51 190,-47l33 -17c119,-44 692,-91 742,-66 37,40 5,59 67,64 17,-36 13,-91 -21,-112 -106,-66 -734,33 -947,101 -60,19 -77,20 -64,77z"/>
  <path class="fil11" d="M9410 19875c-472,-179 -650,-415 -756,-477 6,137 112,170 210,227 93,55 177,105 272,161 103,61 459,307 599,184 -42,-22 -250,-66 -325,-95z"/>
  <path class="fil2" d="M7414 8344l56 1c22,-45 8,-73 40,-109l-1 2c32,-54 33,-134 31,-201l4 -50 -245 9 115 348z"/>
  <path class="fil5" d="M12322 22892c-24,-37 -36,-83 -94,-66 -6,58 325,503 398,614l105 158c44,46 55,13 55,13 10,-43 -22,-71 -49,-111 -26,-37 -41,-60 -69,-101 -49,-69 -92,-135 -138,-203 -48,-70 -90,-133 -138,-203 -27,-38 -45,-64 -70,-101z"/>
  <path class="fil5" d="M10347 8190c54,40 169,-28 226,-49l454 -160c36,-11 75,-23 112,-35 11,-4 51,-16 59,-20 52,-23 30,-3 40,-42 -19,-15 1,-8 -28,-13 -36,-5 -165,45 -203,57 -75,24 -157,53 -228,79l-392 143c-41,16 -30,2 -40,40z"/>
  <path class="fil7" d="M7002 24024c-2,3 -4,6 -6,8l-34 104c-63,233 -178,591 -191,812l263 -806c33,-97 79,-171 104,-257l-128 177c-3,-9 -11,15 -8,-38z"/>
  <path class="fil5" d="M9302 12177c23,69 29,150 55,219 29,78 66,134 107,189 69,91 192,226 326,267 10,-29 8,-37 -6,-68 -51,-7 -81,-41 -116,-73 -36,-32 -83,-63 -97,-103 -110,-64 -179,-264 -202,-384 -13,-65 2,-119 -66,-115l-1 68z"/>
  <path class="fil7" d="M9374 19558c81,64 136,138 206,120 -22,-60 -46,-30 -87,-100 -24,-42 -16,-100 -17,-155l-198 -96 -73 67c29,38 124,128 169,164z"/>
  <path class="fil13" d="M17085 15094c-161,71 127,222 255,167 148,-64 -122,-226 -255,-167z"/>
  <path class="fil7" d="M13605 21152c-42,-51 -143,-73 -203,-99l-403 -189c-113,-44 -120,-68 -199,-110 16,54 18,71 23,133l782 265z"/>
  <path class="fil1" d="M16820 22838c-39,-37 -54,14 -130,-65 -35,-37 -65,-66 -102,-102 -38,-37 -66,-64 -104,-101 -40,-40 -65,-76 -110,-102l220 426c104,-31 44,-70 226,-56z"/>
  <path class="fil9" d="M7251 8914c60,-5 18,-5 35,15 -19,71 -45,121 -69,186 -13,36 -63,160 -67,188 41,-26 98,-125 138,-175 75,-94 36,-117 16,-240 -42,-2 -34,-6 -53,26z"/>
  <path class="fil11" d="M9851 19786c-72,-28 -145,-84 -207,-100 -16,17 -31,30 -45,46 22,20 204,117 227,123l25 -69z"/>
  <path class="fil7" d="M13782 25400l165 0c-5,-66 -16,-80 -77,-91 -97,-18 -50,-20 -120,-46l32 137z"/>
  <path class="fil7" d="M12806 20938c-13,30 -30,78 -52,108 -8,12 -32,34 -36,46 -28,91 99,-29 112,-38 36,-28 63,-41 99,-58 -33,-32 -63,-29 -123,-58z"/>
  <path class="fil13" d="M16608 11021c-118,-4 -100,137 -44,146 73,13 98,-89 44,-146z"/>
  <path class="fil11" d="M8988 19155c30,25 108,155 179,191 40,-15 39,-11 54,-48l-233 -143z"/>
 </g>
</svg>
